<?xml version="1.0" encoding="UTF-8" standalone="no"?>
<!-- Created with Inkscape (http://www.inkscape.org/) -->

<svg
   xmlns:dc="http://purl.org/dc/elements/1.1/"
   xmlns:cc="http://creativecommons.org/ns#"
   xmlns:rdf="http://www.w3.org/1999/02/22-rdf-syntax-ns#"
   xmlns:svg="http://www.w3.org/2000/svg"
   xmlns="http://www.w3.org/2000/svg"
   xmlns:xlink="http://www.w3.org/1999/xlink"
   xmlns:sodipodi="http://sodipodi.sourceforge.net/DTD/sodipodi-0.dtd"
   xmlns:inkscape="http://www.inkscape.org/namespaces/inkscape"
   version="1.1"
   width="16"
   height="16"
   id="svg7384"
   inkscape:version="0.48.4 r9939"
   sodipodi:docname="user-trash-symbolic.svg">
  <sodipodi:namedview
     pagecolor="#ffffff"
     bordercolor="#666666"
     borderopacity="1"
     objecttolerance="10"
     gridtolerance="10"
     guidetolerance="10"
     inkscape:pageopacity="0"
     inkscape:pageshadow="2"
     inkscape:window-width="1280"
     inkscape:window-height="748"
     id="namedview21"
     showgrid="true"
     inkscape:zoom="25.836761"
     inkscape:cx="11.028375"
     inkscape:cy="8.6535858"
     inkscape:window-x="0"
     inkscape:window-y="0"
     inkscape:window-maximized="1"
     inkscape:current-layer="svg7384">
    <inkscape:grid
       type="xygrid"
       id="grid3798"
       empspacing="5"
       visible="true"
       enabled="true"
       snapvisiblegridlinesonly="true"
       spacingx="1.3877788e-16px"
       spacingy="1.3877788e-16px" />
  </sodipodi:namedview>
  <title
     id="title9167">Gnome Symbolic Icon Theme</title>
  <defs
     id="defs11">
    <linearGradient
       id="linearGradient4125">
      <stop
         id="stop4127"
         style="stop-color:#bebebe;stop-opacity:0.72941178"
         offset="0" />
      <stop
         id="stop4129"
         style="stop-color:#c8c8c8;stop-opacity:1"
         offset="0.08611956" />
      <stop
         id="stop4131"
         style="stop-color:#cdcdcd;stop-opacity:0.87843138"
         offset="0.92370826" />
      <stop
         id="stop4133"
         style="stop-color:#d3d3d3;stop-opacity:0.74901962"
         offset="1" />
    </linearGradient>
    <linearGradient
       x1="8"
       y1="11.333334"
       x2="8"
       y2="4.666667"
       id="linearGradient4032"
       xlink:href="#linearGradient4125"
       gradientUnits="userSpaceOnUse"
       gradientTransform="matrix(0.64285714,0,0,1.5,9.3571429,-3.0000004)" />
    <linearGradient
       id="linearGradient4114-1">
      <stop
         id="stop4116-38"
         style="stop-color:#bebebe;stop-opacity:0.40000001"
         offset="0" />
      <stop
         id="stop4122-7"
         style="stop-color:#c8c8c8;stop-opacity:0.4173913"
         offset="0.08611956" />
      <stop
         id="stop4124-4"
         style="stop-color:#cdcdcd;stop-opacity:0.4173913"
         offset="0.92370826" />
      <stop
         id="stop4118-9"
         style="stop-color:#d3d3d3;stop-opacity:0"
         offset="1" />
    </linearGradient>
    <linearGradient
       x1="8"
       y1="11.333334"
       x2="8"
       y2="4.666667"
       id="linearGradient4052"
       xlink:href="#linearGradient4114-1"
       gradientUnits="userSpaceOnUse"
       gradientTransform="matrix(0.64285714,0,0,1.5,7.3571429,-4e-7)" />
  </defs>
  <metadata
     id="metadata90">
    <rdf:RDF>
      <cc:Work
         rdf:about="">
        <dc:format>image/svg+xml</dc:format>
        <dc:type
           rdf:resource="http://purl.org/dc/dcmitype/StillImage" />
        <dc:title>Gnome Symbolic Icon Theme</dc:title>
      </cc:Work>
    </rdf:RDF>
  </metadata>
  <rect
     style="fill:none;fill-rule:evenodd;stroke:none"
     id="rect3781"
     width="16"
     height="16"
     x="0"
     y="-2.2165477e-07"
     ry="0.78048778" />
  <path
     style="fill:#cccccc;fill-rule:evenodd;stroke:none"
     d="m 1.5625,0.18749959 0,15.62500041 0.375,0 0,-0.53125 1.5625,0 0,0.53125 8.96875,0 0,-0.53125 1.5625,0 0,0.53125 0.40625,0 0,-15.62500041 -12.875,0 z m 2.3125,0.40625 8.21875,0 0,7.03125001 -8.21875,0 0,-7.03125001 z m -1.9375,0.375 1.5625,0 0,0.78125001 -1.5625,0 0,-0.78125001 z m 10.53125,0 1.5625,0 0,0.81250001 -1.5625,0 0,-0.81250001 z M 1.9375,2.4062496 l 1.5625,0 0,0.78125 -1.5625,0 0,-0.78125 z m 10.53125,0 1.5625,0 0,0.78125 -1.5625,0 0,-0.78125 z m -10.53125,1.4375 1.5625,0 0,0.78125 -1.5625,0 0,-0.78125 z m 10.53125,0 1.5625,0 0,0.78125 -1.5625,0 0,-0.78125 z m -10.53125,1.4375 1.5625,0 0,0.78125 -1.5625,0 0,-0.78125 z m 10.53125,0 1.5625,0 0,0.78125 -1.5625,0 0,-0.78125 z m -10.53125,1.40625 1.5625,0 0,0.78125 -1.5625,0 0,-0.78125 z m 10.53125,0 1.5625,0 0,0.78125 -1.5625,0 0,-0.78125 z m -10.53125,1.4375 1.5625,0 0,0.78125 -1.5625,0 0,-0.78125 z m 10.53125,0 1.5625,0 0,0.78125 -1.5625,0 0,-0.78125 z m -8.59375,0.46875 8.21875,0 0,7.0312504 -8.21875,0 0,-7.0312504 z m -1.9375,0.96875 1.5625,0 0,0.7812504 -1.5625,0 0,-0.7812504 z m 10.53125,0 1.5625,0 0,0.7812504 -1.5625,0 0,-0.7812504 z M 1.9375,11 3.5,11 l 0,0.78125 -1.5625,0 0,-0.78125 z m 10.53125,0 1.5625,0 0,0.78125 -1.5625,0 0,-0.78125 z m -10.53125,1.40625 1.5625,0 0,0.78125 -1.5625,0 0,-0.78125 z m 10.53125,0 1.5625,0 0,0.78125 -1.5625,0 0,-0.78125 z m -10.53125,1.4375 1.5625,0 0,0.78125 -1.5625,0 0,-0.78125 z m 10.53125,0 1.5625,0 0,0.78125 -1.5625,0 0,-0.78125 z"
     id="rect3880"
     inkscape:connector-curvature="0" />
</svg>
