<?xml version="1.0" encoding="UTF-8" standalone="no"?>
<!-- Created with Inkscape (http://www.inkscape.org/) -->

<svg
   xmlns:dc="http://purl.org/dc/elements/1.1/"
   xmlns:cc="http://creativecommons.org/ns#"
   xmlns:rdf="http://www.w3.org/1999/02/22-rdf-syntax-ns#"
   xmlns:svg="http://www.w3.org/2000/svg"
   xmlns="http://www.w3.org/2000/svg"
   xmlns:xlink="http://www.w3.org/1999/xlink"
   xmlns:sodipodi="http://sodipodi.sourceforge.net/DTD/sodipodi-0.dtd"
   xmlns:inkscape="http://www.inkscape.org/namespaces/inkscape"
   version="1.1"
   width="16"
   height="16"
   id="svg7384"
   inkscape:version="0.48.4 r9939"
   sodipodi:docname="folder-symbolic.svg">
  <sodipodi:namedview
     pagecolor="#ffffff"
     bordercolor="#666666"
     borderopacity="1"
     objecttolerance="10"
     gridtolerance="10"
     guidetolerance="10"
     inkscape:pageopacity="0"
     inkscape:pageshadow="2"
     inkscape:window-width="1280"
     inkscape:window-height="748"
     id="namedview21"
     showgrid="true"
     inkscape:zoom="25.836761"
     inkscape:cx="11.028375"
     inkscape:cy="8.6535858"
     inkscape:window-x="0"
     inkscape:window-y="0"
     inkscape:window-maximized="1"
     inkscape:current-layer="svg7384">
    <inkscape:grid
       type="xygrid"
       id="grid3798"
       empspacing="5"
       visible="true"
       enabled="true"
       snapvisiblegridlinesonly="true"
       spacingx="1.3877788e-16px"
       spacingy="1.3877788e-16px" />
  </sodipodi:namedview>
  <title
     id="title9167">Gnome Symbolic Icon Theme</title>
  <defs
     id="defs11">
    <linearGradient
       id="linearGradient4125">
      <stop
         id="stop4127"
         style="stop-color:#bebebe;stop-opacity:0.72941178"
         offset="0" />
      <stop
         id="stop4129"
         style="stop-color:#c8c8c8;stop-opacity:1"
         offset="0.08611956" />
      <stop
         id="stop4131"
         style="stop-color:#cdcdcd;stop-opacity:0.87843138"
         offset="0.92370826" />
      <stop
         id="stop4133"
         style="stop-color:#d3d3d3;stop-opacity:0.74901962"
         offset="1" />
    </linearGradient>
    <linearGradient
       x1="8"
       y1="11.333334"
       x2="8"
       y2="4.666667"
       id="linearGradient4032"
       xlink:href="#linearGradient4125"
       gradientUnits="userSpaceOnUse"
       gradientTransform="matrix(0.64285714,0,0,1.5,9.3571429,-3.0000004)" />
    <linearGradient
       id="linearGradient4114-1">
      <stop
         id="stop4116-38"
         style="stop-color:#bebebe;stop-opacity:0.40000001"
         offset="0" />
      <stop
         id="stop4122-7"
         style="stop-color:#c8c8c8;stop-opacity:0.4173913"
         offset="0.08611956" />
      <stop
         id="stop4124-4"
         style="stop-color:#cdcdcd;stop-opacity:0.4173913"
         offset="0.92370826" />
      <stop
         id="stop4118-9"
         style="stop-color:#d3d3d3;stop-opacity:0"
         offset="1" />
    </linearGradient>
    <linearGradient
       x1="8"
       y1="11.333334"
       x2="8"
       y2="4.666667"
       id="linearGradient4052"
       xlink:href="#linearGradient4114-1"
       gradientUnits="userSpaceOnUse"
       gradientTransform="matrix(0.64285714,0,0,1.5,7.3571429,-4e-7)" />
  </defs>
  <metadata
     id="metadata90">
    <rdf:RDF>
      <cc:Work
         rdf:about="">
        <dc:format>image/svg+xml</dc:format>
        <dc:type
           rdf:resource="http://purl.org/dc/dcmitype/StillImage" />
        <dc:title>Gnome Symbolic Icon Theme</dc:title>
      </cc:Work>
    </rdf:RDF>
  </metadata>
  <path
     id="rect3772"
     style="fill:#cccccc;fill-rule:evenodd;stroke:none"
     d="m 6.2500001,4.2812498 c -0.0162,0.4183005 -0.5619667,0.625 -0.9843751,0.625 l -2.34375,0 c -0.4120042,0 -0.9374382,-0.2212997 -0.96875,-0.625 -0.8683497,0.1322568 -1.34375,0.7810586 -1.34375,1.6875 l 0,7.2187502 c 0,1.000449 0.8120509,1.8125 1.8125,1.8125 l 11.15625,0 c 1.000449,0 1.8125,-0.812051 1.8125,-1.8125 l 0,-7.2187502 c 0,-1.0004491 -0.812197,-1.8295628 -1.8125,-1.8125 z M 2.140625,0.99999978 c -0.4328125,0 -0.78125,0.34843752 -0.78125,0.78125002 0,0.07491 0.011744,0.1502642 0.03125,0.21875 -0.4775332,0.2667508 -0.8125,0.7557783 -0.8125,1.34375 l 0,4.6875 c 0,0.1082031 0.0105042,0.2106018 0.03125,0.3125 l 0,-2.96875 c 0,-0.9659228 0.6629003,-1.7653144 1.53125,-1.90625 0.031312,0.4301914 0.3692458,0.78125 0.78125,0.78125 l 2.34375,0 c 0.4224084,0 0.76505,-0.3667504 0.78125,-0.8125 l 7.53125,0 c 1.000449,0 1.8125,0.8714007 1.8125,1.9375 l 0,2.96875 c 0.02075,-0.1018982 0.03125,-0.2042969 0.03125,-0.3125 l 0,-4.6875 c 0,-0.8656251 -0.696875,-1.5625 -1.5625,-1.5625 l -8.59375,0 c 0,-0.4328125 -0.3484375,-0.78125002 -0.78125,-0.78125002 z"
     inkscape:connector-curvature="0"
     sodipodi:nodetypes="csscssssssscsscsscscsscsscssscss" />
  <rect
     style="fill:none;fill-rule:evenodd;stroke:none"
     id="rect3781"
     width="16"
     height="16"
     x="0"
     y="-2.2165477e-07"
     ry="0.78048778" />
</svg>
