<?xml version="1.0" encoding="UTF-8" standalone="no"?>
<!-- Created with Inkscape (http://www.inkscape.org/) -->

<svg
   xmlns:dc="http://purl.org/dc/elements/1.1/"
   xmlns:cc="http://creativecommons.org/ns#"
   xmlns:rdf="http://www.w3.org/1999/02/22-rdf-syntax-ns#"
   xmlns:svg="http://www.w3.org/2000/svg"
   xmlns="http://www.w3.org/2000/svg"
   xmlns:sodipodi="http://sodipodi.sourceforge.net/DTD/sodipodi-0.dtd"
   xmlns:inkscape="http://www.inkscape.org/namespaces/inkscape"
   width="16px"
   height="16px"
   id="svg2985"
   version="1.1"
   inkscape:version="0.48.4 r9939"
   sodipodi:docname="New document 2">
  <defs
     id="defs2987" />
  <sodipodi:namedview
     id="base"
     pagecolor="#ffffff"
     bordercolor="#666666"
     borderopacity="1.0"
     inkscape:pageopacity="0.0"
     inkscape:pageshadow="2"
     inkscape:zoom="22.197802"
     inkscape:cx="8"
     inkscape:cy="8"
     inkscape:current-layer="layer1"
     showgrid="true"
     inkscape:grid-bbox="true"
     inkscape:document-units="px"
     inkscape:window-width="1280"
     inkscape:window-height="748"
     inkscape:window-x="0"
     inkscape:window-y="0"
     inkscape:window-maximized="1" />
  <metadata
     id="metadata2990">
    <rdf:RDF>
      <cc:Work
         rdf:about="">
        <dc:format>image/svg+xml</dc:format>
        <dc:type
           rdf:resource="http://purl.org/dc/dcmitype/StillImage" />
        <dc:title></dc:title>
      </cc:Work>
    </rdf:RDF>
  </metadata>
  <g
     id="layer1"
     inkscape:label="Layer 1"
     inkscape:groupmode="layer">
    <path
       style="fill:#cccccc;fill-rule:evenodd;stroke:none;stroke-width:0.09471459000000000;stroke-linecap:butt;stroke-linejoin:miter;stroke-miterlimit:4;stroke-opacity:1;stroke-dasharray:none"
       d="m 1.6878492,1.6333484 c -2.02188177,2.0105645 -2.03112294,5.3032968 -0.020559,7.3251785 1.8178574,1.8280901 4.6511472,1.9712381 6.675026,0.5001063 0.3699222,0.9424598 1.3229761,2.2958778 2.6269628,3.6072038 2.035489,2.046947 4.154439,3.215292 4.722571,2.650338 0.568131,-0.564951 -0.609287,-2.669556 -2.644777,-4.716503 C 11.755808,9.7011406 10.414319,8.7563986 9.4755417,8.373493 10.976925,6.3595258 10.818331,3.5113482 8.9920398,1.6747773 6.981475,-0.34710448 3.709731,-0.3772162 1.6878492,1.6333484 z M 2.4391816,2.38891 C 4.0480546,0.78904223 6.6575986,0.79636594 8.2574663,2.405239 9.8573339,4.014112 9.8291398,6.6026682 8.2202663,8.2025358 6.6113936,9.8024035 4.0227199,9.8160675 2.4228524,8.2071945 0.8229846,6.5983214 0.83030853,3.9887776 2.4391816,2.38891 z"
       id="path2993"
       inkscape:connector-curvature="0" />
  </g>
</svg>
