<?xml version="1.0" encoding="UTF-8" standalone="no"?>
<!-- Created with Inkscape (http://www.inkscape.org/) -->

<svg
   xmlns:dc="http://purl.org/dc/elements/1.1/"
   xmlns:cc="http://creativecommons.org/ns#"
   xmlns:rdf="http://www.w3.org/1999/02/22-rdf-syntax-ns#"
   xmlns:svg="http://www.w3.org/2000/svg"
   xmlns="http://www.w3.org/2000/svg"
   xmlns:sodipodi="http://sodipodi.sourceforge.net/DTD/sodipodi-0.dtd"
   xmlns:inkscape="http://www.inkscape.org/namespaces/inkscape"
   version="1.1"
   width="16"
   height="16"
   id="svg7384"
   inkscape:version="0.48.4 r9939"
   sodipodi:docname="view-list-images-symbolic.svg">
  <sodipodi:namedview
     pagecolor="#ffffff"
     bordercolor="#666666"
     borderopacity="1"
     objecttolerance="10"
     gridtolerance="10"
     guidetolerance="10"
     inkscape:pageopacity="0"
     inkscape:pageshadow="2"
     inkscape:window-width="1280"
     inkscape:window-height="748"
     id="namedview8"
     showgrid="false"
     inkscape:zoom="33.25"
     inkscape:cx="8"
     inkscape:cy="8"
     inkscape:window-x="0"
     inkscape:window-y="0"
     inkscape:window-maximized="1"
     inkscape:current-layer="svg7384" />
  <title
     id="title9167">Gnome Symbolic Icon Theme</title>
  <defs
     id="defs11" />
  <metadata
     id="metadata90">
    <rdf:RDF>
      <cc:Work
         rdf:about="">
        <dc:format>image/svg+xml</dc:format>
        <dc:type
           rdf:resource="http://purl.org/dc/dcmitype/StillImage" />
        <dc:title>Gnome Symbolic Icon Theme</dc:title>
      </cc:Work>
    </rdf:RDF>
  </metadata>
  <path
     style="fill:#bebebe;fill-opacity:1;fill-rule:nonzero;stroke:none"
     d="M 6 2 C 5.446 2 5 2.446 5 3 L 5 4 L 1 4 C 0.446 4 0 4.446 0 5 L 0 13 C 0 13.554 0.446 14 1 14 L 15 14 C 15.554 14 16 13.554 16 13 L 16 5 C 16 4.446 15.554 4 15 4 L 11 4 L 11 3 C 11 2.446 10.554 2 10 2 L 6 2 z M 8 6 C 9.656854 6 11 7.3431457 11 9 C 11 10.656854 9.656854 12 8 12 C 6.343146 12 5 10.656854 5 9 C 5 7.3431457 6.343146 6 8 6 z "
     id="rect3494" />
</svg>
