<?xml version="1.0" encoding="UTF-8" standalone="no"?>
<!-- Created with Inkscape (http://www.inkscape.org/) -->

<svg
   xmlns:dc="http://purl.org/dc/elements/1.1/"
   xmlns:cc="http://creativecommons.org/ns#"
   xmlns:rdf="http://www.w3.org/1999/02/22-rdf-syntax-ns#"
   xmlns:svg="http://www.w3.org/2000/svg"
   xmlns="http://www.w3.org/2000/svg"
   xmlns:xlink="http://www.w3.org/1999/xlink"
   xmlns:sodipodi="http://sodipodi.sourceforge.net/DTD/sodipodi-0.dtd"
   xmlns:inkscape="http://www.inkscape.org/namespaces/inkscape"
   version="1.1"
   width="16"
   height="16"
   id="svg7384"
   inkscape:version="0.48.4 r9939"
   sodipodi:docname="printer-symbolic.svg">
  <sodipodi:namedview
     pagecolor="#ffffff"
     bordercolor="#666666"
     borderopacity="1"
     objecttolerance="10"
     gridtolerance="10"
     guidetolerance="10"
     inkscape:pageopacity="0"
     inkscape:pageshadow="2"
     inkscape:window-width="1280"
     inkscape:window-height="748"
     id="namedview7"
     showgrid="true"
     inkscape:zoom="17.46875"
     inkscape:cx="5.7337127"
     inkscape:cy="8"
     inkscape:window-x="0"
     inkscape:window-y="0"
     inkscape:window-maximized="1"
     inkscape:current-layer="svg7384"
     showguides="true"
     inkscape:guide-bbox="true">
    <inkscape:grid
       type="xygrid"
       id="grid3000" />
  </sodipodi:namedview>
  <title
     id="title9167">Gnome Symbolic Icon Theme</title>
  <defs
     id="defs11">
    <linearGradient
       gradientTransform="matrix(0.34883886,0,0,0.37500427,-0.37213192,-0.18761334)"
       gradientUnits="userSpaceOnUse"
       xlink:href="#linearGradient6866"
       id="linearGradient2877"
       y2="19.999981"
       x2="20.278992"
       y1="36.999981"
       x1="20.561552" />
    <linearGradient
       gradientTransform="matrix(0.34883886,0,0,0.37500427,-0.37213199,-0.1876208)"
       gradientUnits="userSpaceOnUse"
       xlink:href="#linearGradient8589"
       id="linearGradient2875"
       y2="37"
       x2="11.50602"
       y1="20"
       x1="11.519291" />
    <radialGradient
       gradientTransform="matrix(0.3170197,0.00536125,-0.00400368,0.19223751,0.43811555,6.4966532)"
       gradientUnits="userSpaceOnUse"
       xlink:href="#linearGradient6842"
       id="radialGradient2872"
       fy="11.918329"
       fx="3.7590685"
       r="21"
       cy="11.918329"
       cx="3.7590685" />
    <linearGradient
       gradientTransform="matrix(0.33544392,0,0,0.36881684,-0.05065306,-0.458053)"
       gradientUnits="userSpaceOnUse"
       xlink:href="#linearGradient2366"
       id="linearGradient2869"
       y2="21"
       x2="15.335471"
       y1="33"
       x1="15.600636" />
    <linearGradient
       gradientTransform="matrix(0.33544392,0,0,0.36881684,-0.05065306,-0.458053)"
       gradientUnits="userSpaceOnUse"
       xlink:href="#linearGradient6828"
       id="linearGradient2867"
       y2="33"
       x2="22.007805"
       y1="21"
       x1="21.919418" />
    <linearGradient
       gradientTransform="matrix(0.75000012,0,0,0.71431976,-1.0000009,-0.572158)"
       gradientUnits="userSpaceOnUse"
       xlink:href="#linearGradient6660"
       id="linearGradient6666"
       y2="0.80098301"
       x2="11.999999"
       y1="10"
       x1="12" />
    <linearGradient
       id="linearGradient8589">
      <stop
         offset="0"
         style="stop-color:#fefefe;stop-opacity:1"
         id="stop8591" />
      <stop
         offset="1"
         style="stop-color:#bebebe;stop-opacity:1"
         id="stop8593" />
    </linearGradient>
    <linearGradient
       id="linearGradient2366">
      <stop
         offset="0"
         style="stop-color:#2e3436;stop-opacity:1"
         id="stop2368" />
      <stop
         offset="1"
         style="stop-color:#555753;stop-opacity:1"
         id="stop2370" />
    </linearGradient>
    <linearGradient
       id="linearGradient6828">
      <stop
         offset="0"
         style="stop-color:#6e6e6e;stop-opacity:1"
         id="stop6830" />
      <stop
         offset="1"
         style="stop-color:#1e1e1e;stop-opacity:1"
         id="stop6832" />
    </linearGradient>
    <linearGradient
       id="linearGradient6842">
      <stop
         offset="0"
         style="stop-color:white;stop-opacity:1"
         id="stop6844" />
      <stop
         offset="1"
         style="stop-color:white;stop-opacity:0"
         id="stop6846" />
    </linearGradient>
    <linearGradient
       id="linearGradient6866">
      <stop
         offset="0"
         style="stop-color:#828282;stop-opacity:1"
         id="stop6868" />
      <stop
         offset="1"
         style="stop-color:#aaa;stop-opacity:1"
         id="stop6870" />
    </linearGradient>
    <linearGradient
       id="linearGradient6660">
      <stop
         offset="0"
         style="stop-color:#787878;stop-opacity:1"
         id="stop6662" />
      <stop
         offset="1"
         style="stop-color:#787878;stop-opacity:0"
         id="stop6664" />
    </linearGradient>
  </defs>
  <metadata
     id="metadata90">
    <rdf:RDF>
      <cc:Work
         rdf:about="">
        <dc:format>image/svg+xml</dc:format>
        <dc:type
           rdf:resource="http://purl.org/dc/dcmitype/StillImage" />
        <dc:title>Gnome Symbolic Icon Theme</dc:title>
      </cc:Work>
    </rdf:RDF>
  </metadata>
  <path
     style="font-size:medium;font-style:normal;font-variant:normal;font-weight:normal;font-stretch:normal;text-indent:0;text-align:start;text-decoration:none;line-height:normal;letter-spacing:normal;word-spacing:normal;text-transform:none;direction:ltr;block-progression:tb;writing-mode:lr-tb;text-anchor:start;baseline-shift:baseline;color:#000000;fill:#bebebe;fill-opacity:1;stroke:none;stroke-width:1px;marker:none;visibility:visible;display:inline;overflow:visible;enable-background:accumulate;font-family:Sans;-inkscape-font-specification:Sans"
     d="m -17.643895,-0.74418605 c -0.360352,0.046875 -0.9375,0.25 -0.9375,1 l 0,2.00000005 c 0,0 -1,0 -1,1 l 0,3 -1,0 c 0,0 -1,0 -1,1 l 0,5.5 c 0,0.5 0.5,0.5 0.5,0.5 l 0.5,0 c 0,1 1,1 1,1 0,0 0,1 1,1 l 9.9999997,0 c 1,0 1,-1 1,-1 0,0 1,0 1,-1 l 0.5,0 c 0.5,0 0.5,-0.419201 0.5,-0.5 l 0,-5.5 c 0,-1 -1,-1 -1,-1 l -1,0 0,-3 c 0,-1 -1,-1 -1,-1 l 0,-2.00000005 c 0,-1 -1,-1 -1.1875,-1 l -7.6249997,0 c -0.04687,0 -0.129883,-0.015625 -0.25,0 z m 0.0625,1 7.9999997,0 0,6.00000005 -7.9999997,0 0,-6.00000005 z m -2.4375,7.00000005 c 0.06152,-0.00879 0.09375,0 0.09375,0 l 1.34375,0 9.9999997,0 1.34375,0 c 0,0 0.65625,0 0.65625,0.5625 l 0,4.4375 -13.9999997,0 0,-4.4375 c 0,-0.421875 0.377929,-0.5361328 0.5625,-0.5625 z m 1.4375,6 9.9999997,0 0,1 -9.9999997,0 0,-1 z"
     id="path3076"
     inkscape:connector-curvature="0" />
  <g
     id="g3821"
     style="stroke:none"
     transform="matrix(1.122668,0,0,1,-0.92409916,0)">
    <rect
       ry="1"
       y="7"
       x="1"
       height="7"
       width="14"
       id="rect3009"
       style="fill:#cccccc;fill-rule:evenodd;stroke:none" />
    <rect
       style="fill:#b3b3b3;fill-rule:evenodd;stroke:none"
       id="rect3011"
       width="12.678977"
       height="2.8167217"
       x="1.6605122"
       y="12.011139"
       ry="0.98361021" />
    <rect
       ry="0"
       y="14"
       x="3"
       height="2"
       width="10"
       id="rect3013"
       style="fill:#cccccc;fill-rule:evenodd;stroke:none" />
    <rect
       y="4"
       x="3"
       height="3"
       width="10"
       id="rect3015"
       style="fill:#cccccc;fill-rule:evenodd;stroke:none" />
    <rect
       y="0.0054992461"
       x="4.0036025"
       height="6.904922"
       width="7.9927936"
       id="rect3017"
       style="fill:#e6e6e6;fill-rule:evenodd;stroke:none" />
    <rect
       y="7"
       x="3"
       height="4"
       width="10"
       id="rect3019"
       style="fill:#666666;fill-rule:evenodd;stroke:none" />
    <rect
       style="fill:#e6e6e6;fill-rule:evenodd;stroke:none"
       id="rect3819"
       width="7.9670272"
       height="1.5170544"
       x="4.0164866"
       y="14.212849"
       ry="0" />
  </g>
</svg>
