<?xml version="1.0" encoding="UTF-8" standalone="no"?>
<!-- Created with Inkscape (http://www.inkscape.org/) -->

<svg
   xmlns:dc="http://purl.org/dc/elements/1.1/"
   xmlns:cc="http://creativecommons.org/ns#"
   xmlns:rdf="http://www.w3.org/1999/02/22-rdf-syntax-ns#"
   xmlns:svg="http://www.w3.org/2000/svg"
   xmlns="http://www.w3.org/2000/svg"
   xmlns:sodipodi="http://sodipodi.sourceforge.net/DTD/sodipodi-0.dtd"
   xmlns:inkscape="http://www.inkscape.org/namespaces/inkscape"
   id="svg7384"
   height="16"
   width="16"
   version="1.1"
   inkscape:version="0.48.4 r9939"
   sodipodi:docname="call-end-symbolic.svg">
  <defs
     id="defs10" />
  <sodipodi:namedview
     pagecolor="#ffffff"
     bordercolor="#666666"
     borderopacity="1"
     objecttolerance="10"
     gridtolerance="10"
     guidetolerance="10"
     inkscape:pageopacity="0"
     inkscape:pageshadow="2"
     inkscape:window-width="1280"
     inkscape:window-height="748"
     id="namedview8"
     showgrid="true"
     inkscape:zoom="33.25"
     inkscape:cx="4.7480932"
     inkscape:cy="8"
     inkscape:window-x="0"
     inkscape:window-y="0"
     inkscape:window-maximized="1"
     inkscape:current-layer="svg7384">
    <inkscape:grid
       type="xygrid"
       id="grid2989"
       empspacing="5"
       visible="true"
       enabled="true"
       snapvisiblegridlinesonly="true" />
  </sodipodi:namedview>
  <metadata
     id="metadata90">
    <rdf:RDF>
      <cc:Work
         rdf:about="">
        <dc:format>image/svg+xml</dc:format>
        <dc:type
           rdf:resource="http://purl.org/dc/dcmitype/StillImage" />
        <dc:title>Gnome Symbolic Icon Theme</dc:title>
      </cc:Work>
    </rdf:RDF>
  </metadata>
  <title
     id="title9167">Gnome Symbolic Icon Theme</title>
  <path
     inkscape:connector-curvature="0"
     d="M 2.6926582,3.2448839 C 1.3245502,3.5725424 0.42442816,4.4948574 0.20306802,6.0189987 0.14206595,6.6595205 -0.11562229,7.5495134 0.48759262,7.9751622 1.2935598,8.4568282 2.2791871,8.3776166 3.1550676,8.2241213 3.7939619,8.0552502 4.0674014,7.9936563 4.5776906,7.5128098 c 0,0 -0.058954,-1.2183344 0.2133934,-1.8849186 2.197668,-0.9226905 4.3362687,-0.8543022 6.472935,0 0.272301,0.6666867 0.213393,1.8849186 0.213393,1.8849186 0.510289,0.4808465 0.783729,0.5424404 1.422623,0.7113115 0.875846,0.1534953 1.861474,0.2327069 2.667475,-0.2489591 0.603215,-0.4255691 0.34547,-1.3156417 0.284525,-1.9561635 -0.221326,-1.5241413 -1.121517,-2.4464563 -2.489591,-2.7741148 -3.5711247,-0.6726389 -7.1430465,-0.8242677 -10.669672,0 z"
     style="fill:#b3b3b3;enable-background:new"
     id="path44097" />
  <path
     style="fill:#b3b3b3;fill-opacity:1;stroke:none"
     d="m 4.0977444,10.398496 7.8045116,0 L 8,15.601504 z"
     id="path2991"
     inkscape:connector-curvature="0" />
</svg>
