<?xml version="1.0" encoding="UTF-8" standalone="no"?>
<!-- Created with Inkscape (http://www.inkscape.org/) -->

<svg
   xmlns:dc="http://purl.org/dc/elements/1.1/"
   xmlns:cc="http://creativecommons.org/ns#"
   xmlns:rdf="http://www.w3.org/1999/02/22-rdf-syntax-ns#"
   xmlns:svg="http://www.w3.org/2000/svg"
   xmlns="http://www.w3.org/2000/svg"
   xmlns:sodipodi="http://sodipodi.sourceforge.net/DTD/sodipodi-0.dtd"
   xmlns:inkscape="http://www.inkscape.org/namespaces/inkscape"
   id="svg7384"
   height="16"
   width="16"
   version="1.1"
   inkscape:version="0.48.4 r9939"
   sodipodi:docname="call-start-symbolic.svg">
  <defs
     id="defs10" />
  <sodipodi:namedview
     pagecolor="#ffffff"
     bordercolor="#666666"
     borderopacity="1"
     objecttolerance="10"
     gridtolerance="10"
     guidetolerance="10"
     inkscape:pageopacity="0"
     inkscape:pageshadow="2"
     inkscape:window-width="1280"
     inkscape:window-height="748"
     id="namedview8"
     showgrid="true"
     inkscape:zoom="33.25"
     inkscape:cx="9.6202737"
     inkscape:cy="8"
     inkscape:window-x="0"
     inkscape:window-y="0"
     inkscape:window-maximized="1"
     inkscape:current-layer="svg7384">
    <inkscape:grid
       type="xygrid"
       id="grid2989"
       empspacing="5"
       visible="true"
       enabled="true"
       snapvisiblegridlinesonly="true" />
  </sodipodi:namedview>
  <metadata
     id="metadata90">
    <rdf:RDF>
      <cc:Work
         rdf:about="">
        <dc:format>image/svg+xml</dc:format>
        <dc:type
           rdf:resource="http://purl.org/dc/dcmitype/StillImage" />
        <dc:title>Gnome Symbolic Icon Theme</dc:title>
      </cc:Work>
    </rdf:RDF>
  </metadata>
  <title
     id="title9167">Gnome Symbolic Icon Theme</title>
  <path
     inkscape:connector-curvature="0"
     d="M 8.9220072,1.7658041 C 8.1603896,0.58300304 6.992315,0.03849693 5.4807147,0.33357537 4.8560528,0.48780562 3.9309154,0.53890627 3.7286752,1.2489373 c -0.1880624,0.919901 0.2126097,1.8238907 0.6470971,2.599744 0.370634,0.5471139 0.5191811,0.7848044 1.1417153,1.1073872 0,0 1.1303049,-0.458503 1.8494484,-0.421895 1.5974869,1.7689369 2.2401148,3.8098481 2.1403994,6.1088115 -0.539142,0.477436 -1.7083236,0.824673 -1.7083236,0.824673 -0.2850605,0.640584 -0.2527713,0.91901 -0.2008804,1.577805 0.1447543,0.877332 0.3959153,1.833708 1.1170056,2.435097 0.6010942,0.42856 1.355869,-0.109005 1.940207,-0.378323 1.365217,-0.712862 1.937984,-1.867395 1.794831,-3.266858 C 11.904115,8.2427222 10.86609,4.8215933 8.9220442,1.7659117 z"
     style="fill:#b3b3b3;enable-background:new"
     id="path44097" />
</svg>
