<?xml version="1.0" encoding="UTF-8" standalone="no"?>
<!-- Created with Inkscape (http://www.inkscape.org/) -->

<svg
   xmlns:dc="http://purl.org/dc/elements/1.1/"
   xmlns:cc="http://creativecommons.org/ns#"
   xmlns:rdf="http://www.w3.org/1999/02/22-rdf-syntax-ns#"
   xmlns:svg="http://www.w3.org/2000/svg"
   xmlns="http://www.w3.org/2000/svg"
   xmlns:sodipodi="http://sodipodi.sourceforge.net/DTD/sodipodi-0.dtd"
   xmlns:inkscape="http://www.inkscape.org/namespaces/inkscape"
   width="16px"
   height="16px"
   id="svg2985"
   version="1.1"
   inkscape:version="0.48.4 r9939"
   sodipodi:docname="document-open-recent-symbolic.svg">
  <defs
     id="defs2987" />
  <sodipodi:namedview
     id="base"
     pagecolor="#ffffff"
     bordercolor="#666666"
     borderopacity="1.0"
     inkscape:pageopacity="0.0"
     inkscape:pageshadow="2"
     inkscape:zoom="22.197802"
     inkscape:cx="7.5850067"
     inkscape:cy="8"
     inkscape:current-layer="layer1"
     showgrid="true"
     inkscape:grid-bbox="true"
     inkscape:document-units="px"
     inkscape:window-width="1280"
     inkscape:window-height="748"
     inkscape:window-x="0"
     inkscape:window-y="0"
     inkscape:window-maximized="1">
    <inkscape:grid
       type="xygrid"
       id="grid2993"
       empspacing="5"
       visible="true"
       enabled="true"
       snapvisiblegridlinesonly="true"
       spacingx="1.3877788e-16px"
       spacingy="1.3877788e-16px" />
  </sodipodi:namedview>
  <metadata
     id="metadata2990">
    <rdf:RDF>
      <cc:Work
         rdf:about="">
        <dc:format>image/svg+xml</dc:format>
        <dc:type
           rdf:resource="http://purl.org/dc/dcmitype/StillImage" />
        <dc:title />
      </cc:Work>
    </rdf:RDF>
  </metadata>
  <g
     id="layer1"
     inkscape:label="Layer 1"
     inkscape:groupmode="layer">
    <path
       style="fill:none;stroke:#b3b3b3;stroke-width:1px;stroke-linecap:butt;stroke-linejoin:miter;stroke-opacity:1"
       d="m 12.5,3.8906248 0,-3.12500001 -11.71874999,0 0,14.45312521 11.71874999,0"
       id="path3813"
       inkscape:connector-curvature="0" />
    <path
       style="fill:#b3b3b3;fill-rule:evenodd;stroke:none"
       d="m 10.674751,4.5669731 c -2.1680307,0 -3.9116644,1.6078721 -4.4247509,3.6205268 l -1.171875,0 2.1696696,2.0339511 1.7365804,-2.0339511 -1.171875,0 C 8.2767265,6.9734727 9.3028908,5.9948714 10.674751,5.9948714 c 1.774364,0 3.22705,1.4526856 3.22705,3.22705 0,1.7743656 -1.452686,3.1984926 -3.22705,3.1984926 -0.243976,0 -0.485078,-0.03462 -0.7139485,-0.08567 l 0,1.456456 c 0.2306625,0.03498 0.4736695,0.05711 0.7139485,0.05711 2.562971,0 4.654948,-2.063419 4.654948,-4.6263908 0,-2.5629708 -2.091977,-4.6549484 -4.654948,-4.6549461 z"
       id="path3834"
       inkscape:connector-curvature="0"
       sodipodi:nodetypes="scccccsssccsss" />
  </g>
</svg>
