<?xml version="1.0" encoding="UTF-8" standalone="no"?>
<!-- Created with Inkscape (http://www.inkscape.org/) -->

<svg
   xmlns:dc="http://purl.org/dc/elements/1.1/"
   xmlns:cc="http://creativecommons.org/ns#"
   xmlns:rdf="http://www.w3.org/1999/02/22-rdf-syntax-ns#"
   xmlns:svg="http://www.w3.org/2000/svg"
   xmlns="http://www.w3.org/2000/svg"
   xmlns:sodipodi="http://sodipodi.sourceforge.net/DTD/sodipodi-0.dtd"
   xmlns:inkscape="http://www.inkscape.org/namespaces/inkscape"
   id="svg7384"
   height="16"
   width="16"
   version="1.1"
   inkscape:version="0.48.4 r9939"
   sodipodi:docname="edit-paste-symbolic.svg">
  <defs
     id="defs11" />
  <sodipodi:namedview
     pagecolor="#ffffff"
     bordercolor="#666666"
     borderopacity="1"
     objecttolerance="10"
     gridtolerance="10"
     guidetolerance="10"
     inkscape:pageopacity="0"
     inkscape:pageshadow="2"
     inkscape:window-width="1280"
     inkscape:window-height="748"
     id="namedview9"
     showgrid="true"
     showguides="true"
     inkscape:guide-bbox="true"
     inkscape:zoom="29.986388"
     inkscape:cx="2.7959705"
     inkscape:cy="8.2578307"
     inkscape:window-x="0"
     inkscape:window-y="0"
     inkscape:window-maximized="1"
     inkscape:current-layer="svg7384">
    <inkscape:grid
       type="xygrid"
       id="grid2988" />
    <sodipodi:guide
       orientation="0,1"
       position="-4,13"
       id="guide3794" />
    <sodipodi:guide
       orientation="1,0"
       position="-4,13"
       id="guide3796" />
  </sodipodi:namedview>
  <metadata
     id="metadata90">
    <rdf:RDF>
      <cc:Work
         rdf:about="">
        <dc:format>image/svg+xml</dc:format>
        <dc:type
           rdf:resource="http://purl.org/dc/dcmitype/StillImage" />
        <dc:title>Gnome Symbolic Icon Theme</dc:title>
      </cc:Work>
    </rdf:RDF>
  </metadata>
  <title
     id="title9167">Gnome Symbolic Icon Theme</title>
  <path
     style="fill:#b3b3b3;fill-rule:evenodd;stroke:none;fill-opacity:1"
     d="M 2 1.375 L 2 16 L 14 16 L 14 1.375 L 2 1.375 z M 2.78125 2.3125 L 13.21875 2.3125 L 13.21875 15.0625 L 2.78125 15.0625 L 2.78125 2.3125 z "
     id="rect4000" />
  <path
     style="fill:#cccccc;fill-rule:evenodd;stroke:none"
     d="M 8 0.09375 C 7.392211 0.09375 6.90625 0.47868333 6.90625 0.9375 C 6.90625 0.96170363 6.9348132 0.97632171 6.9375 1 L 5.5 1 L 5.5 2 L 6 2 L 5 3 L 11 3 L 10 2 L 10.5 2 L 10.5 1 L 9.0625 1 C 9.0651868 0.97632171 9.09375 0.96170363 9.09375 0.9375 C 9.09375 0.47868333 8.607789 0.09375 8 0.09375 z M 8 0.46875 C 8.3225631 0.46875 8.59375 0.66531379 8.59375 0.90625 C 8.59375 1.1471862 8.3225631 1.34375 8 1.34375 C 7.6774369 1.34375 7.40625 1.1471862 7.40625 0.90625 C 7.40625 0.66531379 7.6774369 0.46875 8 0.46875 z "
     id="rect4002" />
  <rect
     style="fill:#cccccc;fill-rule:evenodd;stroke:none"
     id="rect4015"
     width="9.5399303"
     height="11"
     x="4.9666514"
     y="3.5998185" />
</svg>
