<?xml version="1.0" encoding="UTF-8" standalone="no"?>
<!-- Created with Inkscape (http://www.inkscape.org/) -->

<svg
   xmlns:dc="http://purl.org/dc/elements/1.1/"
   xmlns:cc="http://creativecommons.org/ns#"
   xmlns:rdf="http://www.w3.org/1999/02/22-rdf-syntax-ns#"
   xmlns:svg="http://www.w3.org/2000/svg"
   xmlns="http://www.w3.org/2000/svg"
   xmlns:sodipodi="http://sodipodi.sourceforge.net/DTD/sodipodi-0.dtd"
   xmlns:inkscape="http://www.inkscape.org/namespaces/inkscape"
   id="svg7384"
   height="16"
   width="16"
   version="1.1"
   inkscape:version="0.48.4 r9939"
   sodipodi:docname="image-crop-symbolic.svg">
  <defs
     id="defs11" />
  <sodipodi:namedview
     pagecolor="#ffffff"
     bordercolor="#666666"
     borderopacity="1"
     objecttolerance="10"
     gridtolerance="10"
     guidetolerance="10"
     inkscape:pageopacity="0"
     inkscape:pageshadow="2"
     inkscape:window-width="1280"
     inkscape:window-height="748"
     id="namedview9"
     showgrid="true"
     showguides="true"
     inkscape:guide-bbox="true"
     inkscape:zoom="16.325706"
     inkscape:cx="13.732708"
     inkscape:cy="9.4775027"
     inkscape:window-x="0"
     inkscape:window-y="0"
     inkscape:window-maximized="1"
     inkscape:current-layer="svg7384"
     inkscape:snap-global="true">
    <inkscape:grid
       type="xygrid"
       id="grid2988"
       empspacing="5"
       visible="true"
       enabled="true"
       snapvisiblegridlinesonly="true"
       spacingx="1.3877788e-16px"
       spacingy="1.3877788e-16px" />
    <sodipodi:guide
       orientation="0,1"
       position="-4,13"
       id="guide3794" />
    <sodipodi:guide
       orientation="1,0"
       position="-4,13"
       id="guide3796" />
  </sodipodi:namedview>
  <metadata
     id="metadata90">
    <rdf:RDF>
      <cc:Work
         rdf:about="">
        <dc:format>image/svg+xml</dc:format>
        <dc:type
           rdf:resource="http://purl.org/dc/dcmitype/StillImage" />
        <dc:title>Gnome Symbolic Icon Theme</dc:title>
      </cc:Work>
    </rdf:RDF>
  </metadata>
  <title
     id="title9167">Gnome Symbolic Icon Theme</title>
  <rect
     style="fill:none;stroke:none"
     id="rect4124"
     width="16"
     height="16"
     x="0"
     y="-2.3841858e-07" />
  <path
     style="fill:#cccccc;fill-rule:evenodd;stroke:none"
     d="m 7.0582928,0.94928343 c -0.7985294,0 -1.4606072,0.62364077 -1.4606072,1.42217007 0,0.1740385 0.059282,0.345476 0.1153111,0.4996814 l -3.2671475,0 c -0.9182486,0 -1.65279225,0.7345437 -1.65279225,1.6527923 l 0,5.3427471 c 0,0.9182487 0.73454365,1.6527927 1.65279225,1.6527927 l 11.1083018,0 c 0.918249,0 1.652792,-0.734544 1.652792,-1.6527927 l 0,-5.3427471 c 0,-0.9182486 -0.734543,-1.6527923 -1.652792,-1.6527923 l -3.267148,0 c 0.05603,-0.1542054 0.115311,-0.3256429 0.115311,-0.4996814 0,-0.7985293 -0.6236405,-1.42217007 -1.4221697,-1.42217007 l -1.9218515,0 z M 7.9807815,4.293305 c 1.5921139,0 2.9212145,1.2906633 2.9212145,2.8827772 0,1.5921139 -1.3291006,2.8827768 -2.9212145,2.8827768 -1.5921139,0 -2.8443402,-1.2906629 -2.8443402,-2.8827768 0,-1.5921139 1.2522263,-2.8827772 2.8443402,-2.8827772 z"
     id="rect4137"
     inkscape:connector-curvature="0" />
  <path
     style="fill:#cccccc;stroke:none"
     d="m 4.0937502,13.318811 7.8124998,0 -3.9062498,2.297538 z"
     id="path4147"
     inkscape:connector-curvature="0" />
</svg>
