<?xml version="1.0" encoding="UTF-8" standalone="no"?>
<!-- Created with Inkscape (http://www.inkscape.org/) -->

<svg
   xmlns:dc="http://purl.org/dc/elements/1.1/"
   xmlns:cc="http://creativecommons.org/ns#"
   xmlns:rdf="http://www.w3.org/1999/02/22-rdf-syntax-ns#"
   xmlns:svg="http://www.w3.org/2000/svg"
   xmlns="http://www.w3.org/2000/svg"
   xmlns:sodipodi="http://sodipodi.sourceforge.net/DTD/sodipodi-0.dtd"
   xmlns:inkscape="http://www.inkscape.org/namespaces/inkscape"
   id="svg7384"
   height="16"
   width="16"
   version="1.1"
   inkscape:version="0.48.4 r9939"
   sodipodi:docname="insert-object-symbolic.svg">
  <defs
     id="defs11" />
  <sodipodi:namedview
     pagecolor="#ffffff"
     bordercolor="#666666"
     borderopacity="1"
     objecttolerance="10"
     gridtolerance="10"
     guidetolerance="10"
     inkscape:pageopacity="0"
     inkscape:pageshadow="2"
     inkscape:window-width="1280"
     inkscape:window-height="748"
     id="namedview9"
     showgrid="true"
     showguides="true"
     inkscape:guide-bbox="true"
     inkscape:zoom="16.325706"
     inkscape:cx="13.732708"
     inkscape:cy="9.4775027"
     inkscape:window-x="0"
     inkscape:window-y="0"
     inkscape:window-maximized="1"
     inkscape:current-layer="svg7384"
     inkscape:snap-global="true">
    <inkscape:grid
       type="xygrid"
       id="grid2988"
       empspacing="5"
       visible="true"
       enabled="true"
       snapvisiblegridlinesonly="true"
       spacingx="1.3877788e-16px"
       spacingy="1.3877788e-16px" />
    <sodipodi:guide
       orientation="0,1"
       position="-4,13"
       id="guide3794" />
    <sodipodi:guide
       orientation="1,0"
       position="-4,13"
       id="guide3796" />
  </sodipodi:namedview>
  <metadata
     id="metadata90">
    <rdf:RDF>
      <cc:Work
         rdf:about="">
        <dc:format>image/svg+xml</dc:format>
        <dc:type
           rdf:resource="http://purl.org/dc/dcmitype/StillImage" />
        <dc:title>Gnome Symbolic Icon Theme</dc:title>
      </cc:Work>
    </rdf:RDF>
  </metadata>
  <title
     id="title9167">Gnome Symbolic Icon Theme</title>
  <rect
     style="fill:none;stroke:none"
     id="rect4124"
     width="16"
     height="16"
     x="0"
     y="-2.3841858e-07" />
  <path
     style="fill:#cccccc;stroke:none"
     d="m 4.0937501,13.318811 7.8124999,0 -3.9062501,2.297538 z"
     id="path4147"
     inkscape:connector-curvature="0" />
  <g
     id="g4221"
     style="fill:#cccccc"
     transform="matrix(0.60388243,0,0,0.71315624,2.2593755,7.2442988)">
    <path
       id="rect4195"
       d="m 6.1875,-5.28125 c -1.5939987,0 -2.8680553,1.244453 -2.96875,2.8125 l 2.5,0 c 0.2284887,-0.193362 0.5194142,-0.3125 0.84375,-0.3125 l 5.625,0 c 0.324336,0 0.615261,0.119138 0.84375,0.3125 l 2.5,0 c -0.100695,-1.568047 -1.374751,-2.8125 -2.96875,-2.8125 l -6.375,0 z M 3.21875,0.875 C 3.3194447,2.443047 4.5935013,3.6875 6.1875,3.6875 l 6.375,0 c 1.593999,0 2.868055,-1.244453 2.96875,-2.8125 l -2.5,0 C 12.802761,1.068362 12.511836,1.1875 12.1875,1.1875 l -5.625,0 C 6.2381642,1.1875 5.9472387,1.068362 5.71875,0.875 l -2.5,0 z"
       style="fill:#cccccc;fill-rule:evenodd;stroke:none"
       inkscape:connector-curvature="0" />
    <rect
       style="fill:#cccccc;fill-rule:evenodd;stroke:none"
       id="rect4212"
       width="11.363843"
       height="2.3563631"
       x="-3.2063529"
       y="-1.9750565"
       ry="1.1781815" />
    <rect
       style="fill:#cccccc;fill-rule:evenodd;stroke:none"
       id="rect4214"
       width="11.363843"
       height="2.3563631"
       x="10.854901"
       y="-1.9750565"
       ry="1.1781815" />
  </g>
</svg>
