<?xml version="1.0" encoding="UTF-8" standalone="no"?>
<!-- Created with Inkscape (http://www.inkscape.org/) -->

<svg
   xmlns:dc="http://purl.org/dc/elements/1.1/"
   xmlns:cc="http://creativecommons.org/ns#"
   xmlns:rdf="http://www.w3.org/1999/02/22-rdf-syntax-ns#"
   xmlns:svg="http://www.w3.org/2000/svg"
   xmlns="http://www.w3.org/2000/svg"
   xmlns:sodipodi="http://sodipodi.sourceforge.net/DTD/sodipodi-0.dtd"
   xmlns:inkscape="http://www.inkscape.org/namespaces/inkscape"
   version="1.1"
   width="16"
   height="16"
   id="svg7384"
   inkscape:version="0.48.4 r9939"
   sodipodi:docname="process-stop-symbolic.svg">
  <sodipodi:namedview
     pagecolor="#ffffff"
     bordercolor="#666666"
     borderopacity="1"
     objecttolerance="10"
     gridtolerance="10"
     guidetolerance="10"
     inkscape:pageopacity="0"
     inkscape:pageshadow="2"
     inkscape:window-width="1280"
     inkscape:window-height="748"
     id="namedview7"
     showgrid="true"
     inkscape:zoom="21.282821"
     inkscape:cx="10.147352"
     inkscape:cy="6.6807739"
     inkscape:window-x="0"
     inkscape:window-y="0"
     inkscape:window-maximized="1"
     inkscape:current-layer="svg7384"
     inkscape:snap-global="true">
    <inkscape:grid
       type="xygrid"
       id="grid3004" />
  </sodipodi:namedview>
  <title
     id="title9167">Gnome Symbolic Icon Theme</title>
  <defs
     id="defs11" />
  <metadata
     id="metadata90">
    <rdf:RDF>
      <cc:Work
         rdf:about="">
        <dc:format>image/svg+xml</dc:format>
        <dc:type
           rdf:resource="http://purl.org/dc/dcmitype/StillImage" />
        <dc:title>Gnome Symbolic Icon Theme</dc:title>
      </cc:Work>
    </rdf:RDF>
  </metadata>
  <rect
     style="fill:none;fill-rule:evenodd;stroke:none"
     id="rect3002"
     width="16"
     height="16"
     x="0"
     y="1.007691e-06" />
  <path
     style="fill:#cccccc;fill-rule:evenodd;stroke:none"
     d="m 2.6966989,2.6966999 c -0.5876057,0.5876058 -0.5876057,1.5337146 0,2.1213204 L 5.8786795,8.0000008 2.6966989,11.181982 c -0.5876057,0.587605 -0.5876057,1.533714 0,2.12132 0.5876058,0.587606 1.5337146,0.587606 2.1213204,0 l 3.1819805,-3.181981 3.1819812,3.181981 c 0.587605,0.587606 1.533714,0.587606 2.12132,0 0.587606,-0.587606 0.587606,-1.533715 0,-2.12132 L 10.12132,8.0000008 13.303301,4.8180203 c 0.587606,-0.5876058 0.587606,-1.5337146 0,-2.1213204 -0.587606,-0.5876057 -1.533715,-0.5876057 -2.12132,0 L 7.9999998,5.8786805 4.8180193,2.6966999 c -0.5876058,-0.5876057 -1.5337146,-0.5876057 -2.1213204,0 z"
     id="rect4266"
     inkscape:connector-curvature="0" />
</svg>
