<?xml version="1.0" encoding="UTF-8" standalone="no"?>
<!-- Created with Inkscape (http://www.inkscape.org/) -->

<svg
   xmlns:dc="http://purl.org/dc/elements/1.1/"
   xmlns:cc="http://creativecommons.org/ns#"
   xmlns:rdf="http://www.w3.org/1999/02/22-rdf-syntax-ns#"
   xmlns:svg="http://www.w3.org/2000/svg"
   xmlns="http://www.w3.org/2000/svg"
   xmlns:sodipodi="http://sodipodi.sourceforge.net/DTD/sodipodi-0.dtd"
   xmlns:inkscape="http://www.inkscape.org/namespaces/inkscape"
   version="1.1"
   width="16"
   height="16"
   id="svg7384"
   inkscape:version="0.48.4 r9939"
   sodipodi:docname="process-stop-symbolic.svg">
  <sodipodi:namedview
     pagecolor="#ffffff"
     bordercolor="#666666"
     borderopacity="1"
     objecttolerance="10"
     gridtolerance="10"
     guidetolerance="10"
     inkscape:pageopacity="0"
     inkscape:pageshadow="2"
     inkscape:window-width="1280"
     inkscape:window-height="748"
     id="namedview7"
     showgrid="true"
     inkscape:zoom="21.282821"
     inkscape:cx="10.147352"
     inkscape:cy="6.6807739"
     inkscape:window-x="0"
     inkscape:window-y="0"
     inkscape:window-maximized="1"
     inkscape:current-layer="svg7384"
     inkscape:snap-global="true"
     showguides="true"
     inkscape:guide-bbox="true">
    <inkscape:grid
       type="xygrid"
       id="grid3004" />
    <sodipodi:guide
       orientation="0,1"
       position="8.5045117,8"
       id="guide4271" />
    <sodipodi:guide
       orientation="1,0"
       position="8.5045117,8"
       id="guide4273" />
  </sodipodi:namedview>
  <title
     id="title9167">Gnome Symbolic Icon Theme</title>
  <defs
     id="defs11" />
  <metadata
     id="metadata90">
    <rdf:RDF>
      <cc:Work
         rdf:about="">
        <dc:format>image/svg+xml</dc:format>
        <dc:type
           rdf:resource="http://purl.org/dc/dcmitype/StillImage" />
        <dc:title>Gnome Symbolic Icon Theme</dc:title>
      </cc:Work>
    </rdf:RDF>
  </metadata>
  <rect
     style="fill:none;fill-rule:evenodd;stroke:none"
     id="rect3002"
     width="16"
     height="16"
     x="0"
     y="1.007691e-06" />
  <g
     id="g4302"
     transform="matrix(1.4315661,0,0,1.4315661,-3.4956718,-5.3359175)">
    <path
       inkscape:connector-curvature="0"
       id="path4275"
       d="M 8.2960134,3.9202678 7.9772844,5.1951841 C 7.5762688,5.2695613 7.2041899,5.4182907 6.8808563,5.6414049 L 5.75893,4.9656992 5.4656992,5.25893 6.1414049,6.3808563 C 5.9182907,6.7041899 5.7695613,7.0762688 5.6951841,7.4772844 l -1.2749163,0.318729 0,0.4079733 1.2749163,0.318729 c 0.074377,0.4010157 0.2231066,0.7730946 0.4462208,1.0964277 L 5.4656992,10.74107 5.75893,11.034301 6.8808563,10.358595 c 0.3233336,0.223115 0.6954125,0.371844 1.0964281,0.446221 l 0.318729,1.274916 0.4079733,0 0.318729,-1.274916 c 0.4007134,-0.07432 0.7732653,-0.223373 1.0964273,-0.446221 l 1.121927,0.675706 0.293231,-0.293231 -0.675706,-1.1219266 c 0.223145,-0.3233771 0.384606,-0.6953496 0.45897,-1.0964277 l 1.262167,-0.318729 0,-0.4079733 -1.262167,-0.318729 C 11.243201,7.0762061 11.08174,6.7042339 10.858595,6.3808563 L 11.534301,5.25893 11.24107,4.9656992 10.119143,5.6414049 C 9.795981,5.4185566 9.4234291,5.2695053 9.0227157,5.1951841 l -0.318729,-1.2749163 -0.4079733,0 z M 8.5,6.5720938 C 9.2875944,6.5720938 9.9279064,7.2124057 9.9279064,8 9.9279064,8.7875944 9.2875944,9.4279064 8.5,9.4279064 7.7124057,9.4279064 7.0720938,8.7875944 7.0720938,8 7.0720938,7.2124057 7.7124057,6.5720938 8.5,6.5720938 z"
       style="fill:#cccccc;fill-rule:evenodd;stroke:none" />
    <path
       style="fill:#cccccc;fill-rule:evenodd;stroke:none"
       d="m 4.9106538,10.216426 -0.1755677,0.702271 c -0.2208944,0.04097 -0.4258493,0.122895 -0.6039534,0.245795 L 3.5131339,10.792288 3.3516115,10.953811 3.7238153,11.57181 C 3.6009157,11.749914 3.51899,11.954869 3.4780203,12.175763 l -0.7022714,0.175568 0,0.224727 0.7022714,0.175567 c 0.04097,0.220895 0.1228954,0.42585 0.245795,0.603954 L 3.3516115,13.973577 3.5131339,14.1351 4.1311327,13.762896 c 0.1781041,0.1229 0.383059,0.204826 0.6039534,0.245795 l 0.1755677,0.702271 0.2247269,0 0.1755678,-0.702271 c 0.2207279,-0.04094 0.4259433,-0.123042 0.603953,-0.245795 L 6.5329003,14.1351 6.6944233,13.973577 6.3222192,13.355579 C 6.4451357,13.17745 6.5340743,12.972554 6.5750373,12.751625 l 0.695248,-0.175567 0,-0.224727 -0.695248,-0.175568 C 6.5340743,11.954834 6.4451357,11.749938 6.3222192,11.57181 L 6.6944233,10.953811 6.5329003,10.792288 5.9149015,11.164492 C 5.7368918,11.041739 5.5316764,10.959636 5.3109485,10.918697 l -0.1755678,-0.702271 -0.2247269,0 z m 0.1123635,1.460724 c 0.4338363,0 0.7865439,0.352708 0.7865439,0.786544 0,0.433836 -0.3527076,0.786544 -0.7865439,0.786544 -0.4338363,0 -0.7865439,-0.352708 -0.7865439,-0.786544 0,-0.433836 0.3527076,-0.786544 0.7865439,-0.786544 z"
       id="path4298"
       inkscape:connector-curvature="0" />
    <path
       inkscape:connector-curvature="0"
       id="path4300"
       d="m 11.664927,10.404371 -0.120505,0.482023 c -0.151618,0.02812 -0.292294,0.08435 -0.414541,0.168708 l -0.42418,-0.255472 -0.110866,0.110865 0.255473,0.424181 c -0.08436,0.122246 -0.140587,0.262923 -0.168708,0.41454 l -0.482024,0.120506 0,0.154247 0.482024,0.120505 c 0.02812,0.151618 0.08435,0.292294 0.168708,0.414541 l -0.255473,0.42418 0.110866,0.110866 0.42418,-0.255473 c 0.122247,0.08436 0.262923,0.140588 0.414541,0.168708 l 0.120505,0.482023 0.154247,0 0.120506,-0.482023 c 0.151503,-0.0281 0.292358,-0.08445 0.41454,-0.168708 l 0.424181,0.255473 0.110865,-0.110866 -0.255472,-0.42418 c 0.08437,-0.122264 0.145413,-0.2629 0.173529,-0.414541 l 0.477202,-0.120505 0,-0.154247 -0.477202,-0.120506 c -0.02811,-0.151641 -0.08916,-0.292277 -0.173529,-0.41454 l 0.255472,-0.424181 -0.110865,-0.110865 -0.424181,0.255472 c -0.122182,-0.08425 -0.263037,-0.140609 -0.41454,-0.168708 l -0.120506,-0.482023 -0.154247,0 z m 0.07712,1.002608 c 0.297775,0 0.539866,0.242091 0.539866,0.539866 0,0.297775 -0.242091,0.539866 -0.539866,0.539866 -0.297775,0 -0.539866,-0.242091 -0.539866,-0.539866 0,-0.297775 0.242091,-0.539866 0.539866,-0.539866 z"
       style="fill:#cccccc;fill-rule:evenodd;stroke:none" />
  </g>
</svg>
