<?xml version="1.0" encoding="UTF-8" standalone="no"?>
<!-- Generator: Adobe Illustrator 16.0.0, SVG Export Plug-In . SVG Version: 6.00 Build 0)  -->

<svg
   xmlns:dc="http://purl.org/dc/elements/1.1/"
   xmlns:cc="http://creativecommons.org/ns#"
   xmlns:rdf="http://www.w3.org/1999/02/22-rdf-syntax-ns#"
   xmlns:svg="http://www.w3.org/2000/svg"
   xmlns="http://www.w3.org/2000/svg"
   xmlns:sodipodi="http://sodipodi.sourceforge.net/DTD/sodipodi-0.dtd"
   xmlns:inkscape="http://www.inkscape.org/namespaces/inkscape"
   version="1.1"
   id="Capa_1"
   x="0px"
   y="0px"
   width="16"
   height="15.319149"
   viewBox="0 0 16 15.319149"
   xml:space="preserve"
   inkscape:version="0.48.4 r9939"
   sodipodi:docname="bust.svg"><metadata
     id="metadata41"><rdf:RDF><cc:Work
         rdf:about=""><dc:format>image/svg+xml</dc:format><dc:type
           rdf:resource="http://purl.org/dc/dcmitype/StillImage" /><dc:title></dc:title></cc:Work></rdf:RDF></metadata><defs
     id="defs39" /><sodipodi:namedview
     pagecolor="#ffffff"
     bordercolor="#666666"
     borderopacity="1"
     objecttolerance="10"
     gridtolerance="10"
     guidetolerance="10"
     inkscape:pageopacity="0"
     inkscape:pageshadow="2"
     inkscape:window-width="1280"
     inkscape:window-height="748"
     id="namedview37"
     showgrid="false"
     fit-margin-top="0"
     fit-margin-left="0"
     fit-margin-right="0"
     fit-margin-bottom="0"
     inkscape:zoom="5.9111111"
     inkscape:cx="47"
     inkscape:cy="45"
     inkscape:window-x="0"
     inkscape:window-y="0"
     inkscape:window-maximized="1"
     inkscape:current-layer="Capa_1" /><g
     id="g3"
     transform="scale(0.17021277,0.17021277)"
     style="fill:#cccccc"><path
       d="M 73.602,67.24 C 61.276,62.747 57.336,58.958 57.336,50.845 c 0,-4.871 3.764,-3.28 5.416,-12.2 0.686,-3.7 4.01,-0.06 4.646,-8.507 0,-3.367 -1.814,-4.203 -1.814,-4.203 0,0 0.922,-4.982 1.283,-8.816 C 67.314,12.342 64.107,0 47,0 29.893,0 26.684,12.342 27.133,17.119 c 0.361,3.834 1.283,8.816 1.283,8.816 0,0 -1.814,0.836 -1.814,4.203 0.635,8.447 3.959,4.807 4.645,8.507 1.654,8.919 5.416,7.329 5.416,12.2 0,8.113 -3.938,11.902 -16.264,16.395 C 8.033,71.746 0,76.339 0,79.473 0,82.604 0,90 0,90 h 47 47 c 0,0 0,-7.396 0,-10.527 0,-3.134 -8.033,-7.727 -20.398,-12.233 z"
       id="path5"
       inkscape:connector-curvature="0"
       style="fill:#cccccc" /></g><g
     id="g7"
     transform="translate(0,-74.680851)" /><g
     id="g9"
     transform="translate(0,-74.680851)" /><g
     id="g11"
     transform="translate(0,-74.680851)" /><g
     id="g13"
     transform="translate(0,-74.680851)" /><g
     id="g15"
     transform="translate(0,-74.680851)" /><g
     id="g17"
     transform="translate(0,-74.680851)" /><g
     id="g19"
     transform="translate(0,-74.680851)" /><g
     id="g21"
     transform="translate(0,-74.680851)" /><g
     id="g23"
     transform="translate(0,-74.680851)" /><g
     id="g25"
     transform="translate(0,-74.680851)" /><g
     id="g27"
     transform="translate(0,-74.680851)" /><g
     id="g29"
     transform="translate(0,-74.680851)" /><g
     id="g31"
     transform="translate(0,-74.680851)" /><g
     id="g33"
     transform="translate(0,-74.680851)" /><g
     id="g35"
     transform="translate(0,-74.680851)" /></svg>