<?xml version="1.0" encoding="UTF-8" standalone="no"?>
<!-- Created with Inkscape (http://www.inkscape.org/) -->

<svg
   xmlns:dc="http://purl.org/dc/elements/1.1/"
   xmlns:cc="http://creativecommons.org/ns#"
   xmlns:rdf="http://www.w3.org/1999/02/22-rdf-syntax-ns#"
   xmlns:svg="http://www.w3.org/2000/svg"
   xmlns="http://www.w3.org/2000/svg"
   xmlns:sodipodi="http://sodipodi.sourceforge.net/DTD/sodipodi-0.dtd"
   xmlns:inkscape="http://www.inkscape.org/namespaces/inkscape"
   id="svg7384"
   height="16"
   width="16"
   version="1.1"
   inkscape:version="0.48.4 r9939"
   sodipodi:docname="changes-allow-symbolic.svg">
  <defs
     id="defs84310" />
  <sodipodi:namedview
     pagecolor="#ffffff"
     bordercolor="#666666"
     borderopacity="1"
     objecttolerance="10"
     gridtolerance="10"
     guidetolerance="10"
     inkscape:pageopacity="0"
     inkscape:pageshadow="2"
     inkscape:window-width="1280"
     inkscape:window-height="748"
     id="namedview84308"
     showgrid="true"
     inkscape:zoom="23.5113"
     inkscape:cx="0.4112819"
     inkscape:cy="6.6819395"
     inkscape:window-x="0"
     inkscape:window-y="0"
     inkscape:window-maximized="1"
     inkscape:current-layer="svg7384"
     showguides="true"
     inkscape:guide-bbox="true">
    <inkscape:grid
       type="xygrid"
       id="grid2999"
       empspacing="5"
       visible="true"
       enabled="true"
       snapvisiblegridlinesonly="true"
       spacingx="1.3877788e-16px"
       spacingy="1.3877788e-16px" />
    <sodipodi:guide
       orientation="0,1"
       position="8.2031251,16.796875"
       id="guide4631" />
  </sodipodi:namedview>
  <metadata
     id="metadata90">
    <rdf:RDF>
      <cc:Work
         rdf:about="">
        <dc:format>image/svg+xml</dc:format>
        <dc:type
           rdf:resource="http://purl.org/dc/dcmitype/StillImage" />
        <dc:title>Gnome Symbolic Icon Theme</dc:title>
      </cc:Work>
    </rdf:RDF>
  </metadata>
  <title
     id="title9167">Gnome Symbolic Icon Theme</title>
  <g
     id="g4633">
    <path
       id="rect4528"
       d="M 0 7.03125 L 0 9.28125 L 2.6875 9.28125 L 2.6875 9.6875 L 0 9.6875 L 0 11.28125 L 2.6875 11.28125 L 2.6875 11.6875 L 0 11.6875 L 0 13.28125 L 2.6875 13.28125 L 2.6875 13.6875 L 0 13.6875 L 0 14.125 C 0 15.153306 0.81544377 15.96875 1.84375 15.96875 L 8.84375 15.96875 C 9.8720569 15.96875 10.6875 15.153306 10.6875 14.125 L 10.6875 13.6875 L 8.15625 13.6875 L 8.15625 13.28125 L 10.6875 13.28125 L 10.6875 11.6875 L 8.15625 11.6875 L 8.15625 11.28125 L 10.6875 11.28125 L 10.6875 9.6875 L 8.15625 9.6875 L 8.15625 9.28125 L 10.6875 9.28125 L 10.6875 7.03125 L 0 7.03125 z M 5.375 10.15625 C 6.0222087 10.15625 6.5 10.696541 6.5 11.34375 C 6.5 11.773148 6.2819589 12.139671 5.9375 12.34375 L 5.9375 14.625 C 5.9375 14.949609 5.6996094 15.21875 5.375 15.21875 C 5.0503906 15.21875 4.75 14.949609 4.75 14.625 L 4.75 12.34375 C 4.4055411 12.139671 4.1875 11.773148 4.1875 11.34375 C 4.1875 10.696541 4.7277913 10.15625 5.375 10.15625 z "
       style="fill:#cccccc;fill-rule:evenodd;stroke:none" />
    <path
       inkscape:connector-curvature="0"
       id="rect4622"
       d="m 5.34375,0.0347381 c -2.4886719,0 -4.5,2.011328 -4.5,4.4999999 l 0,2.53125 1.71875,0 0,-2.28125 c 0,-1.7144546 1.2371233,-3.09375 2.78125,-3.09375 1.5441267,0 2.78125,1.3792954 2.78125,3.09375 l 0,2.28125 1.71875,0 0,-2.53125 c 0,-2.4886719 -2.0113281,-4.4999999 -4.5,-4.4999999 z"
       style="fill:#cccccc;fill-rule:evenodd;stroke:none" />
  </g>
</svg>
