<?xml version="1.0" encoding="UTF-8" standalone="no"?>
<!-- Generator: Adobe Illustrator 16.0.0, SVG Export Plug-In . SVG Version: 6.00 Build 0)  -->

<svg
   xmlns:dc="http://purl.org/dc/elements/1.1/"
   xmlns:cc="http://creativecommons.org/ns#"
   xmlns:rdf="http://www.w3.org/1999/02/22-rdf-syntax-ns#"
   xmlns:svg="http://www.w3.org/2000/svg"
   xmlns="http://www.w3.org/2000/svg"
   xmlns:sodipodi="http://sodipodi.sourceforge.net/DTD/sodipodi-0.dtd"
   xmlns:inkscape="http://www.inkscape.org/namespaces/inkscape"
   version="1.1"
   id="Capa_1"
   x="0px"
   y="0px"
   width="16"
   height="16"
   viewBox="0 0 16 16.000001"
   xml:space="preserve"
   inkscape:version="0.48.4 r9939"
   sodipodi:docname="paper.svg"><metadata
     id="metadata39"><rdf:RDF><cc:Work
         rdf:about=""><dc:format>image/svg+xml</dc:format><dc:type
           rdf:resource="http://purl.org/dc/dcmitype/StillImage" /><dc:title></dc:title></cc:Work></rdf:RDF></metadata><defs
     id="defs37" /><sodipodi:namedview
     pagecolor="#ffffff"
     bordercolor="#666666"
     borderopacity="1"
     objecttolerance="10"
     gridtolerance="10"
     guidetolerance="10"
     inkscape:pageopacity="0"
     inkscape:pageshadow="2"
     inkscape:window-width="1280"
     inkscape:window-height="748"
     id="namedview35"
     showgrid="false"
     fit-margin-top="0"
     fit-margin-left="0"
     fit-margin-right="0"
     fit-margin-bottom="0"
     inkscape:zoom="19.010864"
     inkscape:cx="9.305105"
     inkscape:cy="11.888584"
     inkscape:window-x="0"
     inkscape:window-y="0"
     inkscape:window-maximized="1"
     inkscape:current-layer="Capa_1" /><path
     style="fill:#cccccc;fill-rule:evenodd"
     d="m 11.898301,6.587139 c 0,0 0.647066,-0.492024 0.154515,-0.984047 -0.492551,-0.492023 -0.97139,0.142914 -0.97139,0.142914 l -4.9513466,4.952401 c 0,0 -1.1596562,1.496637 -2.0413958,0.591694 C 3.2079988,10.384103 4.6798499,9.248178 4.6798499,9.248178 L 11.172131,2.756423 c 0,0 1.515094,-1.669082 2.939484,-0.245748 1.422279,1.423862 -0.251549,2.94212 -0.251549,2.94212 l -7.2949177,7.294919 c 0,0 -2.3340785,2.696372 -4.4946568,0.535266 C -0.09008685,11.121874 2.6326532,8.814164 2.6326532,8.814164 L 8.1709479,3.274287 c 0,0 0.6201708,-0.517864 0.15557,-0.984047 C 7.8598077,1.824585 7.3429986,2.44581 7.3429986,2.44581 L 0.98782919,8.80098 c 0,0 -2.39894329,2.63098 0.28002621,5.309422 2.6789694,2.680024 5.3115315,0.281081 5.3115315,0.281081 L 15.313987,5.655828 c 0,0 1.747658,-1.927487 -0.335926,-4.012126 C 12.894476,-0.44093693 10.966462,1.306721 10.966462,1.306721 L 3.4505826,8.821547 c 0,0 -1.9248501,1.56572 -0.1782464,3.311269 1.7466037,1.747659 3.283847,-0.205669 3.283847,-0.205669 L 11.898301,6.587139 z"
     id="path3"
     inkscape:connector-curvature="0" /><g
     id="g5"
     transform="translate(1.7239425e-4,-11.984644)" /><g
     id="g7"
     transform="translate(1.7239425e-4,-11.984644)" /><g
     id="g9"
     transform="translate(1.7239425e-4,-11.984644)" /><g
     id="g11"
     transform="translate(1.7239425e-4,-11.984644)" /><g
     id="g13"
     transform="translate(1.7239425e-4,-11.984644)" /><g
     id="g15"
     transform="translate(1.7239425e-4,-11.984644)" /><g
     id="g17"
     transform="translate(1.7239425e-4,-11.984644)" /><g
     id="g19"
     transform="translate(1.7239425e-4,-11.984644)" /><g
     id="g21"
     transform="translate(1.7239425e-4,-11.984644)" /><g
     id="g23"
     transform="translate(1.7239425e-4,-11.984644)" /><g
     id="g25"
     transform="translate(1.7239425e-4,-11.984644)" /><g
     id="g27"
     transform="translate(1.7239425e-4,-11.984644)" /><g
     id="g29"
     transform="translate(1.7239425e-4,-11.984644)" /><g
     id="g31"
     transform="translate(1.7239425e-4,-11.984644)" /><g
     id="g33"
     transform="translate(1.7239425e-4,-11.984644)" /></svg>