<?xml version="1.0" encoding="UTF-8" standalone="no"?>
<!-- Created with Inkscape (http://www.inkscape.org/) -->

<svg
   xmlns:dc="http://purl.org/dc/elements/1.1/"
   xmlns:cc="http://creativecommons.org/ns#"
   xmlns:rdf="http://www.w3.org/1999/02/22-rdf-syntax-ns#"
   xmlns:svg="http://www.w3.org/2000/svg"
   xmlns="http://www.w3.org/2000/svg"
   xmlns:sodipodi="http://sodipodi.sourceforge.net/DTD/sodipodi-0.dtd"
   xmlns:inkscape="http://www.inkscape.org/namespaces/inkscape"
   version="1.1"
   width="16"
   height="16"
   id="svg7384"
   inkscape:version="0.48.4 r9939"
   sodipodi:docname="media-playlist-no-repeat-symbolic.svg">
  <sodipodi:namedview
     pagecolor="#ffffff"
     bordercolor="#666666"
     borderopacity="1"
     objecttolerance="10"
     gridtolerance="10"
     guidetolerance="10"
     inkscape:pageopacity="0"
     inkscape:pageshadow="2"
     inkscape:window-width="1280"
     inkscape:window-height="748"
     id="namedview7"
     showgrid="true"
     inkscape:zoom="31.188406"
     inkscape:cx="7.40625"
     inkscape:cy="7.7786483"
     inkscape:window-x="0"
     inkscape:window-y="0"
     inkscape:window-maximized="1"
     inkscape:current-layer="svg7384"
     showguides="true"
     inkscape:guide-bbox="true">
    <inkscape:grid
       type="xygrid"
       id="grid3025"
       empspacing="5"
       visible="true"
       enabled="true"
       snapvisiblegridlinesonly="true"
       spacingx="1.3877788e-16px"
       spacingy="1.3877788e-16px" />
  </sodipodi:namedview>
  <title
     id="title9167">Gnome Symbolic Icon Theme</title>
  <defs
     id="defs11" />
  <metadata
     id="metadata90">
    <rdf:RDF>
      <cc:Work
         rdf:about="">
        <dc:format>image/svg+xml</dc:format>
        <dc:type
           rdf:resource="http://purl.org/dc/dcmitype/StillImage" />
        <dc:title>Gnome Symbolic Icon Theme</dc:title>
      </cc:Work>
    </rdf:RDF>
  </metadata>
  <rect
     style="fill:none;fill-rule:evenodd;stroke:none"
     id="rect3783"
     width="16"
     height="16"
     x="0"
     y="-2.2165477e-07" />
  <path
     id="path2984"
     style="fill:#cccccc;fill-rule:evenodd;stroke:none"
     d="m 3.875,2.2968747 0,1.125 c -2.2645395,0.930135 -3.78125,2.5989816 -3.78125,4.5 0,2.8754663 3.4567502,5.2252863 7.75,5.2812503 l 0,-2 c -3.0587954,-0.04826 -5.5,-1.4972033 -5.5,-3.2812503 0,-0.8641639 0.5922559,-1.6353834 1.53125,-2.21875 l 0,1.28125 2.75,-2.34375 -2.75,-2.34375 z m 4.03125,0.34375 0,2 c 0.031527,-2.984e-4 0.062097,0 0.09375,0 3.132227,0 5.65625,1.4666401 5.65625,3.28125 0,0.8895368 -0.636363,1.6613898 -1.625,2.2500003 l 0,-1.1562503 -2.75,2.3437503 2.75,2.34375 0,-1.25 c 2.315469,-0.92254 3.875,-2.6045316 3.875,-4.5312503 0,-2.9103954 -3.540657,-5.28125 -7.90625,-5.28125 -0.031436,0 -0.0624,-2.452e-4 -0.09375,0 z"
     inkscape:connector-curvature="0" />
  <text
     xml:space="preserve"
     style="font-size:6.96702766000000029px;font-style:normal;font-variant:normal;font-weight:bold;font-stretch:normal;line-height:125%;letter-spacing:0px;word-spacing:0px;fill:#cccccc;fill-opacity:1;stroke:none;font-family:Arial;-inkscape-font-specification:Arial Bold"
     x="6.3534956"
     y="10.503776"
     id="text3823"
     sodipodi:linespacing="125%"><tspan
       sodipodi:role="line"
       id="tspan3825"
       x="6.3534956"
       y="10.503776">1</tspan></text>
</svg>
