<?xml version="1.0" encoding="UTF-8" standalone="no"?>
<!-- Created with Inkscape (http://www.inkscape.org/) -->

<svg
   xmlns:dc="http://purl.org/dc/elements/1.1/"
   xmlns:cc="http://creativecommons.org/ns#"
   xmlns:rdf="http://www.w3.org/1999/02/22-rdf-syntax-ns#"
   xmlns:svg="http://www.w3.org/2000/svg"
   xmlns="http://www.w3.org/2000/svg"
   xmlns:sodipodi="http://sodipodi.sourceforge.net/DTD/sodipodi-0.dtd"
   xmlns:inkscape="http://www.inkscape.org/namespaces/inkscape"
   version="1.1"
   width="16.049999"
   height="16.062"
   id="svg7384"
   inkscape:version="0.48.4 r9939"
   sodipodi:docname="emblem-synchronizing-symbolic.svg">
  <sodipodi:namedview
     pagecolor="#ffffff"
     bordercolor="#666666"
     borderopacity="1"
     objecttolerance="10"
     gridtolerance="10"
     guidetolerance="10"
     inkscape:pageopacity="0"
     inkscape:pageshadow="2"
     inkscape:window-width="1280"
     inkscape:window-height="748"
     id="namedview190448"
     showgrid="true"
     showguides="true"
     inkscape:guide-bbox="true"
     inkscape:zoom="23.420545"
     inkscape:cx="6.6127515"
     inkscape:cy="8.0310001"
     inkscape:window-x="0"
     inkscape:window-y="0"
     inkscape:window-maximized="1"
     inkscape:current-layer="svg7384">
    <sodipodi:guide
       orientation="0,1"
       position="8,8"
       id="guide2983" />
    <sodipodi:guide
       orientation="1,0"
       position="8,8"
       id="guide2985" />
    <inkscape:grid
       type="xygrid"
       id="grid3760" />
  </sodipodi:namedview>
  <title
     id="title9167">Gnome Symbolic Icon Theme</title>
  <defs
     id="defs10" />
  <metadata
     id="metadata90">
    <rdf:RDF>
      <cc:Work
         rdf:about="">
        <dc:format>image/svg+xml</dc:format>
        <dc:type
           rdf:resource="http://purl.org/dc/dcmitype/StillImage" />
        <dc:title>Gnome Symbolic Icon Theme</dc:title>
      </cc:Work>
    </rdf:RDF>
  </metadata>
  <path
     id="path2987"
     style="fill:#cccccc;fill-rule:evenodd;stroke:none"
     d="M 5.7405433,2.847376 1.0879481,2.0335733 4.9267406,7.4999711 5.7405433,2.847376 z M 2.2790937,3.7902872 C 0.48575393,6.1928577 0.3479351,9.5758931 2.1634814,12.161211 c 1.8155467,2.585318 5.0445023,3.604027 7.9131596,2.732697 L 8.4971379,12.644713 C 6.8793754,12.818392 5.217502,12.151522 4.2133806,10.721664 3.2092593,9.291806 3.1460918,7.5022383 3.8585968,6.0394821 L 2.2790937,3.7902872 z M 13.836518,3.9637892 C 12.020973,1.3784715 8.7920169,0.35976234 5.9233589,1.2310921 L 7.5028621,3.480287 c 1.6312045,-0.1858242 3.3048209,0.4685187 4.3122279,1.9030557 1.007407,1.4345372 1.054804,3.2308967 0.326313,4.7021753 L 11.10173,8.6050351 10.287928,13.25763 l 4.652594,0.813803 -1.219615,-1.73672 c 1.79334,-2.4025704 1.931158,-5.7856055 0.115611,-8.3709238 z"
     inkscape:connector-curvature="0" />
  <rect
     style="fill:none;fill-rule:evenodd;stroke:none;stroke-width:1px;stroke-linecap:butt;stroke-linejoin:miter;stroke-opacity:1"
     id="rect3762"
     width="16"
     height="16"
     x="0"
     y="0.062000275"
     ry="1" />
</svg>
