<?xml version="1.0" encoding="UTF-8" standalone="no"?>
<!-- Created with Inkscape (http://www.inkscape.org/) -->

<svg
   xmlns:dc="http://purl.org/dc/elements/1.1/"
   xmlns:cc="http://creativecommons.org/ns#"
   xmlns:rdf="http://www.w3.org/1999/02/22-rdf-syntax-ns#"
   xmlns:svg="http://www.w3.org/2000/svg"
   xmlns="http://www.w3.org/2000/svg"
   xmlns:sodipodi="http://sodipodi.sourceforge.net/DTD/sodipodi-0.dtd"
   xmlns:inkscape="http://www.inkscape.org/namespaces/inkscape"
   id="svg7384"
   height="16"
   width="16"
   version="1.1"
   inkscape:version="0.48.4 r9939"
   sodipodi:docname="accessories-calculator-symbolic.svg">
  <defs
     id="defs10" />
  <sodipodi:namedview
     pagecolor="#ffffff"
     bordercolor="#666666"
     borderopacity="1"
     objecttolerance="10"
     gridtolerance="10"
     guidetolerance="10"
     inkscape:pageopacity="0"
     inkscape:pageshadow="2"
     inkscape:window-width="1280"
     inkscape:window-height="748"
     id="namedview8"
     showgrid="false"
     inkscape:zoom="23.5113"
     inkscape:cx="6.972595"
     inkscape:cy="8"
     inkscape:window-x="0"
     inkscape:window-y="0"
     inkscape:window-maximized="1"
     inkscape:current-layer="svg7384" />
  <metadata
     id="metadata90">
    <rdf:RDF>
      <cc:Work
         rdf:about="">
        <dc:format>image/svg+xml</dc:format>
        <dc:type
           rdf:resource="http://purl.org/dc/dcmitype/StillImage" />
        <dc:title>Gnome Symbolic Icon Theme</dc:title>
      </cc:Work>
    </rdf:RDF>
  </metadata>
  <title
     id="title9167">Gnome Symbolic Icon Theme</title>
  <path
     style="fill:#cccccc;fill-rule:evenodd;stroke:none;stroke-width:0.08400000000000001;stroke-linecap:butt;stroke-linejoin:miter;stroke-opacity:1;stroke-miterlimit:4;stroke-dasharray:none"
     d="M 2.1875 0.5 C 1.7772568 0.5 1.4375 0.80850681 1.4375 1.21875 L 1.4375 14.78125 C 1.4375 15.191493 1.7772568 15.5 2.1875 15.5 L 13.90625 15.5 C 14.316493 15.5 14.65625 15.191493 14.65625 14.78125 L 14.65625 1.21875 C 14.65625 0.80850681 14.316493 0.5 13.90625 0.5 L 2.1875 0.5 z M 2.625 1.3125 L 13.46875 1.3125 C 13.822708 1.3125 14.125 1.6147921 14.125 1.96875 L 14.125 4.375 C 14.125 4.7289579 13.822708 5.03125 13.46875 5.03125 L 2.625 5.03125 C 2.2710421 5.03125 2 4.7289579 2 4.375 L 2 1.96875 C 2 1.6147921 2.2710421 1.3125 2.625 1.3125 z M 2.40625 6.28125 L 4.65625 6.28125 L 4.65625 7.96875 L 2.40625 7.96875 L 2.40625 6.28125 z M 5.4375 6.28125 L 7.6875 6.28125 L 7.6875 7.96875 L 5.4375 7.96875 L 5.4375 6.28125 z M 8.5 6.28125 L 10.71875 6.28125 L 10.71875 7.96875 L 8.5 7.96875 L 8.5 6.28125 z M 11.53125 6.28125 L 13.75 6.28125 L 13.75 7.96875 L 11.53125 7.96875 L 11.53125 6.28125 z M 2.40625 8.28125 L 4.65625 8.28125 L 4.65625 9.96875 L 2.40625 9.96875 L 2.40625 8.28125 z M 5.4375 8.28125 L 7.6875 8.28125 L 7.6875 9.96875 L 5.4375 9.96875 L 5.4375 8.28125 z M 8.5 8.28125 L 10.71875 8.28125 L 10.71875 9.96875 L 8.5 9.96875 L 8.5 8.28125 z M 11.53125 8.28125 L 13.75 8.28125 L 13.75 9.96875 L 11.53125 9.96875 L 11.53125 8.28125 z M 2.40625 10.28125 L 4.65625 10.28125 L 4.65625 11.96875 L 2.40625 11.96875 L 2.40625 10.28125 z M 5.4375 10.28125 L 7.6875 10.28125 L 7.6875 11.96875 L 5.4375 11.96875 L 5.4375 10.28125 z M 8.5 10.28125 L 10.71875 10.28125 L 10.71875 11.96875 L 8.5 11.96875 L 8.5 10.28125 z M 11.53125 10.28125 L 13.75 10.28125 L 13.75 11.96875 L 11.53125 11.96875 L 11.53125 10.28125 z M 2.40625 12.28125 L 4.65625 12.28125 L 4.65625 13.96875 L 2.40625 13.96875 L 2.40625 12.28125 z M 5.4375 12.28125 L 7.6875 12.28125 L 7.6875 13.96875 L 5.4375 13.96875 L 5.4375 12.28125 z M 8.5 12.28125 L 10.71875 12.28125 L 10.71875 13.96875 L 8.5 13.96875 L 8.5 12.28125 z M 11.53125 12.28125 L 13.75 12.28125 L 13.75 13.96875 L 11.53125 13.96875 L 11.53125 12.28125 z "
     id="rect3758" />
  <rect
     style="fill:none;fill-rule:evenodd;stroke:none"
     id="rect3760"
     width="16"
     height="16"
     x="0.042532369"
     y="-7.5582534e-07"
     ry="0.63891309" />
</svg>
