<?xml version="1.0" encoding="UTF-8" standalone="no"?>
<!-- Created with Inkscape (http://www.inkscape.org/) -->

<svg
   xmlns:dc="http://purl.org/dc/elements/1.1/"
   xmlns:cc="http://creativecommons.org/ns#"
   xmlns:rdf="http://www.w3.org/1999/02/22-rdf-syntax-ns#"
   xmlns:svg="http://www.w3.org/2000/svg"
   xmlns="http://www.w3.org/2000/svg"
   xmlns:sodipodi="http://sodipodi.sourceforge.net/DTD/sodipodi-0.dtd"
   xmlns:inkscape="http://www.inkscape.org/namespaces/inkscape"
   id="svg7384"
   height="16"
   width="16"
   version="1.1"
   inkscape:version="0.48.4 r9939"
   sodipodi:docname="preferences-desktop-keyboard-shortcuts-symbolic.svg">
  <defs
     id="defs10" />
  <sodipodi:namedview
     pagecolor="#ffffff"
     bordercolor="#666666"
     borderopacity="1"
     objecttolerance="10"
     gridtolerance="10"
     guidetolerance="10"
     inkscape:pageopacity="0"
     inkscape:pageshadow="2"
     inkscape:window-width="1280"
     inkscape:window-height="748"
     id="namedview8"
     showgrid="true"
     inkscape:zoom="31.742151"
     inkscape:cx="8.6015039"
     inkscape:cy="8.1804513"
     inkscape:window-x="0"
     inkscape:window-y="0"
     inkscape:window-maximized="1"
     inkscape:current-layer="svg7384">
    <inkscape:grid
       type="xygrid"
       id="grid3874"
       empspacing="5"
       visible="true"
       enabled="true"
       snapvisiblegridlinesonly="true"
       spacingx="1.3877788e-16px"
       spacingy="1.3877788e-16px" />
  </sodipodi:namedview>
  <metadata
     id="metadata90">
    <rdf:RDF>
      <cc:Work
         rdf:about="">
        <dc:format>image/svg+xml</dc:format>
        <dc:type
           rdf:resource="http://purl.org/dc/dcmitype/StillImage" />
        <dc:title>Gnome Symbolic Icon Theme</dc:title>
      </cc:Work>
    </rdf:RDF>
  </metadata>
  <title
     id="title9167">Gnome Symbolic Icon Theme</title>
  <path
     style="fill:#cccccc;fill-rule:evenodd;stroke:none"
     d="m 1.2300322,0.49999933 c -0.3775551,0 -0.68750006,0.309945 -0.68750006,0.68750007 l 0,13.6562496 c 0,0.377555 0.30994496,0.65625 0.68750006,0.65625 l 13.6562508,0 c 0.377555,0 0.65625,-0.278695 0.65625,-0.65625 l 0,-13.6562496 c 0,-0.37755507 -0.278695,-0.68750007 -0.65625,-0.68750007 l -13.6562508,0 z m 6.34375,1.81250007 c 0.917902,-0.080334 1.8745207,0.080253 2.7500008,0.5625 2.334582,1.2860515 3.211678,4.2171326 1.96875,6.53125 -1.242749,2.3141766 -4.1654189,3.1609606 -6.5000008,1.8749996 -0.4112047,-0.226515 -0.744889,-0.527986 -1.0625,-0.84375 l 0.125,-0.125 c -0.031729,-0.03162 -0.063036,-0.06135 -0.09375,-0.09375 l -0.125,0.125 C 3.2247161,8.8637464 2.820989,6.6170956 3.8237822,4.7499994 c 0.7767928,-1.4463609 2.2201633,-2.3036096 3.75,-2.4375 z m -2.8125,7.9062496 0.5,-0.4999996 c -0.3876774,-0.411998 -0.6669167,-0.905515 -0.84375,-1.4375 0.019773,0.043483 0.028934,0.092816 0.0625,0.125 0.0116,0.014064 0.043237,0.038071 0.0625,0.03125 0.019413,-0.00676 -0.00324,-0.047114 0,-0.0625 0.00291,-0.020344 0.027734,-0.015804 0.03125,-0.03125 0.00424,0.039817 0.017066,0.086084 0.03125,0.125 0.021276,0.058449 0.05808,0.1042021 0.09375,0.15625 -0.2082077,-0.457246 -0.3344245,-0.9577601 -0.34375,-1.46875 l -0.15625,0 c 0.00513,0.2828269 0.028407,0.5412003 0.09375,0.8125 -0.01111,-0.00109 -0.020023,0.011059 -0.03125,0 -0.011566,-0.014034 -0.02915,-0.042576 -0.03125,-0.0625 l -0.03125,-0.1875 c -0.00995,8.71e-4 -0.02728,0.020822 -0.03125,0.03125 -0.00826,0.015837 -0.00216,0.105106 0,0.125 -0.026234,-0.015167 -0.029245,-0.041626 -0.03125,-0.0625 -0.032215,-0.067464 -0.037828,-0.050687 -0.0625,-0.09375 -0.02353,-0.032996 -0.048316,-0.086024 -0.0625,-0.125 -0.00156,-0.014875 -0.00688,-0.06977 -0.03125,-0.0625 -0.00935,0.00586 -0.02737,0.020853 -0.03125,0.03125 -6.01e-4,0.040389 0.016107,0.088398 0,0.125 -0.041289,-0.011299 -0.048767,-0.059793 -0.0625,-0.09375 -0.00709,-0.019443 -0.01971,-0.048526 -0.03125,-0.0625 -0.01208,-0.018962 -0.018659,-0.0073 -0.03125,-0.03125 -0.012618,-0.02404 -0.02362,-0.038099 -0.03125,-0.0625 -0.00823,-0.02945 -0.018568,-0.03855 -0.03125,-0.0625 -0.037984,0.018481 -0.035394,0.034853 -0.0625,0.0625 l 0,-0.0625 c -0.00147,0.080536 -0.04453,0.089357 -0.0625,0.15625 -0.018361,0.061965 -0.00694,0.1853607 0,0.25 l -0.03125,-0.0625 0,-0.125 -0.03125,-0.09375 c -0.016733,-0.1554956 0.00283,-0.2144197 0.03125,-0.34375 l -0.125,0 c 0.041012,1.1296873 0.4841809,2.221663 1.28125,3.0624996 z m -1.28125,-3.0624996 c -0.00154,-0.042466 3.706e-4,-0.082464 0,-0.125 l -0.15625,0 0,0.125 0.15625,0 z m 0,-0.125 0.125,0 0.03125,-0.09375 c 0.00727,-0.025784 0.03876,-0.081549 0.0625,-0.09375 0.019352,-0.00676 0.034312,0.01764 0.0625,0 0.023169,-0.017189 0.056758,-0.065232 0.09375,-0.09375 0.018812,-0.01169 0.02356,-0.024431 0.03125,0 l 0.03125,0.0625 0.03125,0 0.03125,0.0625 0.03125,0.03125 0,0.09375 0.03125,0 c 0.0045,-0.00541 -0.00391,-0.020852 0,-0.03125 0.018238,-0.026274 0.043087,-0.014509 0.0625,0 -0.023018,-0.028068 -0.031911,-0.053452 -0.03125,-0.09375 0.00388,-0.010367 0.0213,-0.030348 0.03125,-0.03125 0.00932,-0.00586 0.02572,0.02671 0.03125,0.03125 0.020249,0.00978 0.039813,0.047901 0.0625,0.0625 0.01572,-0.4003318 0.1022968,-0.8231414 0.25,-1.21875 0.1811284,-0.4849981 0.4502342,-0.8919519 0.78125,-1.25 l -0.5625,-0.5625 c -0.2570941,0.2764686 -0.5003543,0.5890523 -0.6875,0.9375 -0.3744149,0.6971012 -0.506496,1.4419841 -0.5,2.1875 z m 1.1875,-3.125 c 0.035993,-0.038706 0.087819,-0.056508 0.125,-0.09375 l -0.0625,-0.0625 -0.09375,0.09375 0.03125,0.0625 z m 0.125,-0.09375 0.5625,0.5625 c 0.7036477,-0.7019823 1.6274731,-1.1371601 2.625,-1.15625 l 0,-0.75 c -1.1972656,8.501e-4 -2.3328161,0.4876604 -3.1875,1.34375 z m 3.1875,-1.34375 c 0.051607,-3.66e-5 0.1045359,0.029545 0.15625,0.03125 l 0,-0.09375 -0.15625,0 0,0.0625 z m 0.15625,0.03125 0,0.71875 c 0.050341,0.00102 0.1057739,-0.00302 0.15625,0 l 0.125,0 c 0.069417,-0.00628 0.07145,-0.016375 0.125,-0.03125 0.057938,-0.020284 0.099454,-0.015055 0.15625,0 0.036331,0.011749 0.07016,-0.00184 0.09375,0.03125 -0.035887,0.017793 -0.078318,0.025908 -0.125,0.03125 0.2533166,0.039804 0.5005188,0.1254011 0.75,0.21875 0.1270201,0.047527 0.2248804,0.1284206 0.34375,0.1875 -0.012802,0.021246 0.015353,0.053816 0.03125,0.0625 0.016588,0.013583 0.046002,0.017607 0.0625,0.03125 0.032034,0.017129 0.05787,0.024428 0.09375,0.03125 -0.00222,-0.019954 -0.024185,-0.043027 -0.03125,-0.0625 0.3014058,0.1667433 0.5729768,0.3614828 0.8125008,0.59375 l 0.5,-0.5 c -0.299525,-0.2928343 -0.61578,-0.5695999 -1,-0.78125 C 9.5610259,2.6627186 8.8457568,2.5233845 8.1362822,2.4999994 z m 3.0937508,1.3125 c 0.03206,0.031348 0.0627,0.061609 0.09375,0.09375 l 0.09375,-0.09375 -0.09375,-0.09375 -0.09375,0.09375 z m 0.09375,0.09375 -0.5,0.5 c 0.680513,0.7068443 1.082641,1.6372898 1.09375,2.625 l 0.71875,0 c -0.03397,-1.155318 -0.488746,-2.2723423 -1.3125,-3.125 z m 1.3125,3.125 c 0.0013,0.042864 0.03118,0.082071 0.03125,0.125 l 0.09375,0 0,-0.125 -0.125,0 z m 0.03125,0.125 -0.75,0 c -0.0086,0.4240952 -0.09327,0.8615837 -0.25,1.28125 -0.195212,0.522673 -0.507913,0.969517 -0.875,1.34375 l 0.5625,0.5624996 c 0.296111,-0.299634 0.571647,-0.6409616 0.78125,-1.0312496 0.368846,-0.6867934 0.532389,-1.4215257 0.53125,-2.15625 z m -1.3125,3.1874996 c -0.03173,0.0321 -0.06118,0.06273 -0.09375,0.09375 l 0.03125,0.03125 0.09375,-0.09375 -0.03125,-0.03125 z m -0.09375,0.09375 -0.5625,-0.5624996 c -0.09303,0.08839 -0.180483,0.1717456 -0.28125,0.2499996 -0.003,0.02031 -0.04579,0.09333 -0.0625,0.125 -0.04829,0.109896 -0.121446,0.207205 -0.21875,0.28125 -0.05133,0.03477 -0.09933,0.06349 -0.1562508,0.09375 l -0.15625,0.0625 c -0.070199,0.04649 -0.195155,0.1324 -0.28125,0.125 -0.040719,-0.0063 -0.010542,-0.0469 -0.0625,-0.0625 l -0.15625,-0.03125 c 0.3952945,-0.138204 0.7614858,-0.335717 1.0937508,-0.59375 0.0066,-0.03083 -0.01229,-0.06755 0,-0.09375 0.01608,-0.03675 0.07813,-0.08341 0.09375,-0.1249998 0.01295,-0.02131 0.02167,-0.04934 0,-0.0625 0.02736,-0.0244 0.03583,-0.0685 0.0625,-0.09375 l -0.0625,-0.0625 c -0.03041,0.04859 -0.07442,0.104847 -0.09375,0.15625 0.02759,0.0076 0.04914,6.6e-5 0.0625,0 -0.397462,0.3498538 -0.8408861,0.6277338 -1.3437508,0.7812498 0.029738,0.02562 0.065217,0.07371 0.09375,0.09375 0.01789,0.0118 0.036783,-6.62e-4 0.0625,0 -0.3745229,0.127833 -0.7542683,0.211062 -1.15625,0.21875 l 0,0.75 c 1.1602101,-7.11e-4 2.2784808,-0.443813 3.1250008,-1.25 z m -3.1250008,1.25 c -0.051314,3.1e-5 -0.1048302,0.0017 -0.15625,0 l 0,0.0625 0.15625,0 0,-0.0625 z m -0.15625,0 0,-0.75 c -0.4236814,-0.0086 -0.861975,-0.09311 -1.28125,-0.25 -0.5282438,-0.197642 -0.9674555,-0.501635 -1.34375,-0.8749996 l -0.5,0.4999996 c 0.3069718,0.305878 0.6333095,0.593298 1.03125,0.8125 0.6691152,0.368601 1.3841566,0.539177 2.09375,0.5625 z m -2.625,-1.8749996 0.09375,-0.09375 c -0.030643,-0.030441 -0.064271,-0.062328 -0.09375,-0.09375 l -0.09375,0.09375 c 0.0301,0.03199 0.062494,0.06274 0.09375,0.09375 z m 0,-0.1875 0.25,-0.28125 c -0.045827,-0.0059 -0.091493,-0.09282 -0.125,-0.125 l -0.125,-0.125 c -0.057727,-0.07029 -0.041399,-0.04711 -0.125,-0.125 -0.016498,-0.01358 -0.078304,-0.05889 -0.09375,-0.0625 -0.02975,0.0026 -0.014569,0.05709 -0.0625,0.03125 l -0.0625,-0.03125 -0.0625,-0.0625 c -0.054512,-0.040328 -0.110994,-0.078782 -0.15625,-0.125 -0.032935,-0.027226 -0.07004,-0.060604 -0.09375,-0.09375 0.1665802,0.365828 0.3784313,0.703875 0.65625,1 z m 0.09375,0.09375 c 0.3602835,0.3579176 0.8064186,0.6231416 1.3125,0.8124996 0.4048774,0.151491 0.8097087,0.242981 1.21875,0.25 l 0,-0.71875 c -0.3241816,-0.0074 -0.648024,-0.06749 -0.96875,-0.1874996 -0.3019953,-0.113005 -0.5420944,-0.309 -0.78125,-0.5 0.015972,-0.01464 0.00464,-0.04283 0,-0.0625 -0.014175,-0.03895 -0.062047,-0.06259 -0.09375,-0.125 -0.018988,-0.03237 -0.045258,-0.06085 -0.0625,-0.09375 l -0.09375,0.09375 c 0.069171,0.06865 0.1424357,0.125495 0.21875,0.1875 -0.013112,0.00512 -0.014365,0.03427 -0.03125,0.03125 -0.056135,-0.00998 -0.134551,-0.068357 -0.1875,-0.09375 -0.020826,-0.00823 -0.073376,-0.02809 -0.09375,-0.03125 l 0.09375,-0.09375 c -0.031427,-0.03119 -0.063842,-0.06129 -0.09375,-0.09375 l -0.25,0.25 c 0.051177,0.01055 0.1027897,0.01488 0.15625,0 l -0.34375,0.375 z m 0.4375,-0.625 0.125,-0.09375 c -0.00514,-0.0055 0.00509,-0.02569 0,-0.03125 l 0.46875,-0.46875 C 6.153275,8.1351179 5.9697629,7.648723 5.9487822,7.1562494 l -0.1875,0 c -8.46e-4,0.00879 0.0036,0.018373 0,0.03125 -0.00463,-0.0056 -0.020147,0.00921 -0.03125,0 0.011028,0.00905 0.03416,0.042096 0.03125,0.0625 -0.00559,0.040719 -0.03765,0.065259 -0.03125,0.125 l 0,0.09375 0,0.0625 0.03125,0.0625 c 0.00322,0.02987 0.00673,0.063038 0,0.09375 l 0,0.03125 c -0.00289,0.020314 -0.0329,0.047565 -0.03125,0.0625 l 0,0.09375 c -0.00514,0.045708 -0.00487,0.080224 0,0.125 0.011179,0.1045465 0.08963,0.227366 0.09375,0.3125 3.91e-4,0.050215 -0.015654,0.0521 -0.03125,0.09375 l 0,0.03125 c -0.010755,-0.00205 -0.022472,0.0039 -0.03125,0 0.02368,0.033146 0.048406,0.117334 0.0625,0.15625 0.00512,0.0055 -0.00403,0.023576 0,0.03125 l 0.0625,0.125 c 0.00156,0.01506 -0.0061,0.05306 0,0.0625 -0.3758536,-0.4722889 -0.606028,-1.0465945 -0.625,-1.65625 l -0.1875,0 c 0.016037,0.7281213 0.3225952,1.405733 0.8125,1.9375 z m -0.8125,-1.9375 c -8.96e-4,-0.040678 -7.882e-4,-0.084159 0,-0.125 l -0.125,0 -0.03125,0.0625 c -0.00533,0.020554 -0.020007,0.038869 -0.03125,0.0625 l 0.1875,0 z m -0.1875,0 -0.28125,0 c 0.012648,0.012678 0.020282,0.022189 0.03125,0.03125 0.036873,0.01677 0.078905,0.00138 0.09375,0 0.015446,0.00367 0.046513,0.02266 0.0625,0.03125 0.015386,0.00367 0.048106,0.00628 0.0625,0 0.021787,-0.00696 0.020007,-0.038869 0.03125,-0.0625 z m -0.28125,0 c -0.012648,-0.012678 -0.020747,-0.027223 -0.03125,-0.03125 -0.020945,-0.00832 -0.042607,-0.00183 -0.0625,0 -0.024852,0.00216 -0.042126,0.00316 -0.0625,0 -0.029029,-0.00868 -0.044202,-0.06301 -0.0625,-0.09375 -6.119e-4,0.040778 -0.031992,0.084353 -0.03125,0.125 l 0.25,0 z m -0.21875,-0.125 c -0.01432,-0.024057 -0.053872,-0.04341 -0.0625,-0.0625 -0.00706,-0.019443 -0.015263,-0.022656 -0.03125,-0.03125 -0.021997,-0.018121 -0.036656,0.00769 -0.0625,0 -0.0047,-7.431e-4 -0.024444,0.00438 -0.03125,0 -0.00124,0.031536 4.598e-4,0.062274 0,0.09375 l 0.1875,0 z m 0,0 0.5625,0 0.03125,-0.125 c 0.011719,-0.031223 0.00862,-0.071603 0.03125,-0.09375 l 0.0625,-0.03125 0.03125,-0.03125 c 0.02697,-0.2364741 0.069273,-0.4858205 0.15625,-0.71875 0.1383613,-0.3705444 0.3416852,-0.6942574 0.59375,-0.96875 l -0.5,-0.5 c -0.3166964,0.3425384 -0.5767134,0.7547681 -0.75,1.21875 -0.1522776,0.4078154 -0.2125688,0.8380619 -0.21875,1.25 z m 0.96875,-2.46875 c 0.029768,-0.032197 0.062941,-0.06273 0.09375,-0.09375 l -0.09375,-0.09375 c -0.03655,0.036464 -0.089836,0.055715 -0.125,0.09375 l 0.125,0.09375 z m 0.09375,-0.09375 0.5,0.5 c 0.5334194,-0.5311796 1.2767221,-0.8509981 2.03125,-0.875 l 0,-0.71875 c -0.9513363,0.024481 -1.8625711,0.4204707 -2.53125,1.09375 z m 2.53125,-1.09375 c 0.010362,-2.667e-4 0.020878,1.788e-4 0.03125,0 0.00135,-0.03534 0.03305,-0.05484 0.0625,-0.0625 0.02356,-0.00913 0.043208,-0.025683 0.0625,-0.03125 l 0,-0.0625 c -0.050341,-0.00102 -0.1060964,-9.598e-4 -0.15625,0 l 0,0.15625 z m 0.15625,-0.09375 0,0.09375 c 0.010156,0.00302 0.018671,-0.00489 0.03125,0 0.023676,0.00827 0.04297,0.021661 0.0625,0.03125 -0.031278,-0.00135 -0.062532,5.478e-4 -0.09375,0 l 0,0.6875 c 0.3241824,0.00739 0.6480178,0.067486 0.96875,0.1875 0.3846646,0.143928 0.7193106,0.3589923 1.0000008,0.625 l 0.21875,-0.1875 c -0.02702,-0.017671 -0.0311,0.012261 -0.0625,0 -0.01613,-0.00863 -0.04591,-0.048887 -0.0625,-0.0625 l -0.0625,-0.03125 -0.0625,-0.0625 c -0.01276,-0.010495 -0.04598,-0.050549 -0.0625,-0.0625 0.01689,-2.549e-4 0.03263,-0.018824 0.03125,-0.03125 0.0033,-0.015416 -0.02034,-0.02223 -0.03125,-0.03125 -0.017099,-0.018601 -0.072354,-0.080588 -0.09375,-0.09375 -0.021366,-0.013192 -0.100659,0.02407 -0.125,0.03125 -0.014815,0.00135 -0.046633,0.00862 -0.0625,0 -0.016498,-0.013613 0.00706,-0.043057 0,-0.0625 -0.013222,-0.028969 -0.075599,-0.065232 -0.09375,-0.09375 -0.02362,-0.033026 0.01749,-0.03897 0,-0.0625 -0.017729,-0.02356 -0.071603,-0.075599 -0.09375,-0.09375 -0.022989,-0.028098 -0.039962,-0.039391 -0.0625,-0.0625 l -0.0625,-0.0625 c -0.028007,-0.027677 -0.093482,-0.087046 -0.0625,-0.125 0.030471,-0.042885 0.112226,-0.05354 0.15625,-0.0625 0.026043,-0.005 0.040824,-0.022828 0.0625,-0.03125 -0.074905,-0.033847 -0.1406527,-0.06453 -0.21875,-0.09375 -0.3528784,-0.1320337 -0.7049361,-0.1971628 -1.0625,-0.21875 l -0.0625,-0.03125 0.0625,-0.03125 c -0.021937,-0.018121 -0.040954,-0.018178 -0.0625,-0.03125 -0.010938,-0.00908 -0.020191,-0.022204 -0.03125,-0.03125 -0.010007,9.316e-4 -0.021423,-9.3e-4 -0.03125,0 -0.0088,0.00228 -0.022982,-0.00239 -0.03125,0 z m 1.4375,0.4375 c 0.2089489,0.094417 0.4111465,0.1853794 0.5937508,0.3125 -0.01154,-0.014034 -0.01301,-0.033951 -0.03125,-0.0625 -0.02849,-0.032605 -0.08765,-0.072023 -0.125001,-0.09375 l -0.1562498,-0.09375 c -0.058449,-0.029901 -0.1532394,-0.058353 -0.21875,-0.0625 -0.023602,-2.545e-4 -0.043233,-0.00749 -0.0625,0 z m 0.7500008,1 c 0.03481,0.016742 0.06278,0.05754 0.09375,0.09375 l 0.25,-0.25 -0.0625,-0.0625 -0.03125,-0.03125 -0.25,0.25 z m 0.25,-0.25 0.03125,-0.03125 c 0.03232,0.031024 0.06268,0.061656 0.09375,0.09375 l 0.125,-0.125 c -0.03049,-0.031668 -0.06211,-0.063069 -0.09375,-0.09375 l -0.125,0.09375 c -0.09215,-0.087323 -0.210727,-0.1719617 -0.3125,-0.25 0.01697,0.018571 0.03287,0.051168 0.0625,0.09375 0.02909,0.037563 0.05535,0.093266 0.09375,0.125 l 0.125,0.09375 z m -0.15625,0.34375 -0.21875,0.21875 c 0.509174,0.5363967 0.828191,1.2558627 0.84375,2 l 0.71875,0 c -0.01214,-0.7058164 -0.243478,-1.3874413 -0.625,-1.96875 -0.01,-0.00539 -0.02399,-0.00312 -0.03125,0 -0.01421,0.00628 -0.02795,0.015864 -0.03125,0.03125 -0.0028,0.020404 0.0035,0.047114 0,0.0625 -0.0033,0.015416 0.0034,0.015894 0,0.03125 l -0.0625,0.03125 c -0.005,5.086e-4 -0.02635,-3.907e-4 -0.03125,0 -0.02594,-0.00769 -0.07124,-0.039391 -0.09375,-0.0625 -0.05659,-0.060252 -0.12154,-0.133078 -0.1875,-0.1875 -0.04949,-0.040779 -0.05132,-0.00997 -0.09375,-0.03125 -0.02687,-0.01767 -0.03599,-0.049819 -0.0625,-0.0625 -0.03137,-0.012261 -0.02515,-0.00946 -0.0625,-0.03125 -0.01875,-0.015464 -0.04644,-0.012475 -0.0625,-0.03125 z m 0.71875,0.25 c 0.01,0.00539 0.02609,-0.00204 0.03125,0 -0.009,-0.051366 -0.06027,-0.080828 -0.09375,-0.125 0.02693,0.037855 0.03704,0.086207 0.0625,0.125 z m 0.625,1.96875 c 7.3e-4,0.042431 -0.0305,0.082429 -0.03125,0.125 l 0.1875,0 c 8.15e-4,-0.040313 4.52e-4,-0.084804 0,-0.125 l -0.15625,0 z m -0.03125,0.125 -0.6875,0 c -0.0074,0.3245 -0.06764,0.647692 -0.1875,0.96875 -0.08582,0.2298 -0.21153,0.4309192 -0.34375,0.625 -0.0065,0.119199 -0.05852,0.229418 -0.09375,0.34375 -0.02284,0.06743 -0.05358,0.212885 -0.03125,0.28125 l -0.21875,-0.21875 c -0.03116,0.03146 -0.06132,0.06381 -0.09375,0.09375 l 0.4375,0.4375 c 0.0188,-0.03004 0.04456,-0.06523 0.0625,-0.09375 l 0.09375,0.0625 c 0.07197,-0.07329 0.152703,-0.13905 0.21875,-0.21875 -0.0114,-0.01394 0.0027,-0.100238 0,-0.125 -0.02527,-0.0029 -0.0592,-0.0014 -0.0625,-0.03125 5.4e-4,-0.04027 0.04648,-0.08849 0.0625,-0.125 0.01614,-0.03666 0.03038,-0.115862 0.03125,-0.15625 0.0028,-0.02028 -0.01331,-0.07743 0,-0.09375 0.02654,-0.03255 0.1153,-0.04439 0.125,0 0.0016,0.01493 -0.02725,0.05219 -0.03125,0.0625 0.04195,0.01638 0.0532,0.08566 0.0625,0.125 l 0.03125,0.09375 c 0.167637,-0.244023 0.298001,-0.5226418 0.40625,-0.8125 0.151156,-0.4047908 0.211585,-0.8097922 0.21875,-1.21875 z m -0.625,2.03125 c -0.06268,0.09123 -0.148868,0.165672 -0.21875,0.25 0.01199,0.01902 0.04312,0.0068 0.0625,0 0.05289,-0.01992 0.100629,-0.103752 0.125,-0.15625 0.01716,-0.02662 0.03504,-0.05883 0.03125,-0.09375 z m -0.4375,0.46875 c -0.03136,0.03194 -0.06134,0.06306 -0.09375,0.09375 l 0.125,0.125 c 0.03266,-0.03103 0.06212,-0.06151 0.09375,-0.09375 l -0.125,-0.125 z m -0.59375,-0.40625 -0.1250008,-0.125 c -0.4943593,0.453867 -1.1378963,0.728995 -1.8125,0.75 l 0,0.125 0.09375,0 c 0.039697,-0.0036 0.08362,-0.01139 0.125,0 0.031598,0.0087 0.056473,0.02565 0.09375,0.03125 -0.1000241,0.01353 -0.2108659,0.02802 -0.3125,0.03125 l 0,0.71875 c 0.335473,-0.0086 0.6836847,-0.05968 1,-0.15625 -0.00991,-0.0085 -0.015586,-0.02511 -0.03125,-0.03125 l -0.125,-0.03125 c -0.016108,-0.0086 -0.05093,-0.01719 -0.0625,-0.03125 -0.02966,-0.04255 0.00414,-0.128693 0.03125,-0.15625 0.00892,-0.01082 0.06406,-0.01638 0.0625,-0.03125 -0.00156,-0.015 -0.051051,-0.0485 -0.0625,-0.0625 -0.01154,-0.01409 0.010999,-0.02217 0,-0.03125 -0.017039,-0.0186 -0.099727,-0.05977 -0.125,-0.0625 -0.036392,-0.01184 -0.128844,-0.0086 -0.15625,-0.03125 -0.049435,-0.04087 0.063948,-0.121812 0,-0.1562496 0.5272634,-0.109946 1.0082842,-0.382625 1.4062508,-0.75 z M 8.1362822,10.781249 c -0.052105,0.0013 -0.1039255,8.98e-4 -0.15625,0 l 0,0.15625 c 0.050342,10e-4 0.1060956,9.59e-4 0.15625,0 l 0,-0.15625 z m 0,-0.71875 0,-0.0625 -0.09375,0.03125 c -0.020926,6.73e-4 -0.04372,0.0015 -0.0625,0 l 0,0.03125 c 0.053831,0.0012 0.1027076,0.0017 0.15625,0 z m -0.15625,-0.03125 0,-0.1562496 c -0.2300972,-0.0061 -0.457819,-0.02816 -0.6875,-0.09375 0.029825,0.03893 0.057931,0.06721 0.09375,0.09375 0.070439,0.04901 0.1629731,0.107691 0.25,0.125 l 0.15625,0 c 0.061052,0.0058 0.1299864,0.02657 0.1875,0.03125 z m -0.6875,-0.2499996 c -0.015465,-0.02019 -0.01398,-0.04516 -0.03125,-0.0625 -0.038435,-0.031764 -0.0851,-0.059462 -0.09375,-0.09375 -0.010879,-0.05448 0.067786,-0.05622 0.09375,-0.09375 0.00337,-0.01533 0.00156,-0.04766 0,-0.0625 -0.00162,-0.01506 -0.00835,-0.04666 0,-0.0625 0.00826,-0.01584 0.043177,-0.02455 0.0625,-0.03125 l 0.0625,0 c 0.048081,-0.01929 0.069827,-0.03131 0.125,-0.03125 0.024792,-0.0023 0.105677,-0.02446 0.125,-0.03125 0.038165,-0.01854 -0.00129,-0.03942 0.03125,-0.0625 0.032725,-0.02308 0.096211,-0.01854 0.125,-0.03125 0.028609,-0.012652 0.038219,-0.02404 0.0625,-0.03125 -0.1816289,-0.01719 -0.3522614,-0.058003 -0.53125,-0.125 -0.288131,-0.107812 -0.5442197,-0.265545 -0.75,-0.46875 l -0.46875,0.46875 c 0.2740162,0.272313 0.5837649,0.512231 0.96875,0.65625 0.071514,0.02676 0.146573,0.04189 0.21875,0.0625 z m -1.1875,-0.71875 c -0.015269,-0.01517 -0.04761,-0.01575 -0.0625,-0.03125 0.013432,0.01806 0.020576,0.04213 0.03125,0.0625 l 0.03125,-0.03125 z m 0.46875,-0.46875 0.125,-0.09375 c 0.1852708,0.1755855 0.4023513,0.342495 0.65625,0.4375 0.1176847,0.04402 0.2555372,0.07319 0.375,0.09375 -0.00445,0.0054 -6e-4,0.02626 0,0.03125 -6.01e-4,-0.005 0.031851,0.03621 0.03125,0.03125 0.00712,0.0195 0.042006,0.02806 0.0625,0.03125 0.025633,0.0077 0.00988,0.01806 0.03125,0.03125 0.020975,0.008 0.043087,0.0067 0.0625,0 0.017129,-0.0016 0.044511,-0.0012 0.0625,0 l 0,-0.125 c -0.074941,-0.003 -0.143557,0.01181 -0.21875,0 0.00548,-0.0074 -0.00148,-0.02106 0,-0.03125 0.01154,-0.03119 0.00294,-0.08843 0.0625,-0.09375 0.045136,9.61e-4 0.110423,0.0253 0.15625,0.03125 l 0,-0.125 c -0.013391,-0.0057 -0.036314,-0.02178 -0.03125,-0.03125 0.00465,-0.01248 0.018443,-0.03069 0.03125,-0.03125 l 0,-0.0625 0.03125,0 c 0.055113,9e-5 0.073132,0.02981 0.125,0 l 0,0.0625 0.03125,-0.0625 c 0.013703,-0.011269 0.017397,-0.019951 0.03125,-0.03125 0.00941,-0.00592 0.065502,-0.04483 0.09375,-0.0625 0.023049,-0.017128 0.048616,-0.019951 0.0625,-0.03125 0.017279,-0.026595 -0.017517,-0.059853 -0.03125,-0.09375 -0.0092,-0.039367 0.00306,-0.07611 0.03125,-0.09375 l 0.03125,0.0625 c 0.00818,0.029419 -0.033567,0.061596 0,0.09375 0.032966,0.027227 0.042757,-0.02945 0.0625,-0.03125 0.014906,-0.00135 0.043358,0.00673 0.0625,0 0.024461,-0.00727 0.03885,-0.019019 0.0625,-0.03125 0.028218,-0.01758 0.041495,0.00583 0.0625,-0.03125 0.00346,-0.015416 0.03293,-0.047535 0.03125,-0.0625 -0.00763,-0.024431 -0.047808,-0.030826 -0.03125,-0.0625 0.01178,-0.031162 0.06016,-0.00592 0.0625,-0.03125 0.00117,-0.03525 -0.041798,-0.02127 -0.03125,-0.0625 0.00177,-0.030292 0.012468,-0.05078 0.03125,-0.0625 -0.017932,0.020898 -0.044222,0.025842 -0.0625,0.03125 -0.00992,9e-4 -0.020882,0.00409 -0.03125,0 -0.00998,8.4e-4 -0.020852,0.00412 -0.03125,0 -0.010999,-0.00899 -0.01968,-0.048496 -0.03125,-0.0625 -0.017732,0.00809 -0.044379,-0.00719 -0.0625,0 -0.00234,-0.021937 0.026359,-0.01706 0.03125,-0.03125 0.00734,-0.021285 -0.00319,-0.035094 0,-0.0625 0.0012,-0.021225 -0.025595,-0.048284 -0.03125,-0.0625 -0.047306,0.021585 -0.1060362,0.017316 -0.15625,0.03125 -0.00261,0.020405 -0.022865,0.077884 -0.03125,0.09375 l -0.03125,0.03125 0,0.03125 c -0.00829,0.015807 -0.022835,0.046633 -0.03125,0.0625 0.083144,-0.012822 0.1721157,-0.03225 0.25,-0.0625 0.00298,0.010394 -0.00852,0.02198 0,0.03125 0.017129,0.018631 0.05868,0.027701 0.0625,0.0625 -0.00234,0.025363 -0.02858,0.042186 -0.03125,0.0625 -0.00237,0.025362 0.043481,0.067546 0.03125,0.09375 -0.00884,0.010849 -0.02248,0.020402 -0.03125,0.03125 -0.00838,0.015896 -0.042216,0.03441 -0.0625,0.03125 -0.020495,-0.00319 -0.01965,-0.017246 -0.03125,-0.03125 l -0.0625,-0.125 c -0.0073,0.025814 -0.038159,0.05526 -0.0625,0.0625 -0.034108,0.00814 -0.042339,0.00496 -0.03125,-0.03125 l 0,-0.03125 c -0.034558,-0.042191 -0.02293,-0.03305 -0.03125,-0.0625 -0.0061,-0.00947 -0.00781,-0.010515 0,-0.03125 -0.031872,0.00492 -0.061399,0.02903 -0.09375,0.03125 l 0,0.375 -0.03125,-0.03125 0,-0.03125 -0.0625,-0.0625 -0.03125,0 c 0.01773,-0.021757 0.05121,-0.083233 0,-0.09375 l 0,-0.03125 c -0.012188,-9e-4 -0.02056,-5.598e-4 -0.03125,0 l 0,0.15625 c 0.010999,0.00899 0.029657,0.047535 0.03125,0.0625 l -0.03125,0 0,0.0625 -0.0625,0 0.03125,-0.03125 0.03125,-0.03125 0,-0.0625 c -0.017008,-0.018631 -0.041317,0.014938 -0.03125,-0.03125 -0.041891,-0.016377 -0.026625,-0.061235 0,-0.09375 0.013649,-0.013325 0.015214,-0.03041 0.03125,-0.03125 l 0,-0.15625 c -0.107605,-0.00766 -0.2063461,-0.022778 -0.3125,-0.0625 -0.1490291,-0.055737 -0.2975048,-0.1469518 -0.40625,-0.25 l -0.5625,0.5625 c -0.032173,-0.031242 -0.063937,-0.060536 -0.09375,-0.09375 l -0.125,0.125 c 0.028742,0.032096 0.062964,0.063349 0.09375,0.09375 z m 0.03125,-0.21875 0.5625,-0.5625 c -0.1123794,-0.1355252 -0.1459271,-0.2982055 -0.1875,-0.46875 0.0086,-0.0014 0.021829,0.00587 0.03125,0 0.017249,-0.026655 0.035995,-0.092455 0.0625,-0.125 0.00513,-0.00626 0.024112,0.00504 0.03125,0 -0.012137,-0.084974 -0.010807,-0.162662 0,-0.25 l -0.0625,-0.03125 -0.0625,0 c 0.01208,-0.026234 0.03275,-0.059825 0.0625,-0.0625 0.014935,-0.00132 0.021844,0.00589 0.03125,0 0.019323,-0.00679 0.017307,-0.019981 0.03125,-0.03125 -0.010843,0.041868 0.0052,0.082962 0,0.125 l 0.03125,0 0.0625,0 0.0625,0 c -0.00619,0.03567 -0.034823,0.071182 -0.0625,0.09375 -0.018811,0.011749 -0.05466,0.041735 -0.0625,0.0625 -0.00328,0.015416 0.020852,0.02722 0.03125,0.03125 -0.030652,0.037633 -0.038706,0.045704 -0.0625,0.0625 0.049447,0.3461761 0.2435911,0.6502317 0.59375,0.78125 0.2025322,0.07578 0.4313181,0.053746 0.625,0 0.00962,-0.051116 -0.00132,-0.058501 0,-0.09375 0.00505,-0.045708 0.00631,-0.065289 0,-0.125 -0.00324,-0.02984 0.0036,-0.071182 0.03125,-0.09375 l 0,-0.0625 c 0.010383,0.00409 0.026979,-0.00464 0.03125,0 0.020434,0.00325 0.045972,-0.013673 0.0625,0 0.013884,-0.01136 0.015804,-0.00364 0.03125,0 l 0.03125,0 c 0.020044,-0.00177 0.073346,0.02809 0.09375,0.03125 0.025303,0.00271 0.041014,-0.013192 0.0625,0 -0.012378,-0.010192 0.010239,-0.05509 0,-0.0625 0.010007,-8.71e-4 0.02734,-0.020853 0.03125,-0.03125 l 0.03125,-0.03125 c 0.013343,-0.016198 0.017877,-0.015053 0.03125,-0.03125 -2.625e-4,-0.00814 0.00658,-0.016765 0,-0.03125 l 0.0625,0 0.0625,-0.03125 c -0.020374,-0.00318 -0.042126,0.00313 -0.0625,0 l -0.03125,-0.03125 c -0.025844,-0.00766 -0.035484,0.01767 -0.0625,0 -0.048441,-0.030797 -0.030556,-0.014031 -0.0625,-0.03125 -0.00556,-0.00448 9.616e-4,-0.02139 0,-0.03125 -0.00129,-0.00995 -0.00998,-0.030379 0,-0.03125 0.032653,-0.00293 0.050006,-0.00227 0.0625,0 l 0.0625,-0.03125 c -0.01697,0.018073 -0.050928,0.00138 -0.0625,0 l 0.03125,-0.0625 c -0.034077,0.00808 -0.08368,0.042609 -0.125,0.03125 -0.035821,-0.00676 -0.00982,-0.049338 -0.03125,-0.0625 -0.015987,-0.0086 -0.036656,0.00772 -0.0625,0 l -0.125,-0.03125 0,-0.03125 c -0.02936,0.00779 -0.038159,-0.00724 -0.0625,0 l 0,-0.03125 c 0.036963,-0.028428 0.080886,-0.05351 0.125,-0.0625 l 0.0625,-0.03125 0,-0.03125 c -0.00413,-0.00339 7.8e-4,-0.023767 0,-0.03125 -9.58e-4,-0.00995 0.043994,-0.07155 0,-0.0625 l -0.03125,0 c 5.36e-4,-0.015121 -0.00734,-0.046724 0,-0.0625 0.021824,-0.030201 0.01473,-0.044526 0.03125,-0.0625 l 0,-0.03125 c -0.0214,-0.013162 -0.02356,-0.00685 -0.03125,-0.03125 -0.033085,0.018031 -0.078665,0.02993 -0.09375,0.03125 -0.014846,0.00135 -0.02524,-0.02178 -0.03125,-0.03125 -0.030592,-0.052529 0.00267,-0.037588 0,-0.0625 0.00232,-0.025333 -6.912e-4,-0.022262 0,-0.0625 -0.029751,0.00271 -0.08507,0.00313 -0.09375,-0.03125 -0.00159,-0.014935 0.0378,-0.048015 0.03125,-0.0625 l -0.03125,0 -0.0625,-0.03125 -0.03125,-0.03125 0,0.0625 c -0.014845,0.00126 -0.046423,0.00868 -0.0625,0 -0.025783,-0.00766 -0.05481,-0.038009 -0.0625,-0.0625 -0.00709,-0.019473 -0.02849,-0.100118 -0.03125,-0.125 -0.00475,-0.044806 -0.017342,-0.079356 0.03125,-0.09375 l -0.03125,-0.0625 c -0.00667,-0.014424 -0.013793,-0.019981 0,-0.03125 -0.185538,0.00242 -0.3460342,0.089019 -0.5,0.1875 0.018812,-0.01175 0.045942,0.017637 0.0625,0.03125 0.021937,0.018181 0.037167,0.02849 0.0625,0.03125 -0.015416,-0.00367 0.077465,-0.00135 0.0625,0 l 0.03125,0 c 0.018812,-0.01178 0.013878,-0.048076 0.0625,-0.0625 l 0.03125,-0.0625 c 0.016402,-0.020093 0.066944,-0.013359 0.09375,-0.03125 -0.00874,0.010849 -0.05367,0.051622 -0.0625,0.0625 l 0.0625,0 0,0.0625 -0.03125,0.0625 c 0.02101,0.00814 0.013883,0.019981 0,0.03125 -0.013163,0.016224 -0.042156,0.03441 -0.0625,0.03125 0.00258,0.024942 0.00337,0.047144 0,0.0625 -0.00394,0.010457 -0.02251,0.020342 -0.03125,0.03125 -0.013372,0.016287 -0.012528,0.05081 -0.03125,0.0625 -0.019293,0.00686 -0.042636,-0.0018 -0.0625,0 -0.014455,0.00634 -0.016916,-0.00628 -0.03125,0 -0.010097,9.1e-4 -0.02193,0.02542 -0.03125,0.03125 -0.038645,0.013583 -0.011293,0.072988 -0.0625,0.0625 -0.011119,0.036177 -0.035935,-0.00129 -0.0625,0.03125 l 0,0.03125 c 0.00544,0.00457 0.02572,-0.00457 0.03125,0 0.012561,0.023951 0.02978,0.05989 0,0.0625 l 0,0.03125 c 0.00223,-0.00617 0.025706,0.00677 0.03125,0 0.00694,-0.00564 -0.00849,-0.028602 0,-0.03125 -0.00127,0.00225 0.033071,-0.00167 0.03125,0 l 0,0.0625 c -0.025337,-0.00273 -0.03447,0.00141 -0.03125,0.03125 -0.030178,-0.00101 -0.037942,-0.043999 -0.03125,-0.0625 l -0.03125,0 c -0.014947,-0.00424 -0.039681,-0.00541 -0.0625,0 l 0,-0.03125 c -0.014746,0.015932 -0.063007,0.015293 -0.03125,0.03125 l 0,0.03125 c 0.025393,0.00273 0.00976,-0.013162 0.03125,0 0.00718,-0.02578 0.037708,0.00225 0.0625,0 l 0,0.03125 -0.03125,0 c 0.01211,0.018992 0.018812,0.01947 0,0.03125 0.00106,0.00998 -0.0012,0.0213 0,0.03125 0.00924,-0.019052 0.042952,-0.018361 0.0625,0 0.014334,-0.00634 0.046603,-0.00862 0.0625,0 0.026503,0.012651 0.012261,0.067486 0,0.09375 -0.010961,-0.00838 -0.051036,0.00944 -0.0625,0 0.034198,-0.00805 0.06421,0.063459 0.0625,0.09375 0.00367,0.034859 -0.02338,0.041645 -0.03125,0.0625 -0.00337,0.015356 0.00883,0.020342 0,0.03125 -0.013824,0.011269 -0.040413,0.00411 -0.0625,0.03125 -0.020435,0.025012 -0.042686,0.040262 -0.0625,0.0625 0.0015,0.014875 -0.02731,0.020822 -0.03125,0.03125 -0.00778,0.020765 -0.036175,0.075181 -0.0625,0.0625 -0.011059,-0.00901 -0.020913,-0.02707 -0.03125,-0.03125 -0.010548,-0.00406 -0.015804,0.00358 -0.03125,0 -0.010488,-0.00409 -0.016375,-0.03263 -0.03125,-0.03125 -0.015446,-0.00361 -0.043177,0.02452 -0.0625,0.03125 -0.00941,0.00586 -0.02524,0.0095 -0.03125,0 -0.00601,-0.00956 -0.00388,-0.020883 0,-0.03125 0.011089,-0.036151 0.00469,-0.061205 0.03125,-0.09375 0.018211,-0.016708 0.069499,-0.05529 0.09375,-0.0625 0.019323,-0.00679 0.029955,0.023019 0.0625,0 0.023352,-0.017219 0.016856,-0.05613 0.03125,-0.0625 0.00944,-0.00583 0.071573,-0.0042 0.09375,-0.03125 0.018182,-0.016738 -0.013793,-0.051201 0,-0.0625 0.013824,-0.011303 0.047565,0.00126 0.0625,0 -0.017196,-0.014161 -0.024654,-0.048015 -0.03125,-0.0625 -0.031433,0.010368 -0.040487,-0.012198 -0.03125,-0.03125 l -0.03125,0 c -0.00868,0.017746 -1.025e-4,0.037122 -0.03125,0.0625 -0.013884,0.011329 -0.048707,0.051261 -0.0625,0.0625 -0.014364,0.00637 -0.017397,-0.011269 -0.03125,0 -0.013734,0.011269 -0.016886,0.05619 -0.03125,0.0625 -0.014334,0.0064 -0.03468,-0.015804 -0.03125,-0.03125 -0.019762,0.014505 -0.049122,0.026988 -0.0625,0 l -0.03125,0 c 0.00349,-0.060613 0.041404,-0.056667 0.0625,-0.09375 0.00889,-0.010848 0.015233,-0.0399 0.03125,-0.03125 0.010427,0.00403 0.00976,0.018058 0.03125,0.03125 0.032485,0.022207 0.08696,-0.031758 0.09375,-0.0625 -0.00894,7.934e-4 0.00602,-0.031187 0,-0.03125 0.00559,0.00454 0.073977,-0.043453 0.09375,0 -0.01806,-0.028518 -0.028272,-0.03933 -0.0625,-0.03125 -0.014394,0.00634 -0.016315,-0.00132 -0.03125,0 l -0.0625,0 c -0.00481,0.00169 -0.026169,-0.00367 -0.03125,0 -0.015242,0.011018 -0.017141,0.053688 -0.03125,0.0625 0.00129,-0.035279 -0.020557,-0.077976 0.03125,-0.0625 -0.019172,-0.038525 -0.020609,-0.108682 -0.0625,-0.125 -0.020284,-0.00319 -0.053001,0.0064 -0.09375,0 -0.00287,0.020345 -0.017442,0.019958 -0.03125,0.03125 0.00626,-0.020866 -0.00773,-0.041798 0,-0.0625 0.077748,-0.2081767 0.2324151,-0.3575598 0.40625,-0.46875 l -0.09375,-0.0625 c 0.00883,-0.010818 0.010972,-0.022234 0,-0.03125 -0.011029,-0.00911 -0.041073,-0.018087 -0.0625,-0.03125 -0.04916,0.035896 -0.081756,0.08136 -0.125,0.125 l 0.03125,0.03125 -0.09375,0.125 -0.03125,-0.03125 c -0.064311,0.085951 -0.1480565,0.1756133 -0.1875,0.28125 -0.043451,0.1163775 -0.026057,0.2259519 -0.03125,0.34375 l 0,0.125 -0.03125,0 c 0.00214,0.030812 -0.00458,0.063371 0,0.09375 0.00483,0.032067 0.023777,0.062325 0.03125,0.09375 -0.016468,-0.013613 -0.02909,-0.042697 -0.03125,-0.0625 -0.00607,-0.00959 0.00102,-0.02139 0,-0.03125 9.53e-5,-0.023944 -0.025573,-0.045843 -0.03125,-0.0625 -0.00225,0.025328 -0.014241,0.018571 -0.03125,0 l -0.0625,0.0625 -0.0625,-0.09375 -0.625,0 c 0.0195,0.4575146 0.1960219,0.8801016 0.5,1.21875 z m -0.5,-1.21875 c -0.00181,-0.042525 -9.822e-4,-0.082188 0,-0.125 l -0.0625,0 -0.09375,0 c -7.431e-4,0.042342 -0.00179,0.082923 0,0.125 l 0.03125,0 0,-0.03125 0.03125,-0.03125 0.03125,-0.03125 c 0.01313,0.028969 0.0018,0.032179 0,0.0625 l 0,0.03125 0.0625,0 z m -0.0625,0 -0.0625,0 0,0.03125 0.03125,0.09375 c 0.012772,-0.021216 0.028936,-0.099668 0.03125,-0.125 z m -0.09375,-0.125 c 0.00279,-0.1590739 0.022316,-0.3094578 0.0625,-0.46875 -0.00838,0.015807 -0.037678,0.02903 -0.0625,0.03125 -0.024792,0.00222 -0.049666,-0.04021 -0.09375,-0.03125 -0.043724,0.013973 -0.08822,0.084281 -0.09375,0.125 l 0,0.09375 c -0.00234,0.025303 -0.01352,0.040803 -0.03125,0.0625 -0.01761,0.021637 -0.02782,0.015864 -0.03125,0.03125 0.00171,0.014905 0.02251,0.028092 0.03125,0.0625 l 0.03125,0.09375 0.1875,0 z m -0.1875,0 -0.5,0 c -6.456e-4,0.043024 -0.00133,0.082176 0,0.125 l 0.5,0 c 0.00254,-0.026378 0.00735,-0.060484 0,-0.09375 l 0,-0.03125 z m -0.5,0 c 0.00271,-0.1804341 0.023696,-0.350154 0.0625,-0.53125 -0.027823,0.012503 -0.041224,0.067739 -0.0625,0.09375 -0.066442,0.081347 -0.074154,0.053993 -0.125,0.09375 l -0.03125,0.0625 c -0.010591,0.092862 -0.029466,0.1888213 -0.03125,0.28125 l 0.1875,0 z m 0.0625,-0.53125 c 0.00696,-0.00313 0.022109,-0.00118 0.03125,0 0.035825,0.00685 0.011567,0.050327 0.03125,0.09375 l 0.03125,-0.03125 c 0.00404,-0.00917 0.026739,0.00394 0.03125,0 0.035194,0.04712 0.049819,0.100989 0.0625,0.125 0.00709,0.019502 -0.00769,0.00682 0,0.03125 0.00207,0.019923 0.014181,0.043989 0.03125,0.0625 0.027496,0.022684 0.062858,-0.00733 0.09375,0 0.025333,0.00277 0.029895,0.054299 0.0625,0.03125 0.00445,-0.00547 0.02686,-0.02581 0.03125,-0.03125 0.029961,-0.047931 -0.03245,-0.058501 -0.03125,-0.09375 0.00279,-0.020404 0.049728,-0.103784 0.0625,-0.125 l 0.0625,-0.0625 c 0.00845,-0.015837 0.017457,-0.019981 0.03125,-0.03125 0.00941,-0.00592 0.016946,-0.02494 0.03125,-0.03125 0.014304,-0.00625 0.08488,-0.020462 0.09375,-0.03125 0.013192,-0.016318 -0.0037,-0.045428 0.03125,-0.09375 0.048141,-0.064669 0.125268,-0.118296 0.15625,-0.15625 -0.031698,0.064191 -0.068164,0.1189937 -0.09375,0.1875 -0.00747,0.020013 0.00683,0.042409 0,0.0625 0.024672,0.043093 0.060213,0.030346 0.09375,0.0625 l 0.03125,0.03125 c -0.013162,0.04156 -0.020977,0.083202 -0.03125,0.125 0.010428,0.00411 0.02533,-0.00953 0.03125,0 0.01226,0.019023 0.00285,0.073376 0,0.09375 -0.0029,0.013259 -0.026943,0.018906 -0.03125,0.03125 -0.020671,0.059249 -0.035392,0.1309966 -0.0625,0.1875 -0.00234,0.032208 7.366e-4,0.061641 0,0.09375 l 0.53125,0 c -0.016408,-0.013583 -0.041615,-0.02305 -0.0625,-0.03125 -0.030832,-0.00727 -0.035034,-0.00865 -0.0625,-0.03125 -0.028518,-0.032635 -0.028993,-0.124036 -0.0625,-0.15625 -0.038525,-0.031675 -0.117064,-0.0085 -0.15625,0 -0.024251,0.00712 -0.02302,-0.00183 -0.03125,-0.03125 -0.00598,-0.00953 -0.030348,-0.021243 -0.03125,-0.03125 0.02365,-0.01217 0.064481,-0.02362 0.09375,-0.03125 0.019864,-0.0018 0.043688,0.01172 0.0625,0 0.023139,-0.017129 0.018479,-0.041254 0.03125,-0.0625 0.011118,-0.036211 0.051411,-0.057629 0.0625,-0.09375 0.00622,-0.03576 -0.015536,-0.0521 0,-0.09375 0.011269,-0.036182 0.014632,-0.062167 0.03125,-0.09375 0.01166,-0.031222 0.00322,-0.032599 0,-0.0625 0.00334,-0.015417 0.03227,-0.05252 0.03125,-0.0625 -0.0082,-0.029389 -0.045401,-0.012709 -0.0625,-0.03125 -0.011539,-0.014034 -0.00363,-0.039842 -0.03125,-0.0625 -0.027211,-0.020179 -0.059004,-0.034368 -0.09375,-0.03125 -0.044133,0.078789 -0.091285,0.1635497 -0.125,0.25 -0.00709,-0.019473 -0.023527,-0.038069 -0.03125,-0.0625 -0.00156,-0.014935 -0.00836,-0.015473 0,-0.03125 0.01172,-0.031223 0.039782,-0.071603 0.0625,-0.09375 0.022433,-0.024656 0.059004,-0.059382 0.09375,-0.0625 0.054805,-0.09784 0.1185274,-0.1960901 0.1875,-0.28125 -0.021396,-0.013162 -0.043659,-0.01172 -0.0625,0 -0.033597,0.013072 -0.061115,0.039451 -0.09375,0.0625 -0.060733,0.040629 -0.1124961,0.09702 -0.15625,0.15625 0.071483,-0.1270609 0.1254249,-0.2679972 0.21875,-0.375 l -0.46875,-0.5 c -0.2372256,0.258692 -0.4321566,0.5572772 -0.5625,0.90625 -0.049081,0.1314313 -0.065199,0.2730054 -0.09375,0.40625 z m 0.65625,-1.3125 c 0.029464,-0.03213 0.062936,-0.063149 0.09375,-0.09375 l -0.125,-0.125 c -0.031177,0.031046 -0.063882,0.061224 -0.09375,0.09375 l 0.125,0.125 z m 0.09375,-0.09375 0.5,0.5 c 0.374051,-0.3714184 0.8785789,-0.6024551 1.40625,-0.625 l 0,-0.6875 c -0.7113457,0.022152 -1.4027454,0.3124758 -1.90625,0.8125 z m 1.90625,-0.8125 c 0.053476,-0.00167 0.1024732,-0.00143 0.15625,0 l 0,-0.1875 c -0.053831,-0.00123 -0.1027076,-0.0017 -0.15625,0 l 0,0.1875 z m 0.15625,0 0,0.6875 c 0.2239632,0.00732 0.4348368,0.042154 0.65625,0.125 0.2737923,0.1024505 0.518961,0.2481686 0.71875,0.4375 l 0.40625,-0.40625 c 0.00313,0.029901 0.063519,0.091496 0.09375,0.09375 l 0,-0.09375 c -0.0116,-0.014034 -0.045371,-0.012706 -0.0625,-0.03125 l -0.03125,0 c -0.01202,-0.018992 -0.041495,-0.02311 -0.0625,-0.03125 -0.017513,-0.010208 -0.045642,-0.013963 -0.0625,-0.03125 l -0.0625,-0.0625 c -0.01148,-0.014004 -0.05535,-0.042997 -0.0625,-0.0625 -0.0015,-0.014965 0.0229,-0.046633 0.03125,-0.0625 0.00838,-0.015837 0.011988,-0.02446 0.03125,-0.03125 -0.2077173,-0.1549186 -0.4327618,-0.279694 -0.6875,-0.375 -0.2991108,-0.1119297 -0.6038347,-0.1481842 -0.90625,-0.15625 z m 1.8125,0.8125 0.03125,-0.03125 c 0.015732,0.015154 0.015905,0.047009 0.03125,0.0625 0.01534,0.015491 0.04755,0.015431 0.0625,0.03125 l 0.125,-0.125 c -0.03042,-0.032044 -0.06182,-0.062999 -0.09375,-0.09375 l -0.125,0.09375 c -0.037179,-0.035234 -0.085738,-0.060457 -0.125,-0.09375 0.00608,0.010127 -0.00306,0.026485 0,0.03125 l 0.09375,0.125 z m -0.09375,-0.15625 c 0.010017,-0.00307 0.025264,-0.030709 0.03125,-0.03125 l -0.125,-0.0625 c 0.034533,0.026607 0.060664,0.065694 0.09375,0.09375 z m 0.2187508,0.21875 -0.0625,0.0625 -0.4062504,0.40625 c 0.097364,0.104354 0.1760393,0.2231257 0.25,0.34375 0.034571,0.0023 0.074502,-0.00577 0.09375,0 0.042522,0.021306 0.095971,0.056157 0.1250004,0.09375 0.02317,0.028097 0.07176,0.1068731 0.09375,0.125 0.02698,0.01764 0.04213,-0.00319 0.0625,0 0.01993,-0.00189 0.02915,0.042576 0.03125,0.0625 -0.0029,0.020375 -0.04723,0.00367 -0.0625,0 0.0047,0.044836 0.03446,0.066103 0.0625,0.09375 0.011,0.00902 0.02195,0.03708 0.03125,0.03125 0.01481,-0.00135 0.02795,-0.047114 0.03125,-0.0625 0.0062,-0.0357 -0.0019,-0.10697 0.03125,-0.125 0.03762,-0.02353 0.07115,0.039361 0.09375,0.0625 0.01133,0.014063 0.0607,0.078815 0.0625,0.09375 0.006,0.00956 -0.02845,0.042156 -0.03125,0.0625 -0.01004,0.046158 6.31e-4,0.084702 0,0.125 0.0011,0.010007 0.02535,0.02172 0.03125,0.03125 0.01211,0.018958 0.04149,0.037113 0.0625,0 0.01718,-0.026655 0.02945,-0.063429 0.03125,-0.09375 -0.0031,-0.02993 -0.01716,-0.067125 0,-0.09375 0.0078,-0.020766 0.03936,-0.059348 0.0625,-0.03125 0.012,0.018992 0.0023,0.068387 0,0.09375 -0.0074,0.07104 -0.01184,0.073012 -0.03125,0.125 -0.0078,0.020825 -0.01244,0.05075 -0.03125,0.0625 -0.0192,0.00673 -0.04321,-0.00673 -0.0625,0 -0.02491,0.00231 -0.04985,0.041254 -0.0625,0.0625 -0.02491,0.04748 0.03065,0.082088 0,0.125 -0.0082,0.01584 -0.01304,0.014512 -0.03125,0.03125 -0.02278,0.022177 -0.0103,0.056667 -0.03125,0.09375 -0.01331,0.016257 -0.03355,0.011326 -0.03125,0.03125 9.3e-4,0.00998 -0.0071,0.011837 0,0.03125 8.37e-4,0.00747 -4.62e-4,0.023752 0,0.03125 l 0.46875,0 c -0.004,-0.2043079 -0.01529,-0.3977349 -0.0625,-0.59375 -0.01358,0.042672 -0.05071,0.1024442 -0.0625,0.15625 -0.01,0.046158 -0.0051,0.118687 -0.03125,0.15625 l -0.03125,-0.09375 0.03125,-0.1875 c -8.7e-4,-0.055203 -0.0244,-0.103811 0,-0.15625 0.0039,-0.010367 0.0016,-0.016315 0,-0.03125 0.0017,-0.00771 -0.0017,-0.042877 0,-0.0625 -0.01969,-0.060006 -0.03887,-0.1290029 -0.0625,-0.1875 l -0.03125,0.03125 c -0.0039,0.010457 0.0094,0.05661 0,0.0625 -0.01436,0.00628 -0.02028,-0.02223 -0.03125,-0.03125 -0.01211,-0.018962 -0.02782,-0.020369 -0.0625,-0.0625 -0.03964,-0.04165 -0.08101,-0.088759 -0.125,-0.125 l -0.0625,-0.03125 c -0.02803,-0.027616 -0.03224,-0.08963 -0.03125,-0.125 l 0.0625,0.03125 0,-0.0625 0.0625,0.03125 c 0.04117,0.011389 0.05465,-0.00544 0.09375,0.03125 -0.02634,-0.050279 -0.03316,-0.1076033 -0.0625,-0.15625 -0.01107,0.019229 -0.05283,0.05912 -0.0625,0.0625 -0.02933,0.00763 -0.04056,-0.013129 -0.0625,-0.03125 -0.02813,-0.027586 -0.07016,-0.060664 -0.09375,-0.09375 l -0.0625,-0.0625 c 0.02993,-0.00261 0.07124,0.00817 0.09375,0.03125 0.0067,0.0081 0.02633,-0.00732 0.03125,0 l 0.03125,0 c 3.97e-4,-0.010203 0.02895,-0.022176 0.03125,-0.03125 -0.08361,-0.1226572 -0.178481,-0.2350396 -0.28125,-0.34375 z m 0.28125,0.34375 c 0.0086,0.034378 0.03245,0.058501 0.03125,0.09375 0.01472,-0.00129 0.01535,-0.00859 0.03125,0 -0.02006,-0.032141 -0.04114,-0.062409 -0.0625,-0.09375 z m 0.34375,0.71875 c 0.02366,0.072112 0.07594,0.1447929 0.09375,0.21875 0.01358,-0.042672 0.0072,-0.089042 0,-0.15625 -0.0032,-0.02987 -0.02681,-0.086839 -0.0625,-0.09375 -0.02784,-0.00251 -0.0296,0.011627 -0.03125,0.03125 z m 0.15625,0.8125 c 10e-4,0.053599 0.0021,0.1023744 0,0.15625 l 0.1875,-0.03125 c 9.79e-4,-0.043107 8.98e-4,-0.082071 0,-0.125 l -0.1875,0 z m 0,0.15625 -0.40625,0 c 0.0069,0.01345 0.01893,6.974e-4 0.03125,0.03125 0.01908,0.038495 0.03939,0.128153 0.0625,0.15625 0.01872,0.033537 0.03645,0.0235 0.0625,0.03125 0.01052,0.00406 0.02535,0.02178 0.03125,0.03125 0.0116,0.014004 0.03905,0.072985 0.03125,0.09375 -0.0067,0.030802 -0.03431,0.07605 -0.0625,0.09375 l -0.125,0.0625 c -0.02422,0.00718 -0.09519,-0.0027 -0.125,0 0.0089,0.043123 0.0036,0.06685 -0.03125,0.09375 -0.01287,0.066503 -0.06436,0.072081 -0.09375,0.125 l -0.0625,0.1875 c -0.0128,0.021276 -0.04925,0.077463 -0.0625,0.09375 0.01794,-0.012256 0.04303,-0.010926 0.0625,-0.03125 0.04093,-0.038886 0.0582,-0.00857 0.0625,0.03125 l 0,0.09375 c 0.0069,0.06467 -0.01235,0.099184 -0.03125,0.15625 l 0,0.09375 -0.0625,0.09375 c -0.01497,0.046549 -0.0518,0.158591 -0.09375,0.1875 -0.051567,0.034824 -0.075206,-0.03573 -0.1250004,-0.03125 l -0.09375,0.03125 0.15625,0.15625 c 0.024882,-0.0023 0.074968,-0.05078 0.09375,-0.0625 l 0.0625,-0.03125 c 0.01941,-0.0068 0.0548,-0.02437 0.0625,0 -0.04765,0.0563 -0.104674,0.104255 -0.156251,0.15625 l 0.125001,0.125 c 0.125506,-0.126712 0.241398,-0.256011 0.34375,-0.40625 0.0017,-0.03169 0.0045,-0.06144 0,-0.09375 l -0.03125,-0.125 c -0.02254,0.037247 -0.06966,0.057838 -0.09375,0.09375 0.01205,-0.026174 0.03326,-0.11731 0.0625,-0.125 0.01941,-0.00676 0.02465,0.016736 0.03125,0.03125 0.0896,-0.1480406 0.156002,-0.3007245 0.21875,-0.46875 0.107842,-0.2887596 0.14509,-0.5828043 0.15625,-0.875 z m -0.812501,1.84375 -0.0625,-0.0625 c -0.019834,0.0018 -0.033261,-0.0076 -0.0625,0 -0.019894,0.0019 -0.047023,0.0037 -0.0625,0 -0.020374,-0.00316 -0.042006,-0.028155 -0.0625,-0.03125 l 0.15625,0.1875 c 0.032036,-0.02941 0.06302,-0.06277 0.09375,-0.09375 z m 0.406251,-1.84375 c -0.01611,-0.031383 -0.01774,-0.066825 -0.03125,-0.09375 -0.0088,-0.016808 -0.03017,-0.045004 -0.03125,-0.0625 l -0.21875,0 c 0.0015,0.052694 0.0025,0.1032036 0,0.15625 l 0.28125,0 z m -0.28125,0 -0.156251,0 c -0.0108,0.1930922 -0.053819,0.4031344 -0.1249998,0.59375 -0.089277,0.2389707 -0.2450891,0.4151872 -0.40625,0.59375 -0.011088,-0.00913 -0.048196,-0.00628 -0.0625,0 l 0.03125,0.0625 c 0.00301,-0.00435 0.028746,0.0041 0.03125,0 l 0.09375,0.125 c 0.2030417,-0.2059826 0.3609934,-0.4615923 0.4687498,-0.75 0.07884,-0.211178 0.114791,-0.4111822 0.125001,-0.625 z m -0.5937508,1.375 c -0.030376,0.030816 -0.06168,0.064979 -0.09375,0.09375 l 0.125,0.15625 c -0.00502,5.1e-4 -0.02626,-3.91e-4 -0.03125,0 -0.048682,0.01445 0.0073,0.06794 0,0.09375 0.00114,0.01004 -0.02184,0.02536 -0.03125,0.03125 0.051327,0.01046 0.137916,0.03579 0.1875,0.03125 0.00862,-0.0037 0.018135,-0.02923 0.03125,-0.03125 l -0.125,-0.125 0.0625,0 0.03125,0 c 0.025363,0.0028 0.027731,0.0031 0.0625,0 l -0.21875,-0.25 z m 0.4374998,-1.375 c 0.003,-0.053637 0.0014,-0.1029878 0,-0.15625 l -0.8124998,0 c 0.00215,0.050361 -0.026652,0.1053557 -0.03125,0.15625 l 0.8437498,0 z m -0.8437498,0 -0.03125,0 0,-0.15625 0.0625,0 c -0.011466,-0.2687858 -0.1025456,-0.519914 -0.28125,-0.71875 l -0.0625,0.0625 -0.09375,-0.09375 0.0625,-0.0625 c -0.053197,-0.04695 -0.1250427,-0.087973 -0.1875,-0.125 -0.026686,-0.01582 -0.065473,-0.01746 -0.09375,-0.03125 -0.00841,0.015867 -0.042637,0.029507 -0.0625,0.03125 -0.00941,0.00586 -0.020762,0.00411 -0.03125,0 l 0,-0.03125 c 0.00225,-0.025333 -0.012017,-0.0067 -0.03125,0 -0.017634,0.00461 -0.049559,-0.010692 -0.0625,0 0.018271,-0.016678 0.03882,-0.050329 0.0625,-0.0625 -0.020939,-0.00717 -0.041437,0.0059 -0.0625,0 0.028061,-0.00399 0.053208,-0.042343 0.0625,-0.0625 0.00727,-0.025784 -0.024464,-0.06749 0.03125,-0.0625 0.00331,-0.015326 -0.013703,-0.050931 0,-0.0625 0.014395,-0.00628 0.043718,0.01175 0.0625,0 0.051988,-0.029841 0.01703,-0.030526 0.09375,-0.0625 0.010939,0.054332 0.01028,0.153603 -0.03125,0.1875 -0.013824,0.011269 -0.043718,0.01947 -0.0625,0.03125 l -0.0625,0.03125 c 0.03518,0.013162 0.06066,0.046363 0.09375,0.0625 0.00874,-0.010758 9.015e-4,-0.02127 0,-0.03125 0.014815,-0.00132 0.08215,0.017276 0.09375,0.03125 0.0055,0.00463 -0.016528,0.017727 0,0.03125 0.016017,0.00866 0.041675,-0.00814 0.0625,0 0.036812,0.016858 0.064898,0.062861 0.125,0.0625 l 0.09375,-0.03125 -0.09375,0.09375 c 0.033301,0.029391 0.064321,0.061006 0.09375,0.09375 l 0.40625,-0.40625 c -0.014636,-0.012089 -0.012408,-0.023875 -0.03125,-0.03125 -0.038585,-0.016628 -0.090315,-0.00536 -0.125,0 l -0.1875,0.1875 0.03125,0.0625 c -0.034228,0.00808 -0.0329,-0.00261 -0.0625,0 l 0.03125,-0.0625 c -0.011058,-0.00899 -0.05382,-0.028062 -0.0625,-0.0625 -0.00107,-0.00995 -0.00383,-0.023921 0,-0.03125 -0.017609,0.021666 -0.03365,0.025333 -0.03125,0 -0.00189,-0.014935 -0.00832,-0.046723 0,-0.0625 l 0.03125,-0.0625 c 0.00559,0.00454 0.02626,4.508e-4 0.03125,0 0.024249,-0.00724 0.02828,-0.042095 0.03125,-0.0625 l 0.03125,0 c -0.0046,0.050636 -0.041975,0.082959 -0.0625,0.125 -0.012831,0.021246 -0.012829,0.045732 -0.03125,0.0625 0.01149,-0.021987 0.045867,-0.010898 0.0625,-0.03125 0.0082,-0.015777 0.043688,-0.05069 0.0625,-0.0625 0.02377,-0.01217 0.037708,0.00222 0.0625,0 0.01801,-0.00329 0.045157,0.00268 0.0625,0 l 0.1875,-0.1875 c -0.030862,-0.00727 -0.020699,0.016378 -0.0625,0 -0.020374,-0.00325 -0.043298,-0.00679 -0.0625,0 -0.039727,0.00349 -0.024393,0.025 -0.09375,0.03125 -0.011778,0.012608 -0.02426,0.026878 -0.03125,0.03125 -0.019443,0.00673 -0.033832,0.018629 -0.0625,0.03125 l -0.03125,-0.0625 -0.0625,-0.03125 c 0.024671,-0.00216 0.104055,-0.00826 0.125,0 0.021035,0.00814 0.046002,0.017607 0.0625,0.03125 -0.00211,-0.019923 -0.013433,-0.077553 0,-0.09375 0.013523,-0.011269 0.017998,0.016257 0.03125,0 0.02377,-0.012201 0.032239,-0.03356 0.0625,-0.03125 0.025393,0.00274 0.072264,0.018088 0.09375,0.03125 -0.171557,-0.1484857 -0.3377174,-0.2908961 -0.5625,-0.375 -0.2010031,-0.075207 -0.4215929,-0.1169645 -0.625,-0.125 l 0,0.84375 c 0.033359,0.0024 0.060343,0.025851 0.09375,0.03125 l -0.09375,0.03125 c -0.013883,0.011269 -0.011386,0.029477 -0.03125,0.03125 -0.014875,0.00135 -0.053605,0.020376 -0.0625,0.03125 0.1188028,-0.00155 0.2570899,0.018358 0.375,0.0625 0.4815891,0.1800962 0.6951786,0.700676 0.5625,1.1875 0.020434,0.00316 0.064634,0.037167 0.0625,0.0625 -0.00445,0.00547 -0.026897,0.025841 -0.03125,0.03125 -0.00338,-0.00724 -0.027358,0.00717 -0.03125,0 -0.047683,0.127648 -0.1306445,0.219353 -0.21875,0.3125 0.00586,0.00199 -0.00742,0.031881 0,0.03125 l -0.0625,0.0625 -0.03125,-0.03125 c 0.00603,-0.00498 -0.00592,-0.026118 0,-0.03125 -0.02374,0.0122 -0.068297,0.00279 -0.09375,0 l 0.0625,0.03125 c -0.049305,0.038582 -0.069617,0.096517 -0.125,0.125 0.00568,0.012069 0.029927,0.018809 0.03125,0.03125 l 0,0.0625 c -0.0027,0.020525 -0.034019,0.037648 -0.03125,0.0625 0.00706,0.019473 0.024729,0.016736 0.03125,0.03125 0.09289,-0.042384 0.170917,-0.090544 0.25,-0.15625 l -0.0625,-0.0625 0.09375,-0.09375 0.0625,0.0625 c 0.1029585,-0.108855 0.1942709,-0.2258281 0.25,-0.375 0.036966,-0.099029 0.022173,-0.2120334 0.03125,-0.3125 z m -0.28125,0.6875 c -0.031722,0.033539 -0.058533,0.06449 -0.09375,0.09375 l 0.46875,0.46875 c 0.00155,-0.00307 0.029575,0.00315 0.03125,0 0.043249,-0.00798 0.058917,-0.047642 0.09375,-0.0625 l -0.5,-0.5 z m -0.21875,-0.09375 c 0.017759,-0.015397 0.045811,-0.014537 0.0625,-0.03125 -0.007,-0.00844 -0.029276,-0.014791 -0.03125,-0.03125 0.00386,0.0185 -0.010034,0.05054 -0.03125,0.0625 z m 0.3125,-0.4375 c -0.015536,-0.00364 -0.046453,0.00862 -0.0625,0 -0.016189,0.013028 -0.070626,0.00541 -0.09375,0 l 0.0625,0.03125 c 0.03579,0.00688 0.065292,-0.00145 0.09375,0.03125 0.00653,-0.019264 -0.00528,-0.043117 0,-0.0625 z m -0.84375,-1.3125 0,-0.0625 c -0.054129,-0.0039 -0.1028402,-0.034964 -0.15625,-0.03125 l 0,0.09375 0.15625,0 z m -0.15625,-0.09375 0,-0.8125 c -0.4948663,0.021135 -0.9644328,0.2110392 -1.3125,0.5625 l 0.0625,0.09375 c -0.00938,0.00568 -9.9e-4,0.021333 0,0.03125 0.014965,-0.00129 0.021333,8.7e-4 0.03125,0 l 0,-0.03125 c 0.024615,-0.00387 0.051709,-0.033798 0.0625,-0.03125 0.015446,0.00367 0.011417,0.03305 0.03125,0.03125 0.019864,-0.00174 0.046573,-0.00859 0.0625,0 0.010453,0.00406 0.03023,0.0213 0.03125,0.03125 0.019894,-0.00177 0.042096,-0.00313 0.0625,0 0.031343,0.012291 0.067846,0.02353 0.09375,0.03125 0.030982,0.00731 0.05796,-0.00685 0.09375,0 0.025362,0.00274 0.040473,0.044409 0.0625,0.0625 0.016468,0.013643 0.050991,0.017216 0.0625,0.03125 0.011543,0.014034 -0.00658,0.016766 0,0.03125 0.013609,0.033958 0.02707,0.053933 0.03125,0.09375 0.00484,0.044805 -0.00727,0.062016 0.03125,0.09375 0.1748849,-0.1276997 0.3758971,-0.2036017 0.59375,-0.21875 z m -1.3125,-0.25 -0.09375,-0.09375 c -0.035617,0.035367 -0.091805,0.05569 -0.125,0.09375 l 0.125,0.125 c 0.032964,-0.038943 0.058096,-0.088998 0.09375,-0.125 z m -0.09375,0.125 c -0.0091,0.010747 -0.022369,0.020284 -0.03125,0.03125 0.021036,0.00817 0.02719,0.02942 0.0625,0.03125 l -0.03125,-0.0625 z m 1.40625,-0.6875 c 0.053105,-0.00227 0.1027218,-0.00211 0.15625,0 l 0,-0.15625 c -0.052937,-0.00173 -0.1037062,-0.00224 -0.15625,0 l 0,0.15625 z m 1.375,0.5625 c 0.026353,0.010324 0.058044,0.075657 0.09375,0.09375 l -0.09375,0.125 c 0.026475,0.01263 0.042216,0.02809 0.0625,0.03125 0.015386,0.00364 0.047054,-0.00364 0.0625,0 0.010155,-0.046158 0.012949,-0.077012 0.03125,-0.09375 0.022569,-0.022057 0.041074,0.018088 0.0625,0.03125 0.010518,0.00409 0.0302,-0.00995 0.03125,0 -0.023092,-0.02954 -0.037679,-0.065498 -0.0625,-0.09375 0.00234,-0.025333 0.037921,-0.016796 0.03125,-0.03125 -0.00328,-0.00726 -0.016788,-0.03066 -0.03125,-0.03125 -0.014462,-5.899e-4 -0.028996,0.00592 -0.03125,0.03125 0.00534,0.0058 -0.00526,0.025389 0,0.03125 -0.018722,0.01169 -0.010395,0.0082 -0.03125,0 l 0,-0.03125 0.0625,-0.03125 0.0625,-0.09375 c -0.029432,-0.031545 -0.062292,-0.063938 -0.09375,-0.09375 l -0.09375,0.125 c -0.00139,-0.00557 -0.029143,0.00324 -0.03125,0 l -0.03125,0.03125 z m 0.25,0.1875 c 0.00222,0.019923 -0.017877,0.046183 -0.03125,0.0625 -0.00775,0.020825 0.00349,0.015864 0,0.03125 0.00147,0.014906 -0.03275,0.016285 -0.03125,0.03125 0.00222,0.019863 0.077823,0.0851 0.09375,0.09375 l -0.0625,0 c 0.028548,0.032635 0.083169,0.077402 0.125,0.09375 0.00469,-0.050636 -0.00201,-0.056156 -0.03125,-0.09375 -0.01202,-0.019052 -0.02419,-0.043057 -0.03125,-0.0625 0.036242,0.01178 0.035574,0.01364 0.0625,0.03125 0.0055,0.00457 0.025304,-0.00261 0.03125,0 -0.038923,-0.06348 -0.078966,-0.1286117 -0.125,-0.1875 z m 0.125,0.1875 c 0.00595,0.00261 -0.00723,0.034405 0,0.03125 0.1710299,0.2875011 0.2723268,0.5979109 0.2812498,0.9375 l 0.156251,0 c -0.01036,-0.3748238 -0.119409,-0.7475824 -0.3125008,-1.0625 -0.011523,-7.654e-4 -0.02545,-0.00431 -0.03125,0 -0.00331,-0.00158 -0.026337,-4.25e-4 -0.03125,0 -0.03576,-0.00682 -0.028906,0.037167 -0.03125,0.0625 6.12e-4,0.00597 -0.028893,0.023195 -0.03125,0.03125 z m -3.09375,0.96875 c 0.038525,0.031704 0.013791,0.039 0.03125,0.0625 0.016498,0.013553 0.045461,0.012766 0.0625,0.03125 l 0,0.03125 0.1875,0 c -0.00288,-0.041532 -0.00169,-0.082982 0,-0.125 l -0.28125,0 z m -0.53125,-0.09375 c 0.00234,-0.032208 -0.00396,-0.061496 0,-0.09375 -0.011289,0.021027 -0.027366,0.044863 -0.03125,0.0625 -0.011582,0.035651 -0.042391,0.097622 -0.03125,0.125 0.027046,-0.027496 0.045762,-0.062137 0.0625,-0.09375 z m 0,-0.09375 c 0.018236,-0.033966 0.050194,-0.064684 0.0625,-0.09375 0.015687,-0.041621 0.00478,-0.080194 0,-0.125 -0.018701,0.076093 -0.053125,0.1424145 -0.0625,0.21875 z m 1.0625,-0.4375 c 0.026504,-0.035422 0.032452,-0.093231 0.0625,-0.125 l -0.34375,-0.40625 c 0.051236,0.010427 0.029201,0.00583 0.09375,0 -0.02368,-0.033 -0.057839,-0.02443 -0.09375,-0.03125 l -0.09375,-0.03125 0.0625,0.0625 c -0.020285,0.00145 -0.039001,0.00126 -0.0625,0 -0.020435,-0.00319 -0.047054,-0.027642 -0.0625,-0.03125 l -0.09375,0.03125 0.53125,0.53125 z m 0,1.40625 c 0.02923,0.03525 0.060245,0.062 0.09375,0.09375 l 0.03125,-0.03125 -0.09375,-0.09375 -0.03125,0.03125 z m 0.8125,0.40625 c 0.053462,0.00381 0.1034933,0.03487 0.15625,0.03125 l 0,-0.125 -0.15625,0 0,0.09375 z m 0.15625,0.53125 c -0.00439,0.0056 -0.02678,-0.0053 -0.03125,0 l -0.0625,-0.03125 0,0.03125 c -0.024852,0.0023 -0.010815,0.0032 -0.03125,0 -0.00612,-0.0015 -0.022712,-3.76e-4 -0.03125,0 l 0,0.0625 c 0.00893,0.0038 0.027019,-0.0016 0.03125,0 0.063137,0.02957 0.058266,0.09738 0.03125,0.125 -0.018301,0.01665 -0.042126,0.0032 -0.0625,0 l 0,0.09375 c 0.053529,0.0021 0.1031446,0.0023 0.15625,0 l 0,-0.28125 z m 0,0.28125 0,0.03125 c 0.013943,-0.01361 0.042152,-0.02262 0.0625,-0.03125 -0.021002,0.0016 -0.041404,-9.01e-4 -0.0625,0 z m 0.0625,0 c 0.074381,-0.0056 0.1459851,-0.01733 0.21875,-0.03125 -0.012165,-0.01254 0.014257,-0.04596 0.03125,-0.0625 -0.010499,-0.0068 -0.019362,-0.03231 -0.03125,-0.03125 -0.02939,0.0076 -0.033291,0.02353 -0.0625,0.03125 -0.033716,0.01301 -0.069409,-0.0072 -0.09375,0 -0.033685,0.01307 -0.013009,0.04579 -0.03125,0.0625 -0.00897,0.0066 -0.018532,0.02586 -0.03125,0.03125 z m 0.25,-0.09375 0,0.0625 c 0.06065,-0.01261 0.1284889,-0.01305 0.1875,-0.03125 l -0.125,-0.03125 c -0.024827,-0.0069 -0.046751,0.01014 -0.0625,0 z m 0,0.0625 c -0.00921,-0.0042 -0.027195,0.0042 -0.03125,0 l 0,0.03125 c 5.709e-4,0.005 0.02614,0.03164 0.03125,0.03125 0.033567,0.03215 0.056105,-0.05246 0,-0.0625 z m -0.3125,0.0625 c -0.018242,0.01674 -0.017968,0.01505 -0.03125,0.03125 -0.00397,0.01037 -0.016976,0.02497 -0.03125,0.03125 -0.040795,0.02221 -0.064967,0.03322 -0.09375,0.03125 l 0,0.71875 c 0.053775,0.0014 0.1027751,0.0017 0.15625,0 l 0,-0.6875 c 0.1466352,-0.0063 0.296944,0.0046 0.4375,-0.03125 -0.00334,0.01539 -0.02248,0.05162 -0.03125,0.0625 0.056195,0.01001 0.101738,0.0049 0.15625,0 0.05971,-0.0055 0.052941,-0.0065 0.09375,0 0.025213,0.0027 0.13257,-0.01908 0.15625,-0.03125 0.023802,-0.01217 -0.00781,-0.04165 0,-0.0625 0.00793,-0.02077 0.03891,-0.01899 0.0625,-0.03125 l 0.09375,-0.03125 c 0.048562,-0.01436 0.181757,-0.06529 0.21875,-0.09375 0.028819,-0.01262 0.034853,-0.03987 0.0625,-0.0625 0.04144,-0.0339 0.12193,-0.02812 0.125,-0.09375 -0.00162,-0.014906 -0.02455,-0.047955 -0.03125,-0.0625 -0.00216,-0.019893 -0.010425,-0.08555 -0.03125,-0.09375 l -0.15625,-0.1875 c -0.013483,0.024272 -0.043776,0.056931 -0.0625,0.0625 -0.00938,0.00586 -0.047625,-0.00132 -0.0625,0 -0.011997,0.00485 -0.029025,-0.00273 -0.03125,0 -0.01782,0.021697 -0.02446,0.094288 -0.03125,0.125 -0.00336,0.015356 -0.00649,0.016856 0,0.03125 0.011629,0.0141 0.015894,0.02755 0.03125,0.03125 -0.016712,0.01101 -0.014225,0.05201 -0.03125,0.0625 -0.025453,0.04246 -0.00976,0.01806 0,0.0625 0.024852,-0.0023 0.068898,0.0022 0.09375,0 -0.065491,0.04212 -0.1179296,0.09036 -0.1875,0.125 -0.084827,0.04224 -0.1914964,0.06314 -0.28125,0.09375 -0.049643,0.01693 -0.1053971,0.04927 -0.15625,0.0625 -6.311e-4,-0.005 -0.02581,0.0046 -0.03125,0 -0.01166,-0.01409 -0.047594,-0.0014 -0.0625,0 -0.034258,0.0081 -0.0079,-0.005 -0.0625,0 l -0.1875,0.03125 c -0.037435,0.0033 -0.063994,-0.0088 -0.09375,0 l 0,-0.09375 z m 0.59375,0 c 0.0088,-0.01082 0.00162,-0.01641 0,-0.03125 0.019293,-0.0067 0.023316,-0.01042 0.03125,-0.03125 -0.00168,-0.01484 -0.01388,-0.01998 0,-0.03125 0.00883,-0.01094 0.047414,-0.02987 0.0625,-0.03125 -0.023139,-0.02798 -0.063369,0.0023 -0.09375,0 -0.011829,0.0043 -0.019338,0.0272 -0.03125,0.03125 0.00514,-4.51e-4 -0.00544,0.02672 0,0.03125 0.044024,0.03615 -0.00703,0.02398 -0.03125,0.03125 -0.011666,0.0041 -0.023654,0.0301 -0.03125,0.03125 0.021005,0.0082 0.075359,0.01677 0.09375,0 z m 0,-0.125 c 0.029572,-0.01069 0.064736,-0.01916 0.09375,-0.03125 -0.00495,-0.01029 -0.015708,-0.02664 -0.03125,-0.03125 -0.041951,-0.01638 -0.083831,-0.01986 -0.125,-0.03125 -0.045888,-0.006 -0.040771,-0.01983 -0.09375,0 0.012771,0.0081 0.02164,0.02613 0.03125,0.03125 0.015386,0.0037 0.015744,0.02755 0.03125,0.03125 0.020946,0.0082 0.047685,0.0014 0.0625,0 0.015506,0.0036 0.015954,0.02755 0.03125,0.03125 z m 0.28125,0.03125 c 0.012591,-0.011175 -0.00754,-0.020822 -0.03125,-0.03125 l 0.09375,-0.0625 c -0.02581,-0.01174 -0.038178,-0.02453 -0.0625,-0.03125 -0.048563,0.02606 -0.1057009,0.04059 -0.15625,0.0625 0.027466,0.02272 0.059132,0.03444 0.09375,0.03125 -0.00838,0.01581 -0.010552,0.02707 0,0.03125 0.018662,0.01086 0.049909,0.01117 0.0625,0 z m -0.875,-5.5625 0,-0.03125 c -0.040623,-0.012095 -0.072399,0.0033 -0.125,0 0.042389,-7.308e-4 0.082471,0.030504 0.125,0.03125 z m -3.9375,3.625 -0.59375,0 0,0.09375 c -0.00268,0.012877 0.00251,0.019839 0,0.03125 l 0.59375,0 c -7.588e-4,-0.041836 -6.13e-4,-0.083031 0,-0.125 z m 7.3125008,-4.34375 c 0.348649,0.1479698 0.732906,0.231707 1.03125,0.5 0.350511,0.3139701 0.491397,0.7037186 0.59375,1.125 l 0.0625,0.125 c -0.508731,-0.3661683 -0.956402,-0.8550922 -1.28125,-1.375 l -0.40625,-0.375 z m -7.0000008,0.0625 c -0.3516237,0.3085309 -0.6141896,0.6986457 -0.875,1.0625 -0.2337647,0.2898094 -0.5161424,0.4695993 -0.78125,0.71875 0.1431016,-0.2969013 0.1408774,-0.6647895 0.34375,-0.9375 0.2888176,-0.5043716 0.8337616,-0.657165 1.3125,-0.84375 z m 3.78125,0.5 c -0.010773,0.00928 -0.017241,0.020937 -0.03125,0.03125 0.016017,0.00862 0.1046858,0.028034 0.125,0.03125 0.050275,5.108e-4 0.034791,-0.020942 0.09375,-0.03125 l 0.09375,-0.03125 c -0.091052,-0.012074 -0.1903914,0.00547 -0.28125,0 z m 4.5312508,0.0625 c 0.465456,0.095201 0.840737,0.5864389 0.9375,1.03125 0.111218,0.5030193 -0.03962,0.9921425 0.0625,1.5 -0.273452,-0.5380912 -0.850596,-0.7880628 -1.25,-1.21875 -0.231481,-0.2555816 -0.348312,-0.5764431 -0.40625,-0.90625 0.228777,0.5522124 0.864301,0.6596943 1.21875,1.125 0.11867,0.1072511 0.14221,0.2533847 0.21875,0.375 l 0.03125,0 c -0.203864,-0.4356456 -0.29524,-0.9103855 -0.4375,-1.375 -0.07113,-0.2012799 -0.18538,-0.4043457 -0.375,-0.53125 z m -9.6250008,0.0625 c -0.47378,0.3257801 -0.4435564,0.9209907 -0.59375,1.40625 -0.047871,0.1794631 -0.1148101,0.3472794 -0.15625,0.53125 0.078823,-0.207985 0.2333681,-0.3928035 0.40625,-0.5625 0.3365082,-0.310905 0.8351116,-0.5088535 1,-0.96875 -0.00754,0.639089 -0.5527793,1.1408336 -1.0625,1.5 -0.2101147,0.1845717 -0.4155246,0.3877494 -0.53125,0.625 -0.011329,-0.1612523 0.011449,-0.3272984 0,-0.5 -0.055384,-0.557862 -0.081495,-1.1801316 0.3125,-1.59375 0.1710188,-0.2128194 0.381018,-0.3750245 0.625,-0.4375 z m 10.6562508,0.78125 c 0.107071,0.062385 0.144314,0.1880927 0.21875,0.28125 0.423144,0.5740593 0.52698,1.4977481 0.21875,2.15625 -0.114884,0.2789911 -0.204834,0.5661385 -0.25,0.875 -0.02149,-0.05325 -0.04326,-0.1281498 -0.0625,-0.1875 -0.168312,-0.6445283 -0.749527,-1.1110339 -1,-1.71875 -0.07942,-0.1986655 -0.149966,-0.3780758 -0.1875,-0.59375 0.267542,0.4953564 0.914047,0.7352581 1.09375,1.28125 0.06937,0.1299323 0.08704,0.295304 0.125,0.4375 -0.07906,-0.5623695 -0.04502,-1.1320421 0.03125,-1.6875 -0.0044,-0.3008379 -0.02054,-0.6108567 -0.1875,-0.84375 z m -11.6875008,0.125 c -0.3288648,0.5472964 -0.046292,1.2281223 -0.0625,1.84375 l -0.03125,0.65625 c 0.00712,0.00469 0.01436,0.038643 0.03125,0.03125 0.021486,-0.071791 0.016946,-0.1761953 0.03125,-0.25 0.085735,-0.5194264 0.5438954,-0.8597939 0.9375,-1.21875 0.084052,-0.093878 0.1443771,-0.202334 0.1875,-0.3125 -0.032154,0.2585866 -0.111559,0.5108262 -0.21875,0.75 -0.3063373,0.5980097 -0.8653755,1.0966341 -0.96875,1.78125 -0.050125,-0.6561278 -0.5132552,-1.1479251 -0.46875,-1.84375 -0.014244,-0.5653746 0.2321823,-1.0163088 0.5625,-1.4375 z m 8.2187508,1.15625 c 0.01355,0.033957 0.08858,0.1132501 0.125,0.125 -0.02467,-0.043003 -0.07818,-0.1091632 -0.125,-0.125 z m 0.25,0.375 c 0.0047,0.044806 0.01205,0.117785 0.03125,0.15625 l 0.0625,0.0625 c -0.01883,-0.047103 -0.01247,-0.1123623 -0.03125,-0.15625 -0.01866,-0.033567 -0.03491,-0.039872 -0.0625,-0.0625 z m -0.7187508,0.0625 c 0.010037,-9.31e-4 0.02536,-0.0095 0.03125,0 0.01211,0.019112 6.94e-4,0.048469 -0.03125,0.03125 -0.00304,-0.00476 0.00227,-0.027682 0,-0.03125 z m 4.6875008,0.03125 c 0.321723,0.6915276 0.226563,1.6042697 -0.125,2.25 -0.250894,0.3574836 -0.580719,0.699217 -0.8125,1.0625 0.02581,-0.287555 0.08057,-0.63381 -0.03125,-0.90625 -0.194037,-0.5867407 -0.382537,-1.1998528 -0.4375,-1.84375 l 0.03125,-0.25 c 0.145956,0.6575402 0.790719,1.1373444 0.75,1.875 0.01475,0.1787718 -0.06033,0.3115245 -0.09375,0.46875 l 0.03125,0.03125 0.03125,-0.03125 c 0.09577,-0.3618109 0.132498,-0.7561299 0.28125,-1.09375 0.211467,-0.4857702 0.482642,-0.9759396 0.375,-1.5625 z m -13.1250008,0.09375 c -0.145656,0.7473619 0.3665119,1.289606 0.53125,1.9375 0.068966,0.2422991 0.088964,0.4913861 0.1875,0.71875 0.0092,0.00493 0.02557,0.00736 0.03125,0 -0.2453048,-0.6881321 0.081729,-1.3361602 0.4375,-1.875 0.086516,-0.1460165 0.1444974,-0.3009166 0.1875,-0.46875 0.037864,0.311506 -0.048524,0.6765639 -0.09375,1 -0.086516,0.4114547 -0.2000802,0.7882158 -0.3125,1.1875 -0.074015,0.249451 -0.069234,0.551149 -0.03125,0.8125 l -0.03125,-0.03125 c -0.2608107,-0.481473 -0.784091,-0.8801818 -0.9375,-1.40625 -0.1261831,-0.4193881 -0.1797252,-0.8868285 -0.09375,-1.34375 0.040689,-0.1768186 0.04807,-0.3690361 0.125,-0.53125 z m 4.53125,0.84375 c -0.033206,0.01809 -0.00376,0.058891 0,0.09375 0.01773,-0.021727 -0.0024,-0.068387 0,-0.09375 z m 0,0.5 c -0.01217,0.026264 -0.026955,0.0448 0,0.0625 -0.00273,-0.024822 0.017011,-0.043869 0,-0.0625 z m 4.6875008,0 c 0.05406,-0.00995 0.03372,0.080678 0,0.09375 -0.02425,0.00724 -0.03355,-0.00583 -0.03125,-0.03125 -0.0027,-0.024822 0.0075,-0.050359 0.03125,-0.0625 z m -2.1250008,0.21875 c 0.024281,-0.00721 0.041104,-0.013162 0.0625,0 0.00557,0.00454 -0.00748,0.025635 0,0.03125 -0.026264,-0.012712 -0.044229,-0.00267 -0.0625,-0.03125 z m 4.7500008,0.21875 c -0.06028,0.5340617 0.172537,0.995355 0.15625,1.53125 -0.01626,0.323676 -0.111433,0.585254 -0.28125,0.8437496 l 0.03125,0 c 0.229437,-0.3015886 0.388138,-0.6189346 0.65625,-0.9062496 0.416263,-0.401718 0.851618,-0.8174987 0.90625,-1.375 0.141269,0.930671 -0.384487,1.75428 -1.15625,2.2812496 -0.318118,0.208342 -0.631794,0.41924 -0.9375,0.65625 l 0,-0.03125 c 0.46825,-0.778975 0.242673,-1.8614616 0.53125,-2.7187496 l 0.09375,-0.28125 z m -5.4062508,0.0625 0.03125,0 0,0.03125 c 0.010007,-8.2e-4 0.020732,-0.00412 0.03125,0 0.00544,0.00454 -9.917e-4,0.02133 0,0.03125 0.00105,0.00986 0.00941,0.02545 0,0.03125 -0.00884,0.010875 -0.0537,0.034348 -0.0625,0 l 0,-0.0625 0,-0.03125 z m -5.125,0.03125 c 0.3466654,0.7482634 0.2123626,1.658101 0.40625,2.4687496 0.050756,0.177269 0.1828366,0.361734 0.25,0.53125 -0.7122326,-0.48556 -1.6840766,-0.9538566 -2,-1.8437496 -0.133245,-0.306848 -0.1538487,-0.678905 -0.125,-1.03125 0.057427,0.792258 0.8866236,1.187893 1.28125,1.84375 0.093307,0.134237 0.1877593,0.2939196 0.3125,0.4062496 -0.019443,-0.08435 -0.096121,-0.163544 -0.125,-0.2499996 -0.138023,-0.275084 -0.189426,-0.605079 -0.15625,-0.9375 0.038194,-0.4046633 0.2209793,-0.7618914 0.15625,-1.1875 z m 1.03125,0.28125 0.03125,0 c 0.016348,0.058929 0.010996,0.076558 0.03125,0.125 0.028368,0.077831 0.053454,0.1341274 0.0625,0.21875 -0.031433,-0.012291 -0.049278,-0.064721 -0.0625,-0.09375 -0.027318,-0.067885 -0.02245,-0.059342 -0.03125,-0.09375 -0.016799,-0.063857 -0.03317,-0.080672 -0.03125,-0.15625 z m 6.2500008,0.0625 c -0.01716,0.026565 -0.04092,0.061656 -0.0625,0.09375 -0.03543,0.043453 -0.045699,0.043117 -0.09375,0.0625 -0.014394,0.00634 -0.05971,0.010966 -0.0625,0.03125 0.00162,0.014968 0.016375,0.0326 0.03125,0.03125 0.010488,0.00418 0.048076,0.00634 0.0625,0 0.024191,-0.00721 0.039151,-0.014181 0.0625,-0.03125 0.06124,-0.03576 0.04907,-0.125956 0.0625,-0.1875 z m -2.2187508,0.28125 c 0.028157,-0.01761 0.06472,0.00595 0.0625,0.03125 -0.00442,0.00547 0.00445,0.02581 0,0.03125 -0.00835,0.015867 -0.012769,0.045702 -0.03125,0.0625 -0.018571,0.011663 -0.073376,0.00319 -0.09375,0 -0.015476,-0.00361 -0.03453,-0.015924 -0.03125,-0.03125 -0.00111,-0.00992 0.02725,-0.020882 0.03125,-0.03125 0.012655,-0.021276 -0.013913,-0.020071 0,-0.03125 0.018541,-0.01172 0.026078,0.00217 0.0625,-0.03125 z m 5.0312508,0.65625 c -0.274874,0.551972 -0.152947,1.2456846 -0.46875,1.7812496 -0.121585,0.212819 -0.307646,0.426577 -0.5,0.59375 0.06287,-0.0024 0.132267,-0.0573 0.1875,-0.09375 0.512846,-0.512365 1.195053,-0.646207 1.75,-1.0625 0.222255,-0.177269 0.402335,-0.4050556 0.5,-0.6562496 -0.105057,0.8501646 -0.923127,1.6217616 -1.71875,1.8749996 -0.411755,0.110406 -0.881394,0.144729 -1.28125,0.28125 0.677314,-0.581302 0.641907,-1.471514 1.09375,-2.1562496 0.144033,-0.193797 0.269667,-0.378469 0.4375,-0.5625 z m -9.6875008,0.0625 c 0.2656485,0.318087 0.526999,0.639061 0.6875,0.9999996 0.2385728,0.589205 0.3229078,1.273398 0.875,1.71875 C 4.1637533,11.740366 3.4761727,11.77446 2.9487822,11.406249 2.37298,11.05189 1.8377641,10.472714 1.7300322,9.8124994 c 0.3971806,0.8992376 1.395614,0.9524446 2.0625,1.4999996 0.1226972,0.108934 0.267656,0.216611 0.40625,0.28125 -0.1531064,-0.138576 -0.3303391,-0.320357 -0.4375,-0.5 -0.3903291,-0.543197 -0.2701063,-1.2908136 -0.5625,-1.8749996 z m 7.2187508,0.15625 c 0.0104,0.004 0.04763,0.0014 0.0625,0 0.02038,0.0032 0.04167,-0.0081 0.0625,0 0.01034,0.0041 0.01472,0.01767 0.03125,0.03125 0.01683,0.01842 0.03134,0.01718 0.03125,0.0625 -5.51e-4,0.03077 -0.01083,0.06155 -0.03125,0.09375 l -0.15625,-0.1875 z m 1.53125,1.2187496 c -0.356311,0.457282 -0.380116,1.080983 -0.96875,1.375 -0.145686,0.09547 -0.349656,0.115258 -0.5,0.1875 0.214412,0.0046 0.412601,-0.07229 0.625,-0.09375 0.789222,-0.12405 1.696285,0.01675 2.25,-0.65625 -0.205487,0.468942 -0.718678,0.866332 -1.1875,1.03125 -0.80563,0.304505 -1.603117,-0.0627 -2.3750008,-0.1875 l -0.15625,-0.03125 c 0.3691128,-0.08378 0.7374748,-0.203191 1.0312508,-0.46875 0.432611,-0.416263 0.800769,-0.828156 1.28125,-1.15625 z m -7.7812508,0.0625 c 0.4610084,0.306488 0.8559419,0.693173 1.28125,1.09375 0.3057362,0.268082 0.6748154,0.421116 1.0625,0.5 -0.093157,0.03405 -0.2124911,0.0051 -0.3125,0.03125 -0.6966963,0.171499 -1.4798925,0.469674 -2.21875,0.21875 -0.480271,-0.151396 -0.977112,-0.557561 -1.21875,-1.03125 0.6367451,0.724823 1.6831279,0.49782 2.53125,0.6875 0.1198423,0.01647 0.2167556,0.05075 0.34375,0.03125 -0.1010606,-0.06407 -0.2334337,-0.03551 -0.34375,-0.09375 -0.6648726,-0.233795 -0.7640606,-0.9517 -1.125,-1.4375 z m 3.03125,1.5625 c 0.1978344,-0.01496 0.4140062,-0.01483 0.625,0.03125 0.1317424,0.0023 0.2505599,0.143035 0.375,0.03125 0.6273092,-0.163026 1.3349582,-0.03696 1.8750008,0.25 l 0.5625,0.21875 c 0.517384,0.191544 1.181571,0.128062 1.625,-0.1875 -0.228025,0.284039 -0.522117,0.478416 -0.84375,0.59375 -0.717492,0.267993 -1.4709548,-0.0121 -2.0312508,-0.4375 -0.2270033,-0.144394 -0.4252444,-0.330891 -0.71875,-0.3125 -0.1064998,-0.002 -0.2220473,0.005 -0.3125,0.03125 0.5443391,0.253599 1.0375792,0.584155 1.5,1.03125 -0.077982,0.0891 -0.1548593,0.17322 -0.25,0.25 -0.4455623,-0.480573 -0.947457,-0.948564 -1.5,-1.21875 -0.1083028,0.01409 -0.2148351,0.103782 -0.3125,0.15625 -0.4497995,0.284671 -0.8843454,0.645423 -1.21875,1.09375 l -0.28125,-0.25 c 0.4586344,-0.464344 0.9449929,-0.804304 1.5,-1.0625 -0.5453909,-0.172972 -0.898491,0.267347 -1.3125,0.5 -0.4823745,0.337139 -1.1671058,0.513873 -1.75,0.28125 -0.3135194,-0.119031 -0.6167468,-0.308899 -0.84375,-0.59375 0.4587846,0.316405 1.1345391,0.361737 1.65625,0.15625 0.5250691,-0.227951 1.0627469,-0.51762 1.65625,-0.5625 z"
     id="rect3971"
     inkscape:connector-curvature="0" />
  <rect
     style="fill:none;fill-rule:evenodd;stroke:none"
     id="rect3760"
     width="16"
     height="16"
     x="0.042532369"
     y="-7.5582534e-07"
     ry="0.63891309" />
</svg>
