<?xml version="1.0" encoding="UTF-8" standalone="no"?>
<!-- Created with Inkscape (http://www.inkscape.org/) -->

<svg
   xmlns:dc="http://purl.org/dc/elements/1.1/"
   xmlns:cc="http://creativecommons.org/ns#"
   xmlns:rdf="http://www.w3.org/1999/02/22-rdf-syntax-ns#"
   xmlns:svg="http://www.w3.org/2000/svg"
   xmlns="http://www.w3.org/2000/svg"
   xmlns:sodipodi="http://sodipodi.sourceforge.net/DTD/sodipodi-0.dtd"
   xmlns:inkscape="http://www.inkscape.org/namespaces/inkscape"
   id="svg7384"
   height="16"
   width="16"
   version="1.1"
   inkscape:version="0.48.4 r9939"
   sodipodi:docname="user-info-symbolic.svg">
  <defs
     id="defs10" />
  <sodipodi:namedview
     pagecolor="#ffffff"
     bordercolor="#666666"
     borderopacity="1"
     objecttolerance="10"
     gridtolerance="10"
     guidetolerance="10"
     inkscape:pageopacity="0"
     inkscape:pageshadow="2"
     inkscape:window-width="1280"
     inkscape:window-height="748"
     id="namedview8"
     showgrid="true"
     inkscape:zoom="31.943749"
     inkscape:cx="9.0220702"
     inkscape:cy="11.974115"
     inkscape:window-x="0"
     inkscape:window-y="0"
     inkscape:window-maximized="1"
     inkscape:current-layer="svg7384">
    <inkscape:grid
       type="xygrid"
       id="grid3874"
       empspacing="5"
       visible="true"
       enabled="true"
       snapvisiblegridlinesonly="true"
       spacingx="1.3877788e-16px"
       spacingy="1.3877788e-16px" />
  </sodipodi:namedview>
  <metadata
     id="metadata90">
    <rdf:RDF>
      <cc:Work
         rdf:about="">
        <dc:format>image/svg+xml</dc:format>
        <dc:type
           rdf:resource="http://purl.org/dc/dcmitype/StillImage" />
        <dc:title>Gnome Symbolic Icon Theme</dc:title>
      </cc:Work>
    </rdf:RDF>
  </metadata>
  <title
     id="title9167">Gnome Symbolic Icon Theme</title>
  <rect
     style="fill:none;fill-rule:evenodd;stroke:none"
     id="rect3760"
     width="16"
     height="16"
     x="0.042532369"
     y="-7.5582534e-07"
     ry="0.63891309" />
  <g
     transform="matrix(0.85715014,0,0,0.85715014,4.1413791,1.1122001)"
     id="g4374"
     style="stroke-width:0;stroke-miterlimit:4;stroke-dasharray:none;fill:#cccccc">
    <g
       id="g4376"
       transform="scale(0.16541353,0.16541353)"
       style="stroke-width:0;stroke-miterlimit:4;stroke-dasharray:none;fill:#cccccc" />
    <g
       id="g4380"
       transform="translate(-39.225564,-37.556391)"
       style="stroke-width:0;stroke-miterlimit:4;stroke-dasharray:none;fill:#cccccc" />
    <g
       id="g4382"
       transform="translate(-39.225564,-37.556391)"
       style="stroke-width:0;stroke-miterlimit:4;stroke-dasharray:none;fill:#cccccc" />
    <g
       id="g4384"
       transform="translate(-39.225564,-37.556391)"
       style="stroke-width:0;stroke-miterlimit:4;stroke-dasharray:none;fill:#cccccc" />
    <g
       id="g4386"
       transform="translate(-39.225564,-37.556391)"
       style="stroke-width:0;stroke-miterlimit:4;stroke-dasharray:none;fill:#cccccc" />
    <g
       id="g4388"
       transform="translate(-39.225564,-37.556391)"
       style="stroke-width:0;stroke-miterlimit:4;stroke-dasharray:none;fill:#cccccc" />
    <g
       id="g4390"
       transform="translate(-39.225564,-37.556391)"
       style="stroke-width:0;stroke-miterlimit:4;stroke-dasharray:none;fill:#cccccc" />
    <g
       id="g4392"
       transform="translate(-39.225564,-37.556391)"
       style="stroke-width:0;stroke-miterlimit:4;stroke-dasharray:none;fill:#cccccc" />
    <g
       id="g4394"
       transform="translate(-39.225564,-37.556391)"
       style="stroke-width:0;stroke-miterlimit:4;stroke-dasharray:none;fill:#cccccc" />
    <g
       id="g4396"
       transform="translate(-39.225564,-37.556391)"
       style="stroke-width:0;stroke-miterlimit:4;stroke-dasharray:none;fill:#cccccc" />
    <g
       id="g4398"
       transform="translate(-39.225564,-37.556391)"
       style="stroke-width:0;stroke-miterlimit:4;stroke-dasharray:none;fill:#cccccc" />
    <g
       id="g4400"
       transform="translate(-39.225564,-37.556391)"
       style="stroke-width:0;stroke-miterlimit:4;stroke-dasharray:none;fill:#cccccc" />
    <g
       id="g4402"
       transform="translate(-39.225564,-37.556391)"
       style="stroke-width:0;stroke-miterlimit:4;stroke-dasharray:none;fill:#cccccc" />
    <g
       id="g4404"
       transform="translate(-39.225564,-37.556391)"
       style="stroke-width:0;stroke-miterlimit:4;stroke-dasharray:none;fill:#cccccc" />
    <g
       id="g4406"
       transform="translate(-39.225564,-37.556391)"
       style="stroke-width:0;stroke-miterlimit:4;stroke-dasharray:none;fill:#cccccc" />
    <g
       id="g4408"
       transform="translate(-39.225564,-37.556391)"
       style="stroke-width:0;stroke-miterlimit:4;stroke-dasharray:none;fill:#cccccc" />
  </g>
  <g
     transform="matrix(0.96571603,0,0,0.96571603,-0.3198648,2.304078)"
     id="g4410">
    <g
       id="g4412"
       transform="scale(0.16541353,0.16541353)" />
    <g
       id="g4416"
       transform="translate(-39.225564,-37.556391)" />
    <g
       id="g4418"
       transform="translate(-39.225564,-37.556391)" />
    <g
       id="g4420"
       transform="translate(-39.225564,-37.556391)" />
    <g
       id="g4422"
       transform="translate(-39.225564,-37.556391)" />
    <g
       id="g4424"
       transform="translate(-39.225564,-37.556391)" />
    <g
       id="g4426"
       transform="translate(-39.225564,-37.556391)" />
    <g
       id="g4428"
       transform="translate(-39.225564,-37.556391)" />
    <g
       id="g4430"
       transform="translate(-39.225564,-37.556391)" />
    <g
       id="g4432"
       transform="translate(-39.225564,-37.556391)" />
    <g
       id="g4434"
       transform="translate(-39.225564,-37.556391)" />
    <g
       id="g4436"
       transform="translate(-39.225564,-37.556391)" />
    <g
       id="g4438"
       transform="translate(-39.225564,-37.556391)" />
    <g
       id="g4440"
       transform="translate(-39.225564,-37.556391)" />
    <g
       id="g4442"
       transform="translate(-39.225564,-37.556391)" />
    <g
       id="g4444"
       transform="translate(-39.225564,-37.556391)" />
  </g>
  <g
     id="g4466"
     transform="matrix(0.94771562,0,0,0.97012321,-0.03561984,-0.51781876)">
    <g
       style="fill:#cccccc"
       transform="matrix(0.85715014,0,0,0.85715014,0.14137913,3.1122001)"
       id="g3444">
      <g
         style="fill:#cccccc"
         id="g3"
         transform="scale(0.16541353,0.16541353)">
        <path
           style="fill:#cccccc"
           d="M 73.602,67.24 C 61.276,62.747 57.336,58.958 57.336,50.845 c 0,-4.871 3.764,-3.28 5.416,-12.2 0.686,-3.7 4.01,-0.06 4.646,-8.507 0,-3.367 -1.814,-4.203 -1.814,-4.203 0,0 0.922,-4.982 1.283,-8.816 C 67.314,12.342 64.107,0 47,0 29.893,0 26.684,12.342 27.133,17.119 c 0.361,3.834 1.283,8.816 1.283,8.816 0,0 -1.814,0.836 -1.814,4.203 0.635,8.447 3.959,4.807 4.645,8.507 1.654,8.919 5.416,7.329 5.416,12.2 0,8.113 -3.938,11.902 -16.264,16.395 C 8.033,71.746 0,76.339 0,79.473 0,82.604 0,90 0,90 h 47 47 c 0,0 0,-7.396 0,-10.527 0,-3.134 -8.033,-7.727 -20.398,-12.233 z"
           id="path5"
           inkscape:connector-curvature="0" />
      </g>
      <g
         style="fill:#cccccc"
         id="g7"
         transform="translate(-39.225564,-37.556391)" />
      <g
         style="fill:#cccccc"
         id="g9"
         transform="translate(-39.225564,-37.556391)" />
      <g
         style="fill:#cccccc"
         id="g11"
         transform="translate(-39.225564,-37.556391)" />
      <g
         style="fill:#cccccc"
         id="g13"
         transform="translate(-39.225564,-37.556391)" />
      <g
         style="fill:#cccccc"
         id="g15"
         transform="translate(-39.225564,-37.556391)" />
      <g
         style="fill:#cccccc"
         id="g17"
         transform="translate(-39.225564,-37.556391)" />
      <g
         style="fill:#cccccc"
         id="g19"
         transform="translate(-39.225564,-37.556391)" />
      <g
         style="fill:#cccccc"
         id="g21"
         transform="translate(-39.225564,-37.556391)" />
      <g
         style="fill:#cccccc"
         id="g23"
         transform="translate(-39.225564,-37.556391)" />
      <g
         style="fill:#cccccc"
         id="g25"
         transform="translate(-39.225564,-37.556391)" />
      <g
         style="fill:#cccccc"
         id="g27"
         transform="translate(-39.225564,-37.556391)" />
      <g
         style="fill:#cccccc"
         id="g29"
         transform="translate(-39.225564,-37.556391)" />
      <g
         style="fill:#cccccc"
         id="g31"
         transform="translate(-39.225564,-37.556391)" />
      <g
         style="fill:#cccccc"
         id="g33"
         transform="translate(-39.225564,-37.556391)" />
      <g
         style="fill:#cccccc"
         id="g35"
         transform="translate(-39.225564,-37.556391)" />
    </g>
    <path
       id="path4459"
       d="m 10.25,1.6875 c -1.4716973,0 -2.2174002,0.6232706 -2.5625,1.28125 1.8093949,0.433915 2.185974,1.9733818 2.125,2.625 C 9.754833,6.2062027 9.59375,7 9.59375,7 9.59375,7 9.875,7.1496471 9.875,7.6875 9.7734039,9.0368449 9.2658333,8.4402029 9.15625,9.03125 c -0.1391883,0.7515495 -0.3707423,1.02959 -0.5625,1.25 0.1316493,1.426213 2.147216,2.173554 3.96875,2.625 0.832364,0.454357 1.380027,1.004846 1.5,1.53125 l 2.84375,0 0,-1.5 c 0,-0.444352 -1.153088,-1.07987 -2.90625,-1.71875 -1.747632,-0.637037 -2.28125,-1.193455 -2.28125,-2.34375 0,-0.690631 0.515772,-0.4540347 0.75,-1.71875 0.09726,-0.5246018 0.566075,-0.021099 0.65625,-1.21875 0,-0.4773875 -0.25,-0.59375 -0.25,-0.59375 0,0 0.136316,-0.7063994 0.1875,-1.25 C 13.125878,3.4164466 12.675503,1.6875 10.25,1.6875 z m -5.46875,10.25 c -0.7352129,0.377389 -1.1875,0.727595 -1.1875,1 l 0,0.125 c 0.636492,-0.333687 0.9914114,-0.671143 1.1875,-1.125 z"
       style="fill:#cccccc;stroke:#000000;stroke-width:0;stroke-linecap:butt;stroke-linejoin:miter;stroke-miterlimit:4;stroke-opacity:1;stroke-dasharray:none"
       inkscape:connector-curvature="0" />
  </g>
</svg>
