<?xml version="1.0" encoding="UTF-8" standalone="no"?>
<!-- Created with Inkscape (http://www.inkscape.org/) -->

<svg
   xmlns:dc="http://purl.org/dc/elements/1.1/"
   xmlns:cc="http://creativecommons.org/ns#"
   xmlns:rdf="http://www.w3.org/1999/02/22-rdf-syntax-ns#"
   xmlns:svg="http://www.w3.org/2000/svg"
   xmlns="http://www.w3.org/2000/svg"
   xmlns:sodipodi="http://sodipodi.sourceforge.net/DTD/sodipodi-0.dtd"
   xmlns:inkscape="http://www.inkscape.org/namespaces/inkscape"
   id="svg7384"
   height="16"
   width="16"
   version="1.1"
   inkscape:version="0.48.4 r9939"
   sodipodi:docname="template.svg">
  <defs
     id="defs10" />
  <sodipodi:namedview
     pagecolor="#ffffff"
     bordercolor="#666666"
     borderopacity="1"
     objecttolerance="10"
     gridtolerance="10"
     guidetolerance="10"
     inkscape:pageopacity="0"
     inkscape:pageshadow="2"
     inkscape:window-width="1280"
     inkscape:window-height="748"
     id="namedview8"
     showgrid="true"
     inkscape:zoom="23.5113"
     inkscape:cx="0.082291189"
     inkscape:cy="8.5608615"
     inkscape:window-x="0"
     inkscape:window-y="0"
     inkscape:window-maximized="1"
     inkscape:current-layer="svg7384">
    <inkscape:grid
       type="xygrid"
       id="grid3874"
       empspacing="5"
       visible="true"
       enabled="true"
       snapvisiblegridlinesonly="true"
       spacingx="1.3877788e-16px"
       spacingy="1.3877788e-16px" />
  </sodipodi:namedview>
  <metadata
     id="metadata90">
    <rdf:RDF>
      <cc:Work
         rdf:about="">
        <dc:format>image/svg+xml</dc:format>
        <dc:type
           rdf:resource="http://purl.org/dc/dcmitype/StillImage" />
        <dc:title>Gnome Symbolic Icon Theme</dc:title>
      </cc:Work>
    </rdf:RDF>
  </metadata>
  <title
     id="title9167">Gnome Symbolic Icon Theme</title>
  <rect
     style="fill:none;fill-rule:evenodd;stroke:none"
     id="rect3760"
     width="16"
     height="16"
     x="0.042532369"
     y="-7.5582534e-07"
     ry="0.63891309" />
  <g
     id="g3444"
     transform="matrix(0.85715014,0,0,0.85715014,0.22644461,0.56023575)"
     style="fill:#cccccc">
    <g
       transform="scale(0.16541353,0.16541353)"
       id="g3"
       style="fill:#cccccc">
      <path
         d="M 6.875 0.5625 C 4.4494972 0.5625 3.9988389 2.3226967 4.0625 3 C 4.1136841 3.5436007 4.25 4.25 4.25 4.25 C 4.25 4.25 4 4.3663625 4 4.84375 C 4.090033 6.0414014 4.558986 5.5066483 4.65625 6.03125 C 4.8907611 7.2958236 5.4375 7.090619 5.4375 7.78125 C 5.4375 8.9315455 4.8726324 9.4567135 3.125 10.09375 C 1.3716962 10.73263 0.21875 11.399398 0.21875 11.84375 L 0.21875 13.3125 L 6.875 13.3125 L 9.15625 13.3125 L 9.15625 9.84375 L 10.0625 9.84375 C 8.819706 9.3050039 8.34375 8.7758589 8.34375 7.78125 C 8.34375 7.090619 8.8907725 7.2959653 9.125 6.03125 C 9.222264 5.5066483 9.6910752 6.0414014 9.78125 4.84375 C 9.78125 4.3663625 9.53125 4.25 9.53125 4.25 C 9.53125 4.25 9.6675659 3.5436007 9.71875 3 C 9.7821276 2.3226967 9.3005028 0.5625 6.875 0.5625 z "
         transform="matrix(7.0529705,0,0,7.0529705,-1.5971072,-3.9513262)"
         id="path5"
         style="fill:#cccccc" />
    </g>
    <g
       transform="translate(-39.225564,-37.556391)"
       id="g7"
       style="fill:#cccccc" />
    <g
       transform="translate(-39.225564,-37.556391)"
       id="g9"
       style="fill:#cccccc" />
    <g
       transform="translate(-39.225564,-37.556391)"
       id="g11"
       style="fill:#cccccc" />
    <g
       transform="translate(-39.225564,-37.556391)"
       id="g13"
       style="fill:#cccccc" />
    <g
       transform="translate(-39.225564,-37.556391)"
       id="g15"
       style="fill:#cccccc" />
    <g
       transform="translate(-39.225564,-37.556391)"
       id="g17"
       style="fill:#cccccc" />
    <g
       transform="translate(-39.225564,-37.556391)"
       id="g19"
       style="fill:#cccccc" />
    <g
       transform="translate(-39.225564,-37.556391)"
       id="g21"
       style="fill:#cccccc" />
    <g
       transform="translate(-39.225564,-37.556391)"
       id="g23"
       style="fill:#cccccc" />
    <g
       transform="translate(-39.225564,-37.556391)"
       id="g25"
       style="fill:#cccccc" />
    <g
       transform="translate(-39.225564,-37.556391)"
       id="g27"
       style="fill:#cccccc" />
    <g
       transform="translate(-39.225564,-37.556391)"
       id="g29"
       style="fill:#cccccc" />
    <g
       transform="translate(-39.225564,-37.556391)"
       id="g31"
       style="fill:#cccccc" />
    <g
       transform="translate(-39.225564,-37.556391)"
       id="g33"
       style="fill:#cccccc" />
    <g
       transform="translate(-39.225564,-37.556391)"
       id="g35"
       style="fill:#cccccc" />
  </g>
  <path
     style="fill:#cccccc;fill-rule:evenodd;stroke:none"
     d="M 9.4375 10.09375 L 9.4375 15.65625 L 15.71875 15.65625 L 15.71875 10.09375 L 9.4375 10.09375 z M 12.40625 10.78125 L 12.6875 10.78125 C 12.921737 10.78125 13.03125 10.833998 13.03125 11.03125 L 13.03125 11.40625 C 13.03125 11.603502 12.921737 11.6875 12.6875 11.6875 L 12.40625 11.6875 C 12.178178 11.6875 12.09375 11.603502 12.09375 11.40625 L 12.09375 11.03125 C 12.09375 10.833998 12.178178 10.78125 12.40625 10.78125 z M 12.09375 11.96875 L 13.03125 11.96875 L 13.03125 15.21875 L 12.09375 15.21875 L 12.09375 11.96875 z "
     id="rect3471" />
</svg>
