<?xml version="1.0" encoding="UTF-8" standalone="no"?>
<!-- Created with Inkscape (http://www.inkscape.org/) -->

<svg
   xmlns:dc="http://purl.org/dc/elements/1.1/"
   xmlns:cc="http://creativecommons.org/ns#"
   xmlns:rdf="http://www.w3.org/1999/02/22-rdf-syntax-ns#"
   xmlns:svg="http://www.w3.org/2000/svg"
   xmlns="http://www.w3.org/2000/svg"
   xmlns:sodipodi="http://sodipodi.sourceforge.net/DTD/sodipodi-0.dtd"
   xmlns:inkscape="http://www.inkscape.org/namespaces/inkscape"
   width="16px"
   height="16px"
   id="svg15205"
   version="1.1"
   inkscape:version="0.48.4 r9939"
   sodipodi:docname="New document 2">
  <defs
     id="defs15207" />
  <sodipodi:namedview
     id="base"
     pagecolor="#ffffff"
     bordercolor="#666666"
     borderopacity="1.0"
     inkscape:pageopacity="0.0"
     inkscape:pageshadow="2"
     inkscape:zoom="22.197802"
     inkscape:cx="2.9769802"
     inkscape:cy="8"
     inkscape:current-layer="layer1"
     showgrid="true"
     inkscape:grid-bbox="true"
     inkscape:document-units="px"
     inkscape:window-width="1280"
     inkscape:window-height="748"
     inkscape:window-x="0"
     inkscape:window-y="0"
     inkscape:window-maximized="1" />
  <metadata
     id="metadata15210">
    <rdf:RDF>
      <cc:Work
         rdf:about="">
        <dc:format>image/svg+xml</dc:format>
        <dc:type
           rdf:resource="http://purl.org/dc/dcmitype/StillImage" />
        <dc:title></dc:title>
      </cc:Work>
    </rdf:RDF>
  </metadata>
  <g
     id="layer1"
     inkscape:label="Layer 1"
     inkscape:groupmode="layer">
    <g
       transform="translate(0.00452277,-0.01384147)"
       id="g15230">
      <path
         d="m 7.9969077,0.11650694 c -1.4007067,0 -2.7140979,0.36839439 -3.8550746,1.00896536 -7.116e-4,4.239e-4 -0.00215,-4.24e-4 -0.00286,0 C 3.4006596,1.5402765 2.7401341,2.0737717 2.1728515,2.6946499 0.88946266,4.0993022 0.09813846,5.9625202 0.09813846,8.0138441 c 0,4.3598569 3.53969254,7.8973279 7.89876924,7.8973319 0.1371916,0 0.2703254,-0.01309 0.405797,-0.02001 0.2179896,-0.01115 0.4328661,-0.02866 0.6458439,-0.05717 1.9749064,-0.264247 3.7193004,-1.253274 4.9524444,-2.698187 1.177414,-1.379601 1.891823,-3.1673045 1.891823,-5.1219649 0,-0.9975275 -0.190817,-1.9478246 -0.528682,-2.8268059 C 15.198429,4.7559288 14.993618,4.3432061 14.758296,3.9522737 13.738464,2.2580517 12.105733,0.98002709 10.163066,0.42519969 9.4734093,0.22823676 8.7495043,0.11650694 7.9969077,0.11650694 z"
         style="fill:none;stroke:#cccccc;stroke-width:0.20533076;stroke-miterlimit:4;stroke-opacity:1;stroke-dasharray:none;display:inline"
         id="path6109"
         inkscape:connector-curvature="0" />
      <path
         d="m 6.8847278,0.37602102 c -0.02843,0 -0.07341,0.005189 -0.09269,0.0309097 -0.01862,0.0248249 -0.03649,0.0570848 -0.05664,0.0772312 -0.01207,0.0120727 -0.02471,0.0463501 -0.05665,0.0463501 -0.01842,0 -0.07944,-0.009939 -0.09269,0 -0.02455,0.0184228 -0.05918,0.0359097 -0.06694,0.0669429 -0.01,0.0398598 -0.04372,0.0334177 -0.07208,0.0617871 -0.01601,0.0160154 -0.05346,0.0455547 -0.07724,0.0515025 -0.0311,0.007769 -0.05838,0.0154363 -0.09269,0.0154442 -0.0261,0 -0.06236,-0.006289 -0.08754,0 -0.04112,0.0102807 -0.06264,0.0478496 -0.09783,0.0566431 -0.032,0.008001 -0.0465,0.0207974 -0.0618,0.0411978 -0.01976,0.0263443 -0.06571,0.0411899 -0.09784,0.0411899 -0.04934,0 -0.05148,0.009002 -0.08754,0.0360455 -0.02561,0.0192104 -0.07038,0.0257451 -0.102991,0.0257451 -0.04378,0 -0.10581,0.001407 -0.14418,0.0205929 -0.02612,0.0130738 -0.06076,0.0180252 -0.07209,0.0463544 -0.01809,0.0452125 -0.03325,0.0500878 -0.07724,0.072099 -0.02559,0.0128 -0.08201,0.030496 -0.102991,0.051479 -0.016,0.016011 -0.02488,0.073003 -0.04634,0.077252 0.0015,9.099e-4 0.03374,0.029021 0.04119,0.03089 0.03167,0.00793 0.07286,0.00515 0.108137,0.00515 0.04264,0 0.07985,0.00515 0.123582,0.00515 0.03761,0 0.05996,-0.025749 0.09269,-0.025749 0.04383,0 0.08747,-1.59e-5 0.128735,0.010301 0.0344,0.0086 0.06682,0.020596 0.102982,0.020596 0.03829,0 0.05988,-0.00209 0.09269,-0.0103 0.04165,-0.010413 0.06672,-0.00828 0.08754,-0.036042 0.01832,-0.02443 0.03375,-0.03947 0.05664,-0.05665 0.01829,-0.013717 0.08755,-0.087536 0.102987,-0.087544 0.03838,0 0.06643,-0.011437 0.102983,-0.020589 0.02512,-0.00628 0.02611,-0.0668748 0.0515,-0.061795 0.01492,0.002988 0.04552,0.0401211 0.06179,0.0360456 0.01416,-0.00354 0.03169,-0.00739 0.04635,-0.00514 0.01466,0.002227 0.02654,0.0134319 0.0309,0.0308895 0.0086,0.034317 0.01847,0.033216 0.03604,0.056643 0.0086,0.011482 0.05137,0.062293 0.04634,0.082396 -0.0061,0.024476 -0.01194,0.065508 -0.0051,0.092681 0.0068,0.027292 0.0081,0.057433 0.02059,0.082396 0.0083,0.016686 0.03191,0.055517 0.03605,0.072087 0.0081,0.032288 0.02601,0.031428 0.0412,0.061796 0.01808,0.036178 0.0091,0.05194 -0.0052,0.087536 -0.01218,0.030451 -0.02993,0.065693 -0.02061,0.1029927 0.0019,0.00769 0.0032,0.018037 0.0052,0.025749 0.0058,0.023041 0.009,0.035515 0.01545,0.041187 0.0064,0.00568 0.01536,0.00515 0.04119,0.00515 0.03039,0 0.07227,1.589e-4 0.08754,0.01544 0.02064,0.020653 0.0412,0.032252 0.0412,0.061795 0,0.021261 -0.01175,0.077968 -0.03091,0.087541 -0.01384,0.00693 -0.05664,0.044108 -0.05664,0.066939 0,0.028679 0.0051,0.061051 0.0051,0.08754 0,0.00578 -0.0014,0.015003 0,0.020605 0.0085,0.034189 0.01582,0.077967 0.0309,0.1081329 0.01187,0.023731 0.03849,0.044715 0.0515,0.077244 0.01149,0.028739 0.01262,0.071597 0.02575,0.09784 0.01449,0.028997 0.029,0.052853 0.04119,0.077236 0.01445,0.028896 0.02314,0.084932 0.04635,0.1081447 0.02735,0.027344 0.03828,0.045892 0.0618,0.077236 0.02018,0.026914 0.04581,0.061256 0.06693,0.082388 0.01877,0.018777 0.03791,0.043055 0.06181,0.066943 0.04917,0.049188 0.07887,0.078055 0.139026,0.1081409 0.03081,0.015409 0.06659,0.030713 0.09784,0.046342 0.03532,0.017663 0.06517,0.041154 0.09269,0.061795 0.03129,0.023471 0.06383,0.05741 0.10814,0.046342 0.0384,-0.00961 0.0975,-0.0024 0.133882,-0.020604 0.01197,-0.00597 0.02514,-0.00987 0.03604,-0.020585 0.01091,-0.010719 0.02017,-0.026609 0.0103,-0.046358 -0.008,-0.016043 -0.02574,-0.042106 -0.02574,-0.066931 0,-0.042194 -0.01029,-0.080166 -0.01029,-0.1235815 0,-0.030761 -0.0019,-0.05444 0.0051,-0.0824 0.0055,-0.022105 0.0071,-0.054014 0,-0.082383 -0.0087,-0.034921 -0.0016,-0.068358 -0.01029,-0.1029933 -0.0072,-0.028767 -0.0051,-0.065817 -0.0051,-0.097832 0,-0.03001 -0.0017,-0.054951 0.0051,-0.082388 0.0081,-0.032261 0.0052,-0.065898 0.0052,-0.097841 0,-0.027389 -0.0046,-0.057784 0.0052,-0.077244 0.0099,-0.019886 0.02296,-0.067727 0.05149,-0.077248 0.02409,-0.00803 0.10814,-0.026224 0.10814,-0.056634 0,-0.033912 -0.0032,-0.059235 -0.0103,-0.087541 -0.0081,-0.032541 -0.02948,-0.064608 -0.01029,-0.1029886 0.02205,-0.044124 0.06524,-0.056088 0.09269,-0.092688 0.01563,-0.020846 0.04269,-0.042693 0.06693,-0.066948 0.01822,-0.01821 0.05823,-0.034044 0.06695,-0.051491 0.0113,-0.02259 0.02575,-0.056225 0.02575,-0.082396 0,-0.018434 0.008,-0.083529 -0.0103,-0.092688 -0.02665,-0.013319 -0.05664,-0.00864 -0.05664,-0.041193 0,-0.021638 0.02335,-0.071718 0.01545,-0.08754 -0.01249,-0.024994 -0.02642,-0.046511 -0.06695,-0.056639 -0.03194,-0.00799 -0.07585,-0.014143 -0.108132,-0.020596 -0.01956,-0.00391 -0.06404,-0.00965 -0.07209,-0.025745 -0.0092,-0.01835 -0.01812,-0.068289 -0.03604,-0.077252 -0.02921,-0.014609 -0.06221,-0.015441 -0.09785,-0.015441 -0.009,0 -0.120113,-0.026621 -0.08238,-0.036038 0.03751,-0.00938 0.0364,-0.016168 0.05148,-0.046354 0.0086,-0.017124 0.02577,-0.0463184 0.0103,-0.0669387 -0.02154,-0.0287433 -0.05087,-0.0405796 -0.07209,-0.0617991 -0.02816,-0.0281747 -0.0934,-0.0411924 -0.133879,-0.0411924 -0.0058,0 -0.0099,0.001396 -0.01545,0 -0.02282,-0.005707 -0.04408,-0.0286344 -0.06179,-0.0463465 -0.02625,-0.0262629 -0.0738,-0.0377612 -0.108136,-0.0463417 -0.02599,-0.006496 -0.0419,-0.0285022 -0.07209,-0.036054 -0.02978,-0.007435 -0.06171,-0.007684 -0.09269,-0.01544 -0.04046,-0.01012 -0.08363,-0.0177644 -0.123589,-0.0257578 -0.01484,-0.002957 -0.119603,-0.0107182 -0.113287,-0.0360376 0.0039,-0.0154929 0.02376,-0.0514903 0.04634,-0.0514903 0.03099,0 0.06759,0.006056 0.09785,0 0.03949,-0.007901 0.08,-0.0154606 0.12359,-0.015449 0.03976,0 0.07979,0.002571 0.118424,0.0102971 0.04829,0.009665 0.101789,0.003554 0.149338,0.015448 0.03735,0.009337 0.0949,0.0154452 0.133881,0.0154452 0.05491,0 0.118867,-0.005151 0.175083,-0.005151 0.08588,0 0.162589,-0.0205891 0.247168,-0.0205891 0.04894,0 0.06567,-0.0298323 0.10299,-0.0360455 0.01891,-0.003152 0.035,-0.008608 0.04119,-0.015457 0.0062,-0.006828 7.95e-4,-0.0139576 -0.02575,-0.020597 -0.0323,-0.00807 -0.06954,0.003205 -0.102987,-0.005146 -0.02513,-0.006281 -0.06506,-0.0154363 -0.09269,-0.0154363 -0.03974,0 -0.07376,-0.005151 -0.113286,-0.005151 -0.02829,0 -0.05382,0.008292 -0.08238,0.0154411 -0.03764,0.009416 -0.07381,0 -0.113291,0 -0.04042,0 -0.08317,0 -0.123589,0 -0.05533,0 -0.113441,-0.0102882 -0.164779,-0.0102882 -0.03346,0 -0.06619,-0.005151 -0.09269,-0.005151 -0.0526,0 -0.113583,-1.5896e-4 -0.154484,-0.0205964 -0.03812,-0.0190776 -0.06578,-0.0306161 -0.108132,-0.0412021 -0.01958,-0.004897 -0.06497,-0.0566505 -0.08239,-0.0566505 z m 3.2853162,0.0617949 c -0.06455,0.0134472 -0.131185,0.0212074 -0.1905292,0.0360578 -0.07507,0.0187603 -0.121354,0.0533308 -0.190524,0.0360376 -0.04812,-0.0120287 -0.09383,-0.0156701 -0.144185,-0.0257494 0.01634,0.0163528 0.0085,0.0376654 -0.0051,0.0566427 -0.01363,0.0189856 -0.03596,0.0334133 -0.04635,0.0411978 -0.0015,0.001137 -0.118728,0.0142352 -0.123586,0.0154527 -0.0279,0.006973 -0.01703,0.0257536 0,0.0463422 0.01704,0.0206014 0.04314,0.0391083 0.0515,0.0411937 0.06367,0.0159271 0.144027,0.0539866 0.20082,0.0823877 0.02441,0.0122097 0.03584,0.0218474 0.04119,0.0360497 0.0054,0.0141951 0.0047,0.0341935 0.0103,0.0566469 0.01107,0.0443087 0.01755,0.0576877 0.05665,0.0772397 0.03419,0.0170964 0.11091,0.0206008 0.149331,0.0206008 0.06225,0 0.1542992,0.0308376 0.2008282,0.046338 0.03922,0.013074 0.09746,0.056273 0.123581,0.082392 0.02713,0.02714 0.053,0.043199 0.0824,0.082396 0.03404,0.045378 0.06848,0.070275 0.113282,0.092681 0.03873,0.019371 0.09928,0.018744 0.123586,0.030893 0.04422,0.02212 0.09797,0.056779 0.128739,0.087544 0.0363,0.036303 0.06513,0.070278 0.09268,0.09784 0.03578,0.03578 0.04437,0.075756 0.08754,0.1081366 0.0442,0.033152 0.07967,0.059066 0.113291,0.092693 0.03899,0.038991 0.07384,0.058378 0.10814,0.09268 0.02698,0.02699 0.0537,0.066199 0.09784,0.077248 0.06005,0.015011 0.09824,-0.02327 0.149336,-0.036045 0.02502,-0.00627 0.115624,0.087998 0.128726,0.097844 0.03038,0.022759 0.0597,0.067904 0.0721,0.092685 0.0141,0.028208 0.06187,0.067023 0.08239,0.08754 0.03968,0.039678 0.0491,0.047725 0.09784,0.072088 0.01997,0.00999 0.04275,0.011639 0.06179,0.00514 0.01905,-0.00647 0.03216,-0.020545 0.03605,-0.036054 0.01076,-0.043035 0.02728,-0.065986 0.01545,-0.1132768 -0.0069,-0.027868 -0.0027,-0.059592 0.0103,-0.082392 0.01295,-0.022795 0.03402,-0.034486 0.0721,-0.015448 0.0272,0.013616 0.04451,0.058118 0.05664,0.082396 0.01711,0.034249 0.0412,0.079542 0.0412,0.128721 0,0.043665 0,0.072144 0,0.118446 0,0.018752 0.216581,0.1393356 0.221422,0.144187 0.02776,0.027746 0.06518,0.045169 0.09783,0.066935 0.03594,0.023964 0.05917,0.047608 0.108135,0.072096 0.02777,0.013885 0.04273,0.039643 0.0515,0.066939 0.0088,0.027296 0.01082,0.054553 0.0051,0.07724 -0.0063,0.025452 0.01515,0.083566 0.0051,0.1235899 -0.0078,0.031046 -0.01348,0.055654 -0.0103,0.072091 0.0032,0.016437 0.01647,0.023675 0.05149,0.04119 0.0508,0.0254 0.07001,0.065697 0.123586,0.09784 0.02803,0.016819 0.05001,0.213292 0.06695,0.2471756 0.01951,0.039024 0.04141,0.09178 0.0309,0.1338823 -0.01142,0.045692 -0.0309,0.079591 -0.0309,0.128734 0,0.035025 -0.02746,0.084084 -0.03605,0.1184374 -0.0082,0.032782 -0.02377,0.067394 -0.0309,0.092688 -0.0071,0.025291 -0.0058,0.041965 0.0309,0.056643 0.0477,0.019086 0.126192,0.041194 0.175075,0.041194 0.05173,0 0.102781,0 0.154484,0 0.02456,0 0.04935,0.049296 0.07209,0.1029885 0.02274,0.053693 0.04186,0.1114242 0.04635,0.1338864 0.0095,0.04766 0.022,0.068333 0.05149,0.097836 0.03868,0.038695 0.09523,0.07196 0.10814,0.1235864 0.01473,0.058942 0.03507,0.074025 0.0103,0.1235856 -0.01205,0.024117 -0.09667,0.043188 -0.123586,0.056644 -0.03863,0.019319 -0.10356,0.026367 -0.159631,0.041197 -0.02803,0.00741 -0.05349,0.018242 -0.07209,0.030894 -0.0186,0.012647 -0.0309,0.029378 -0.0309,0.051495 0,0.050409 0.02029,0.07148 0.0412,0.1132848 0.02275,0.045502 0.04376,0.080652 0.07209,0.1184374 0.0046,0.00615 0.01,0.015155 0.01545,0.020597 0.0314,0.031412 0.02809,0.080382 0.05664,0.1184337 0.03935,0.052506 0.05878,0.096972 0.08753,0.1544911 0.02769,0.055369 0.09017,0.097941 0.123585,0.1647676 0.01867,0.037349 0.0515,0.1084622 0.0515,0.1596392 0,0.040374 0.0213,0.080064 0.0309,0.1184375 0.0073,0.029262 0.03702,0.057684 0.06694,0.077244 0.02993,0.019552 0.06026,0.034365 0.08754,0.041189 0.04818,0.012048 0.104082,0.00514 0.154484,0.00514 0.05337,0 0.08606,-0.015436 0.133882,-0.015436 0.02757,0 0.06667,-0.071734 0.08239,-0.092696 0.0344,-0.045881 0.05443,-0.07353 0.06694,-0.123578 0.0067,-0.026991 0.01377,-0.053913 0.01545,-0.082405 0.0017,-0.02847 -0.0038,-0.055235 -0.02575,-0.077231 -0.01874,-0.018748 -0.02192,-0.037223 -0.0206,-0.056654 0.0013,-0.019408 0.0072,-0.038715 0.0206,-0.056635 0.0072,-0.00962 0.0103,-0.1330182 0.0103,-0.1390346 0,-0.005 -0.06539,-0.087185 -0.07724,-0.1029847 -0.02892,-0.03857 -0.03625,-0.087917 -0.05664,-0.1287375 -0.022,-0.04402 -0.02575,-0.082657 -0.02575,-0.1390308 0,-0.043549 0,-0.085181 0,-0.1287375 0,-0.058909 -0.02695,-0.078429 -0.05664,-0.1081335 -0.03126,-0.031268 -0.02999,-0.058178 -0.04118,-0.1029931 -0.0077,-0.030744 -0.0041,-0.048769 0.0051,-0.061787 0.0093,-0.013029 0.02722,-0.021702 0.04634,-0.036053 0.0317,-0.023763 0.0412,-0.0739 0.0412,-0.1132772 -8e-6,-0.028425 -0.0089,-0.057186 -0.0103,-0.077248 -0.0014,-0.020066 0.0031,-0.035526 0.02575,-0.04119 0.02086,-0.00523 0.04449,0.011937 0.06179,0.030889 0.01731,0.018957 0.02897,0.042062 0.03604,0.051497 0.02683,0.035778 0.03233,0.056419 0.06695,0.082388 0.04651,0.0349 0.114394,0.052045 0.154484,0.0721 0.04238,0.021196 0.08114,0.042826 0.113282,0.066936 0.03982,0.029872 0.07307,0.057627 0.09784,0.082384 0.02365,0.023656 0.03054,0.069904 0.0515,0.097844 0.02195,0.029285 0.04661,0.036303 0.07208,0.061799 0.02749,0.027497 0.04313,0.081111 0.05664,0.1081329 0.01498,0.029958 0.0254,0.041587 0.03604,0.041194 0.01065,-3.784e-4 0.02388,-0.014512 0.04635,-0.025745 0.01422,-0.00712 -0.02213,-0.1142657 -0.02574,-0.1287375 -0.01006,-0.040242 -0.06682,-0.097575 -0.08239,-0.1287344 -0.01662,-0.033249 -0.01126,-0.047467 0,-0.046349 0.01124,0.00113 0.0296,0.014151 0.04119,0.025749 0.03407,0.034068 0.06657,0.045598 0.09269,0.097841 0.01131,0.022618 0.05432,0.054316 0.07725,0.077243 0.03356,0.03357 0.0289,0.064142 0.0412,0.1132931 0.0043,0.017381 0.01519,0.021537 0.02574,0.020585 0.01054,-9.311e-4 0.02363,-0.00961 0.03605,-0.020585 0.02483,-0.021991 0.05037,-0.054409 0.05663,-0.066943 0.0154,-0.030805 0.02001,-0.065171 0.0309,-0.097841 0.01418,-0.04256 0.0072,-0.079297 -0.0051,-0.1132886 -0.01241,-0.033996 -0.03317,-0.064878 -0.04635,-0.09784 -0.01179,-0.029467 -0.03001,-0.055173 -0.04635,-0.082392 -0.04952,-0.082524 -0.09051,-0.1604151 -0.133878,-0.2471674 -0.0022,-0.00423 -0.0031,-0.00602 -0.0051,-0.010304 C 13.743485,2.270936 12.11272,0.99264649 10.17005,0.43781541 z M 5.1442288,1.1175352 c -0.02592,0 -0.06727,0.049095 -0.08238,0.056655 -0.03316,0.016574 -0.06778,0.054685 -0.09785,0.077231 -0.03127,0.023463 -0.05772,0.044574 -0.08753,0.066944 -0.03402,0.02552 -0.05659,0.030901 -0.108142,0.030901 -0.0489,1.22e-5 -0.05,0.022414 -0.08754,0.041197 -0.04391,0.021952 -0.08451,0.091764 -0.102989,0.1287257 -0.01741,0.03484 -0.0424,0.078445 -0.06179,0.09784 -0.02357,0.023575 -0.06558,0.037931 -0.09269,0.051498 -0.03233,0.016152 -0.02059,0.079972 -0.02059,0.1132853 0,0.022261 -0.08679,0.025753 -0.09269,0.025753 -0.01181,0 -0.08025,-0.1008465 -0.08754,-0.1081451 -0.03642,-0.036431 -0.01747,-0.042982 -0.07209,-0.056647 -0.02957,-0.00739 -0.05362,-0.00487 -0.06694,-0.010297 -0.01332,-0.00543 -0.0206,-0.019994 -0.0206,-0.056639 0,-0.039727 0.04756,-0.05786 0.06694,-0.077248 0.02357,-0.023555 0.06995,-0.040124 0.09269,-0.05149 0.03313,-0.016574 0.0471,-0.047087 0.07209,-0.072096 0.03104,-0.031046 0.03605,-0.06675 0.03605,-0.1132847 0,-0.014516 -0.07326,-0.044353 -0.08754,-0.051491 -0.03269,-0.016352 -0.05346,-0.052475 -0.09269,-0.072095 -7.12e-4,4.239e-4 -0.0044,-3.709e-4 -0.0052,0 -0.738303,0.4147971 -1.399787,0.9445425 -1.967066,1.5654175 -0.0063,0.03181 -0.0093,0.070065 -0.0206,0.092684 -0.02162,0.04326 -0.05195,0.051953 -0.08239,0.0824 -0.02279,0.022787 -0.03489,0.065384 -0.05149,0.087544 -0.02391,0.031867 -0.06016,0.044707 -0.08754,0.072083 -0.02654,0.026537 -0.02574,0.086893 -0.02574,0.1235941 0,0.034731 0.01535,0.047516 0.03089,0.046335 0.01554,-0.00117 0.02904,-0.016884 0.0412,-0.04119 0.01503,-0.030086 0.09037,-0.076789 0.118435,-0.09784 0.0385,-0.028887 0.09333,-0.047621 0.113285,-0.08754 0.01804,-0.036078 0.03524,-0.058572 0.04634,-0.1029849 0.01475,-0.059022 0.04739,-0.08447 0.07724,-0.1441949 0.01067,0.033334 0.02811,0.07445 0.0618,0.1081452 0.01541,0.015416 0.02261,0.037741 0.0206,0.056647 -0.002,0.018901 -0.01324,0.036777 -0.0206,0.051483 -0.01159,0.023197 -0.05822,0.058222 -0.08239,0.0824 -0.02928,0.02929 -0.04539,0.028989 -0.06179,0.0618 -0.01771,0.035411 -0.04713,0.044272 -0.05664,0.08238 -0.0089,0.035604 -0.02714,0.062233 -0.03604,0.097832 -0.01271,0.050831 -0.0043,0.081515 -0.0412,0.1184455 -0.02504,0.025041 -0.03921,0.07443 -0.04635,0.1029926 -0.01266,0.050663 -0.0354,0.063877 -0.06694,0.087528 -0.03437,0.025798 -0.04679,0.079012 -0.05665,0.1184488 -0.0129,0.051603 -0.0743,0.1073903 -0.09784,0.1544798 -0.02022,0.040442 -0.0361,0.046438 -0.05664,0.087544 -0.01427,0.028555 -0.01634,0.075633 -0.02575,0.1132772 -0.01044,0.041793 -0.03397,0.081331 -0.06179,0.1184337 -0.0046,0.00617 -0.01515,0.010011 -0.02059,0.015453 -0.02749,0.027501 -0.04635,0.090952 -0.04635,0.1287345 0,0.035173 -0.04743,0.097031 -0.05664,0.1338811 -0.01254,0.050132 -0.02237,0.091077 -0.0412,0.1287299 -0.02323,0.046483 -0.04524,0.064748 -0.06694,0.108142 -0.02387,0.047748 -0.03778,0.075568 -0.05664,0.1132885 -0.01515,0.030319 -0.01544,0.073835 -0.01544,0.1132931 0,0.034683 -0.01209,0.089546 -0.0206,0.123578 -0.0094,0.037729 0,0.089779 0,0.1287421 0,0.050474 -0.01805,0.079835 -0.04635,0.1081328 -0.03316,0.033168 -0.05438,0.052725 -0.06694,0.1029931 -0.008,0.031817 -0.02924,0.073924 -0.04634,0.1081245 -0.02264,0.045273 -0.02538,0.071585 -0.05665,0.1132931 -0.02358,0.031437 -0.04068,0.080314 -0.05149,0.1235826 -0.01149,0.045979 -0.01522,0.081925 -0.03604,0.1235856 -0.02097,0.041945 -0.02549,0.071038 -0.03605,0.1132848 -0.01023,0.040969 -0.02746,0.070363 -0.0412,0.097844 -0.01986,0.03972 -0.02059,0.082329 -0.0309,0.1235909 -0.01124,0.044999 -0.01544,0.099022 -0.01544,0.1441659 0,0.039582 -0.0206,0.08793 -0.0206,0.1338903 0,0.047479 -0.005,0.0868 -0.01545,0.1287383 -0.01011,0.040442 -0.0052,0.083661 -0.0052,0.1287337 0,0.064077 -0.01544,0.1253614 -0.01544,0.1905281 0,0.050101 0.01979,0.058556 0.0309,0.1029892 0.0098,0.03914 0.0059,0.085277 0.01544,0.1235735 0.0047,0.018713 0.01031,0.033957 0.01031,0.056663 0.01556,0.062269 0.05664,0.080679 0.05664,0.1441737 0,0.049916 0.0052,0.072437 0.01544,0.11329 0.01,0.039844 0,0.0926 0,0.1338819 0,0.041218 -0.01594,0.094679 -0.02574,0.1338866 -0.0013,0.00527 0,0.01 0,0.015444 0,0.049256 -0.01544,0.1013936 -0.01544,0.154479 0,0.015118 0.03048,0.086709 0.04119,0.108142 0.01988,0.039751 0.03068,0.096944 0.0412,0.1390459 0.01555,0.062225 0.03308,0.1161461 0.05664,0.1750722 0.01876,0.046886 0.02099,0.083365 0.04119,0.1338698 0.01322,0.033041 -0.002,0.094875 0.0051,0.1235939 0.01003,0.040113 0.0103,0.087106 0.0103,0.1287338 0,0.046921 0.01031,0.084092 0.01031,0.1287307 -8e-6,0.044585 0.0055,0.083987 0.01544,0.1235856 0.01184,0.047391 0.0051,0.0824 0.0206,0.1132848 0.02613,0.052274 0.05065,0.06358 0.06179,0.1081457 0.01114,0.044577 0.02653,0.08551 0.03605,0.123581 0.01113,0.044562 0.05647,0.081757 0.06694,0.1235902 0.01438,0.057506 0.06645,0.1087066 0.09269,0.1699309 0.01624,0.037903 0.01648,0.084427 0.0309,0.1132863 0.01368,0.02736 0.07693,0.051249 0.09784,0.066939 0.01954,0.014656 0.01944,0.031142 0.02575,0.046346 0.0063,0.015212 0.01679,0.028659 0.04635,0.036046 0.03537,0.00885 0.05871,0.044027 0.08238,0.061786 0.03119,0.023392 -0.01629,-0.075481 -0.02573,-0.1132834 -0.01069,-0.042758 -0.05363,-0.087649 -0.07209,-0.11843 -0.01728,-0.028808 -0.0024,-0.097487 -0.01545,-0.1235901 -0.02125,-0.042512 -0.04031,-0.078851 -0.0515,-0.1235811 -0.0119,-0.047612 -0.03449,-0.091664 -0.04634,-0.1390391 -0.01207,-0.048343 -0.03039,-0.081378 -0.05149,-0.123581 -0.02522,-0.050466 -0.05664,-0.068977 -0.05664,-0.128739 0,-0.038372 -0.02945,-0.1052268 -0.04635,-0.13903 -0.01779,-0.035572 -0.0103,-0.107192 -0.0103,-0.1493347 0,-0.041379 -0.01545,-0.075194 -0.01545,-0.1184299 0,-0.051068 -0.01396,-0.1021724 -0.02575,-0.1493345 -0.01084,-0.043384 -0.02574,-0.082184 -0.02574,-0.1287421 0,-0.034411 0.009,-0.046057 0.01544,-0.041194 0.0064,0.00487 0.01029,0.027393 0.01029,0.056655 0,0.032035 0.04346,0.065621 0.0515,0.097832 0.01135,0.045405 0.01929,0.09258 0.03089,0.1390346 0.0091,0.036533 -0.0099,0.088886 0,0.128742 0.01139,0.045595 0.03605,0.072023 0.03605,0.123578 0,0.04305 0.01544,0.074334 0.01544,0.1132931 0,0.028182 0.03418,0.085212 0.0412,0.113281 0.01105,0.0442 0.01998,0.090185 0.03089,0.1338856 0.0093,0.036982 0.03033,0.08525 0.0412,0.1287346 0.0088,0.03533 0.03089,0.07894 0.05664,0.1132809 0.0224,0.029873 0.02668,0.084253 0.0412,0.1132856 0.02304,0.046113 0.03412,0.073393 0.05664,0.1184374 0.01827,0.03654 0.0317,0.06501 0.0412,0.1029886 0.01074,0.042978 0.04809,0.1013208 0.06694,0.1390345 0.01795,0.035884 0.0381,0.075166 0.04635,0.1081374 0.01217,0.04872 0.02401,0.104673 0.04634,0.149331 0.01807,0.03616 0.03578,0.07157 0.05149,0.102993 0.02248,0.04497 0.05191,0.07764 0.08239,0.108137 0.03724,0.03723 0.08892,0.05521 0.133883,0.07723 0.04497,0.02204 0.08116,0.04655 0.09269,0.09269 0.01,0.03987 0.04246,0.08492 0.05665,0.11329 0.02098,0.04194 0.06038,0.08098 0.09269,0.113289 0.08549,0.0855 0.157621,0.176636 0.267772,0.231727 0.0373,0.01865 0.0621,0.02968 0.108144,0.0412 0.04643,0.01161 0.08419,0.01635 0.123579,0.03604 0.03971,0.01987 0.07664,0.02576 0.123588,0.02576 0.01867,0 0.06583,0.04348 0.09784,0.05149 0.02853,0.0071 0.07472,-0.0097 0.113282,0 0.05302,0.01325 0.0698,-0.03405 0.123588,-0.02059 0.0498,0.01245 0.126127,0.126776 0.169923,0.159623 0.03879,0.0291 0.07918,0.05977 0.123592,0.09784 0.04061,0.03482 0.06884,0.05455 0.118434,0.06694 0.03951,0.0099 0.06156,0.01532 0.09269,0.0309 0.03332,0.01666 0.08932,0.0051 0.128741,0.0051 0.03777,0 0.07562,0.05504 0.09784,0.07725 0.05278,0.05278 0.114887,0.0828 0.149326,0.128737 0.03026,0.04035 0.04758,0.09392 0.08239,0.128731 0.03133,0.03132 0.07527,0.07011 0.113288,0.108141 0.03146,0.03145 0.06735,0.05314 0.07724,0.09267 0.01057,0.04231 0.06136,0.06158 0.09269,0.07726 0.03453,0.01727 0.0811,0.028 0.113288,0.03604 0.02872,0.0072 0.07516,0.07054 0.09784,0.08754 0.01729,0.01297 0.106052,-0.0103 0.133885,-0.0103 0.03627,0 0.0808,0.0528 0.102995,0.08239 0.02527,0.03371 0.04101,0.06179 0.08753,0.06179 0.04793,0 0.08804,-0.0211 0.118435,-0.0515 0.02411,-0.0241 0.03089,-0.08952 0.03089,-0.123575 0,-0.03166 0.08178,0.04057 0.09784,0.05664 0.02513,0.02513 0.05806,0.06321 0.07724,0.08239 0.03622,0.03623 0.08554,0.08354 0.102991,0.118437 0.0175,0.035 0.0073,0.08166 0.02575,0.118437 0.02055,0.04112 0.03731,0.06518 0.0618,0.09783 0.0261,0.03481 0.02574,0.06286 0.02574,0.118437 0,0.0447 0.0103,0.07999 0.0103,0.123585 0,0.03812 -0.03255,0.05299 -0.04119,0.08754 -0.01034,0.04134 -0.02575,0.07021 -0.02575,0.123586 0,0.03701 -0.06694,0.07423 -0.06694,0.128733 0,0.0412 0.04131,0.103443 0.05149,0.14418 0.01168,0.04674 0.02472,0.106083 0.04635,0.149339 0.02493,0.04985 0.06359,0.0432 0.07723,0.09784 0.01173,0.04691 0.01472,0.09492 0.02575,0.139032 0.01038,0.04155 0.03643,0.05817 0.04635,0.09784 0.0086,0.03452 0.03515,0.06605 0.05665,0.08754 0.02654,0.02655 0.0718,0.0527 0.108128,0.06179 0.06584,0.01646 0.0902,0.04301 0.12359,0.08754 0.02933,0.0391 0.04413,0.08072 0.08753,0.113289 0.04317,0.03238 0.06225,0.03648 0.09269,0.06694 0.0069,0.0069 0.01244,0.01 0.0206,0.01545 0.04108,0.02738 0.05242,0.06224 0.10299,0.08754 0.04103,0.02052 0.07618,0.05495 0.113282,0.07725 0.04704,0.02822 0.07159,0.04866 0.11844,0.07208 0.04032,0.02017 0.0713,0.05881 0.10814,0.07724 0.04008,0.02005 0.06975,0.0366 0.118433,0.04635 0.03943,0.0079 0.08998,0.02249 0.123593,0.0309 0.05104,0.01276 0.100048,0.0217 0.139028,0.04119 0.03663,0.01831 0.0767,0.06125 0.09784,0.0824 0.03044,0.03042 0.0814,0.05356 0.118443,0.07207 0.02796,0.014 0.06655,0.03843 0.09268,0.05151 0.05206,0.02603 0.07254,0.06341 0.11844,0.09783 0.03535,0.02654 0.05951,0.05952 0.08753,0.08754 0.03416,0.03418 0.0548,0.08055 0.08239,0.108129 0.03292,0.03294 0.0467,0.06835 0.05665,0.108141 0.01248,0.04995 0.04692,0.07839 0.06694,0.11845 0.01974,0.03948 0.07655,0.06257 0.102987,0.09784 0.02564,0.03419 0.07571,0.04996 0.102986,0.07724 0.0358,0.0358 0.06721,0.04669 0.09785,0.08754 0.02978,0.0397 0.06166,0.05135 0.08238,0.07209 0.02927,0.02927 0.07164,0.04353 0.09784,0.05664 0.0079,0.0039 0.01272,0.0073 0.02061,0.01031 0.217978,-0.01115 0.430687,-0.02814 0.64367,-0.05665 0.0017,-0.0041 0.0091,-0.0054 0.01031,-0.0103 0.01357,-0.05429 0.07982,-0.09657 0.108132,-0.139035 0.02928,-0.04394 0.07573,-0.04913 0.113282,-0.05664 0.04467,-0.009 0.06446,-0.03872 0.09784,-0.07208 0.03405,-0.03407 0.06661,-0.0665 0.09784,-0.108138 0.0308,-0.04108 0.04187,-0.06956 0.06695,-0.102984 0.02967,-0.03957 0.03591,-0.07699 0.05664,-0.118446 0.02372,-0.04745 0.04878,-0.08361 0.08754,-0.102988 0.04509,-0.02256 0.05805,-0.05699 0.09784,-0.06693 0.05319,-0.01331 0.07625,-0.03451 0.123578,-0.04635 0.03836,-0.0096 0.1014602,-0.101454 0.1235932,-0.123585 0.03251,-0.03252 0.05463,-0.05396 0.08753,-0.09785 0.01214,-0.01619 0.02197,-0.0374 0.03605,-0.05149 0.01089,-0.01361 0.02001,-0.02243 0.0309,-0.03604 0.01826,-0.02284 0.0191,-0.09698 0.02573,-0.123582 0.0095,-0.03785 0.02872,-0.08832 0.04635,-0.123593 0.01811,-0.03623 0.01216,-0.08608 0.0309,-0.123578 0.02085,-0.0417 0.03397,-0.07823 0.0515,-0.11329 0.01958,-0.03918 0.0064,-0.0849 0.02573,-0.123581 0.01989,-0.03977 0.03177,-0.07897 0.04635,-0.108137 0.02088,-0.04178 0.01331,-0.05556 0.06693,-0.08239 0.02868,-0.01433 0.05811,-0.06326 0.0824,-0.08753 0.02267,-0.02267 0.0353,-0.09118 0.04636,-0.113289 0.01931,-0.03863 0.06775,-0.0729 0.09269,-0.09785 0.01971,-0.01972 0.03833,-0.06408 0.05664,-0.08238 0.02191,-0.02191 0.02532,-0.08585 0.03089,-0.108141 0.0089,-0.03553 0.0064,-0.07715 0.01546,-0.113285 0.01,-0.03981 -0.02893,-0.07012 -0.04636,-0.08754 -0.03305,-0.03305 -0.05516,-0.07612 -0.09783,-0.108141 -0.03669,-0.02752 -0.06227,-0.04167 -0.08239,-0.06179 -0.02647,-0.02648 -0.07344,-0.03929 -0.108148,-0.05664 -0.02961,-0.01482 -0.05661,-0.0206 -0.102983,-0.0206 -0.04354,0 -0.09034,0 -0.133882,0 -0.04697,0 -0.07171,0.0103 -0.113289,0.0103 -0.04437,8e-6 -0.07408,0.01031 -0.118429,0.01031 -0.04083,0 -0.08277,0 -0.1235852,0 -0.03695,0 -0.06483,-0.0206 -0.108144,-0.0206 -0.04437,0 -0.04835,-0.03012 -0.07209,-0.0618 -0.02126,-0.02835 -0.07762,-0.03604 -0.113287,-0.03604 -0.04841,0 -0.0932,-0.0051 -0.14933,-0.0051 -0.06484,0 -0.07559,0.0172 -0.123593,0.04119 -0.03396,0.01699 -0.06642,0.04067 -0.08754,0.0618 -0.0246,0.0246 -0.07892,0.0398 -0.108129,0.05149 -0.03841,0.01536 -0.08742,0.0091 -0.12359,0 -0.02464,-0.0061 -0.0322,-0.02243 -0.03604,-0.04121 -0.0038,-0.01876 0,-0.04239 0,-0.06694 0,-0.04768 0.02805,-0.06923 0.05664,-0.09783 0.0186,-0.01861 0.01545,-0.08433 0.01545,-0.113289 0,-0.05754 0.0062,-0.06476 -0.01545,-0.108136 -0.01862,-0.03725 -0.05645,-0.0513 -0.07725,-0.07209 -0.02464,-0.02465 -0.0432,-0.06896 -0.06694,-0.09268 -0.0227,-0.0227 -0.0463,-0.06685 -0.06179,-0.09784 -0.01535,-0.03073 -0.05906,-0.04755 -0.08754,-0.06181 -0.03541,-0.0177 -0.08932,-0.0236 -0.118431,-0.03089 -0.03561,-0.0089 -0.08667,0 -0.123594,0 -0.04081,0 -0.07761,0 -0.118431,0 -0.04362,0 -0.07739,0.0103 -0.118436,0.0103 -0.03075,0 -0.0604,0.02059 -0.102991,0.02059 -0.03356,0 -0.06462,-0.04667 -0.08753,-0.07724 -0.03004,-0.04005 -0.06688,-0.04627 -0.09269,-0.07208 -0.02755,-0.02756 -0.06082,-0.03506 -0.0824,-0.05664 -0.02555,-0.02557 -0.09558,-0.03805 -0.128731,-0.04635 -0.0487,-0.01218 -0.08948,-0.02415 -0.12359,-0.04119 -0.04698,-0.0235 -0.04877,-0.04605 -0.07209,-0.0927 -0.01985,-0.03969 -0.03605,-0.06161 -0.03605,-0.102981 0,-0.03278 -0.02001,-0.08639 -0.03089,-0.108138 -0.0079,-0.01573 -0.02077,-0.03291 -0.02574,-0.0412 -0.01594,-0.03189 -0.0022,-0.04952 0.0051,-0.06179 0.0073,-0.01227 0.01,-0.01811 -0.02059,-0.02575 -0.0037,-9.23e-4 -0.07511,0.06662 -0.08239,0.07209 -0.03255,0.0244 -0.057,0.01939 -0.102995,0.03089 -0.06784,0.01697 -0.07501,0.014 -0.133876,-0.01545 -0.02449,-0.01224 -0.02855,-0.02679 -0.03605,-0.03604 -0.0075,-0.0093 -0.01456,-0.01438 -0.05149,-0.0051 -0.03761,0.0094 -0.06556,0.03535 -0.09784,0.0515 -0.03643,0.01821 -0.0553,0.02216 -0.08754,0.04634 -0.0333,0.02499 -0.09279,0.04385 -0.123586,0.06695 -0.02842,0.02131 -0.103798,-0.01843 -0.11844,-0.02575 -0.03862,-0.01933 -0.03966,-0.0866 -0.04634,-0.113285 -0.009,-0.03606 -0.0193,-0.04045 -0.03089,-0.0309 -0.01158,0.0096 -0.02569,0.03593 -0.03604,0.05664 -0.01331,0.02663 -0.03266,0.03414 -0.05149,0.03604 -0.01883,0.0019 -0.0344,-0.0018 -0.0515,-0.01031 -0.0048,-0.0024 0.0052,-0.108189 0.0052,-0.123574 0,-0.02008 -0.06488,-0.07517 -0.0721,-0.0824 -0.0195,-0.01951 -0.03183,-0.01479 -0.0412,0 -0.0094,0.0148 -0.01698,0.03912 -0.02574,0.05664 -0.02006,0.04013 -0.02092,0.08918 -0.0309,0.139034 -0.0084,0.04216 -0.01029,0.08622 -0.01029,0.128738 0,0.02945 -0.02553,0.05127 -0.04634,0.07209 -0.01934,0.01935 -0.02249,-0.0075 -0.0206,-0.04635 0.0019,-0.03885 0.01051,-0.08647 0.0051,-0.113284 -0.0087,-0.04338 -0.0254,-0.08102 -0.03605,-0.123582 -0.0088,-0.03538 -0.0071,-0.07083 -0.0206,-0.09785 -0.01288,-0.02577 -0.03555,-0.0043 -0.05664,0.02576 -0.02109,0.03005 -0.04301,0.07107 -0.05149,0.08239 -0.0329,0.04387 -0.103679,0.08501 -0.128735,0.118438 -0.01185,0.01579 -0.07901,0.04207 -0.09784,0.05149 -0.04328,0.02164 -0.09774,0.08618 -0.133881,0.113282 -0.03437,0.02579 -0.03089,0.09899 -0.03089,0.139043 -4e-6,0.0505 0.01692,0.04339 -0.0103,0.09783 -0.01284,0.02568 -0.03356,0.02445 -0.0515,0.01545 -0.01794,-0.009 -0.0292,-0.02405 -0.03604,-0.0309 -0.02864,-0.02863 -0.0509,-0.04105 -0.09269,-0.05149 -0.04564,-0.01141 -0.08109,0.01125 -0.118436,0.02058 -0.05048,0.01264 -0.09646,0.03442 -0.144177,0.04636 -0.03866,0.0097 -0.09462,-0.0018 -0.128744,-0.0103 -0.02889,-0.0072 -0.05636,-0.04606 -0.08239,-0.07209 -0.03282,-0.03283 -0.04415,-0.04342 -0.07724,-0.08755 -0.02506,-0.03343 -0.03318,-0.05706 -0.06694,-0.08238 -0.04147,-0.03111 -0.05068,-0.01381 -0.07209,-0.05665 -0.01841,-0.03681 -0.03083,-0.06172 -0.05149,-0.08239 -0.02084,-0.02084 -0.01545,-0.07232 -0.01545,-0.113281 0,-0.04013 -0.01031,-0.09069 -0.01031,-0.133886 0,-0.04167 -0.0082,-0.08439 -0.01544,-0.113289 -0.009,-0.03619 -0.0051,-0.08755 -0.0051,-0.12359 0,-0.03032 -0.0515,-0.0605 -0.07725,-0.06693 -0.04268,-0.01067 -0.07284,-0.02059 -0.139029,-0.02059 -0.05514,0 -0.09962,0 -0.154484,0 -0.04082,0 -0.08276,0 -0.123584,0 -0.031,0 -0.03882,-0.0065 -0.05664,-0.01546 -0.0071,0 -0.04635,-0.108638 -0.04635,-0.123573 0,-0.04471 -0.01029,-0.07999 -0.01029,-0.123594 0,-0.04272 -0.0078,-0.08288 -0.01545,-0.113276 -0.0084,-0.03358 -0.0056,-0.074 -0.01545,-0.113294 -0.0089,-0.03561 0,-0.08666 0,-0.123582 0,-0.04466 0.0103,-0.06596 0.0103,-0.113289 0,-0.03169 0.0051,-0.07604 0.0051,-0.113286 0,-0.04791 -0.02701,-0.08303 -0.06694,-0.102988 -0.03485,-0.01743 -0.07686,-0.01031 -0.118432,-0.01031 -0.04255,0 -0.06952,0.01094 -0.108142,0.02059 -0.04376,0.01095 -0.06525,0.06011 -0.08239,0.07726 -0.02917,0.02916 -0.03175,0.07546 -0.0412,0.11328 -0.009,0.03617 -0.0051,0.08755 -0.0051,0.123589 0,0.02019 -0.04521,0.07785 -0.0515,0.102974 -0.0114,0.04566 -0.07401,0.07306 -0.102981,0.08754 -0.04296,0.02149 -0.116949,-0.0044 -0.149331,-0.0206 -0.0265,-0.01326 -0.07375,-0.08973 -0.08754,-0.108126 -0.02227,-0.0297 -0.04676,-0.0519 -0.06695,-0.07211 -0.02749,-0.02748 -0.05227,-0.04223 -0.08238,-0.08239 -0.02342,-0.03123 -0.04039,-0.06533 -0.0515,-0.08754 -0.01952,-0.03904 -0.02495,-0.06534 -0.04634,-0.108138 -0.0194,-0.0388 -0.04489,-0.07946 -0.06694,-0.123573 -0.02434,-0.04873 -0.0252,-0.07156 -0.05664,-0.102999 -0.03255,-0.032566 -0.04119,-0.077979 -0.04119,-0.1235941 0,-0.045699 -0.01545,-0.093705 -0.01545,-0.1390346 0,-0.041363 -0.01545,-0.080334 -0.01545,-0.1235818 9e-6,-0.041378 0,-0.080338 0,-0.1235818 9e-6,-0.038215 0.02575,-0.069731 0.02575,-0.1132885 0,-0.04752 -0.0103,-0.068564 -0.0103,-0.1132894 0,-0.053761 0.0043,-0.080314 0.02575,-0.1338826 0.01379,-0.034491 0.05346,-0.060553 0.06694,-0.08754 0.0162,-0.0324 0.0333,-0.056397 0.05665,-0.08754 0.02359,-0.031469 0.05984,-0.049758 0.09784,-0.061788 0.03799,-0.01204 0.07738,-0.021927 0.113282,-0.030892 0.05584,-0.013969 0.102803,-0.00778 0.154488,0.00514 0.05603,0.014014 0.110755,0.020597 0.169927,0.020597 0.0285,0 0.0422,0.01399 0.05664,0.025741 0.01444,0.011763 0.02861,0.022466 0.05664,0.015453 0.02855,-0.00715 0.0206,-0.099296 0.0206,-0.1235863 0,-0.029149 -0.01138,-0.044449 -0.0103,-0.056638 0.0011,-0.012194 0.01406,-0.022483 0.04119,-0.036054 0.0475,-0.023739 0.05446,-0.030893 0.113292,-0.030893 0.05197,0 0.100585,0.010301 0.149324,0.010301 0.02887,-4.6e-6 0.07086,0.032854 0.09785,0.046342 0.02626,0.013138 0.04263,0.013258 0.06179,0.015453 0.01917,0.00219 0.03666,0.00939 0.05665,0.036041 0.02738,0.036516 0.06655,0.061397 0.09269,0.08754 0.02854,0.028551 0.08308,0.044108 0.108142,0.05664 0.01837,0.00919 0.01538,0.1027236 0.0206,0.1235895 0.0099,0.03978 0.03353,0.072192 0.05149,0.1081366 0.02509,0.050177 0.03684,0.1049543 0.05664,0.1544873 0.01418,0.035447 0.02747,0.070383 0.0412,0.097837 0.02166,0.043351 0.03414,0.063418 0.07208,0.082388 0.03124,0.015618 0.06351,0.017168 0.09785,0.025748 0.04066,0.010169 0.07365,-0.026107 0.09269,-0.051501 0.01468,-0.019569 0.01069,-0.048991 0.0051,-0.077232 -0.0055,-0.028243 -0.0161,-0.056014 -0.02574,-0.072094 -0.03047,-0.050813 -0.02134,-0.1000724 -0.0412,-0.1596692 -0.01564,-0.046937 -0.04814,-0.091643 -0.07209,-0.1235856 -0.0239,-0.031875 -0.02833,-0.08756 -0.04634,-0.1235818 -0.01924,-0.038477 -0.03135,-0.068751 -0.04119,-0.1081443 -0.0097,-0.03878 -0.01224,-0.079844 -0.0206,-0.1132855 -0.01291,-0.051647 0.01712,-0.094352 0.05149,-0.1287261 0.02549,-0.025489 0.02885,-0.04332 0.03605,-0.0721 0.04115,-0.041162 0.06321,-0.090352 0.08754,-0.1390216 0.02076,-0.041556 0.0309,-0.075239 0.0309,-0.1235948 0,-0.025294 0.02335,-0.051751 0.05149,-0.077243 0.02814,-0.025481 0.06119,-0.050678 0.07724,-0.072088 0.02991,-0.03988 0.07093,-0.080089 0.09269,-0.1235856 0.01834,-0.0367 0.05469,-0.064282 0.06694,-0.1132848 0.0084,-0.033586 0.0056,-0.073993 0.01545,-0.1132892 0.01092,-0.043706 0.02038,-0.081516 0.03089,-0.1235819 0.01052,-0.042082 0.01003,-0.078309 0,-0.1184414 -0.0098,-0.039102 -0.02607,-0.077886 -0.04119,-0.1081382 -0.02042,-0.040855 -0.04869,-0.064129 -0.07209,-0.087543 -0.01845,-0.018447 -0.01544,-0.093982 -0.01544,-0.1235742 0,-0.026255 0.07875,-0.025752 0.102983,-0.025752 0.03758,0 0.08214,-0.024392 0.108136,-0.030898 0.02406,-0.00601 0.0576,-0.063695 0.07209,-0.092688 0.0181,-0.03621 0.03042,-0.070166 0.0412,-0.1132931 0.01165,-0.046603 -0.0103,-0.082589 -0.0103,-0.1235735 0,-0.035198 0.03903,-0.073582 0.06694,-0.08754 0.04015,-0.020083 0.06409,-0.036057 0.113291,-0.036057 0.04766,0 0.08785,0.0103 0.133881,0.0103 0.05503,0 0.06731,-0.016189 0.08754,-0.056635 0.01525,-0.030519 0.0103,-0.08721 0.0103,-0.1235893 0,-0.041717 -0.0026,-0.082593 -0.0103,-0.1132932 -0.0063,-0.025002 0.0049,-0.050505 0.0103,-0.072088 -0.0069,-0.027661 0.04965,-0.1114288 0.05664,-0.1184293 0.02689,-0.026898 0.05656,-0.054023 0.09269,-0.072095 0.03095,-0.015478 0.06685,-0.041086 0.09784,-0.072088 0.03338,-0.033401 0.062,-0.072303 0.08239,-0.092688 0.03014,-0.030166 0.03447,-0.060214 0.06179,-0.087543 0.01288,-0.012873 0.007,0.094116 0,0.1081374 -0.01003,0.020066 -0.0049,0.034189 0.0051,0.051502 0.01005,0.017293 0.02678,0.034993 0.0309,0.051487 0.0067,0.026786 -0.0044,0.044755 -0.0052,0.056647 -7.27e-4,0.01188 0.005,0.0206 0.04119,0.0206 0.05079,0 0.06368,-0.014066 0.0824,-0.051502 0.01997,-0.03994 0.05575,-0.044386 0.09269,-0.072092 0.02797,-0.020975 0.04378,-0.054059 0.07209,-0.082393 0.03328,-0.033284 0.05624,-0.040622 0.08754,-0.082387 0.02695,-0.035917 0.06289,-0.036592 0.102987,-0.056639 0.05634,-0.028185 0.03055,-0.066855 0.09269,-0.082392 0.03836,-0.0096 0.06253,-0.042665 0.07725,-0.072087 0.01538,-0.030762 -0.02574,-0.075279 -0.02574,-0.1081411 0,-0.052491 -0.0142,-0.072135 -0.0412,-0.1081329 -0.01457,-0.019431 -0.02877,-0.022964 -0.0412,-0.020605 -0.01243,0.00236 -0.02089,0.010586 -0.03089,0.020605 -0.02455,0.024547 -0.03605,0.087519 -0.0515,0.1184292 -0.02148,0.042962 -0.01067,0.071078 -0.04635,0.097845 -0.02607,0.019552 -0.09485,-0.053126 -0.113281,-0.066947 -0.03233,-0.024254 -0.08075,-0.030897 -0.123578,-0.030897 -0.02644,0 -0.03968,0.010135 -0.05149,0.015444 -0.01181,0.00531 -0.02342,0.00466 -0.0412,-0.030889 -0.01422,-0.028463 -0.0093,-0.088585 -0.01544,-0.1132893 -0.0056,-0.022381 -0.0193,-0.03177 -0.02575,-0.04119 -0.0065,-0.00942 -0.0022,-0.023527 0.0206,-0.04635 0.02986,-0.029861 0.04634,-0.017012 0.04634,-0.0721 0,-0.041495 0.03594,-0.072031 0.06695,-0.087531 0.04024,-0.020123 0.01855,-0.051492 0.07724,-0.051492 0.04087,0 0.08335,-0.013354 0.108141,-0.025745 0.0234,-0.011715 0.03722,-0.027682 0.03604,-0.041197 -0.0012,-0.013512 -0.01389,-0.020597 -0.0412,-0.020597 -0.05152,0 -0.08128,0.030892 -0.133882,0.030892 -0.0325,0 -0.08464,0.035472 -0.113289,0.041194 -0.04127,0.00825 -0.08065,0.00472 -0.123578,0.015453 -0.04421,0.011047 -0.07844,0.045353 -0.123594,0.056635 -0.03981,0.00996 -0.08957,0.075078 -0.09784,0.1081412 -0.01287,0.051518 -0.05488,0.096076 -0.09269,0.1338865 -0.03774,0.037741 -0.0561,0.038899 -0.09269,0.020596 -0.0049,-0.00242 0.05537,-0.1055849 0.06695,-0.1287338 0.02663,-0.053259 0.03531,-0.086793 0.08239,-0.1338902 0.03574,-0.035731 0.07313,-0.057658 0.10299,-0.087536 0.03508,-0.035073 0.05178,-0.070874 0.09784,-0.082388 0.04694,-0.011736 0.09965,-0.00514 0.149334,-0.00514 0.04715,-1.21e-5 0.07798,-0.020609 0.118433,-0.020609 0.03765,0 0.08,-0.052258 0.113285,-0.077227 0.03814,-0.028623 0.100195,-0.027256 0.144189,-0.036057 0.05004,-0.010004 0.0708,-0.023166 0.08753,-0.05664 0.01843,-0.036861 0.06712,-0.031057 0.0927,-0.056649 0.01828,-0.018287 0.02049,-0.037702 0.02574,-0.051491 0.0052,-0.013778 0.0096,-0.024279 0.03604,-0.030894 0.04054,-0.01013 0.08514,-0.00713 0.118436,-0.01544 0.03561,-0.00889 0.08152,0 0.11844,0 0.02899,0 0.04817,-0.00437 0.05664,-0.015448 0.0085,-0.01108 0.0103,-0.030073 0.0103,-0.051495 0,-0.04023 -0.02323,-0.074716 -0.0515,-0.1029929 -0.03246,-0.032458 -0.04991,-0.063767 -0.0721,-0.1081396 -0.01913,-0.038276 -0.03661,-0.083524 -0.05149,-0.1132893 -0.01756,-0.035132 -0.0309,-0.077248 -0.04635,-0.1081321 -0.02077,-0.041565 -0.06354,-0.063519 -0.09784,-0.0721 -0.03516,-0.00879 -0.07785,-0.046941 -0.09784,-0.06694 -0.02432,-0.024331 -0.04824,-0.049046 -0.07209,-0.066939 -0.0342,-0.025653 -0.05041,-0.02872 -0.06695,-0.061795 -0.01562,-0.031242 -0.0373,-0.05915 -0.05663,-0.097836 -0.01502,-0.030034 -0.03681,-0.047853 -0.0515,-0.07724 -0.01562,-0.031248 -0.0045,-0.081107 -0.01545,-0.1029885 -0.01478,-0.029575 -0.02582,-0.077397 -0.04119,-0.1081336 -0.01733,-0.034659 -0.02832,-0.041169 -0.04634,-0.077256 -0.023,-0.045984 0.0052,-0.072027 -0.02576,-0.1029805 -0.02934,-0.02935 -0.03104,-0.054143 -0.06694,-0.0721 -0.02202,-0.011 -0.03074,-0.021108 -0.04119,-0.025737 -0.01045,-0.00463 -0.02158,-0.00209 -0.04634,0.0103 -0.0045,0.00222 -0.03678,0.078698 -0.0412,0.087536 -0.01868,0.037379 -0.04488,0.044879 -0.08239,0.082388 -0.03459,0.034595 -0.05457,0.057656 -0.0721,0.092692 -0.01549,0.030986 -0.07762,0.010201 -0.09784,0.00515 -0.01866,-0.00467 -0.02215,-0.023598 -0.02059,-0.046346 0.0016,-0.022755 0.0047,-0.048266 0,-0.066951 -0.0089,-0.035604 0,-0.086653 0,-0.1235777 8e-6,-0.017695 0.01932,-0.018154 0.0412,-0.020601 0.02188,-0.00246 0.04928,-0.00808 0.06179,-0.020597 0.01547,-0.015485 0.02466,-0.024142 0.02575,-0.036049 0.0011,-0.0119 -0.0059,-0.026545 -0.02575,-0.046338 -0.0231,-0.023112 -0.08105,-0.013828 -0.108131,-0.020608 -0.05739,-0.014347 -0.08005,-0.00854 -0.123594,-0.04119 -0.03854,-0.028908 -0.06098,-0.053411 -0.07209,-0.097836 -0.0073,-0.029105 -0.06866,-0.023599 -0.09784,-0.030898 -0.04113,-0.010292 -0.08373,-0.010292 -0.128731,-0.010292 -0.0386,-1.17e-5 -0.06797,0.031147 -0.108137,0.041191 -0.02255,0.00565 -0.04156,-0.00376 -0.05664,-0.00515 -0.01508,-0.00138 -0.0275,0.00184 -0.03604,0.036041 -0.01134,0.045318 -0.02959,0.07462 -0.04635,0.1081334 -0.01378,0.027554 -0.01545,0.072944 -0.01545,0.1132932 0,0.050176 -0.0136,0.05889 0,0.1132852 0.0093,0.036998 -0.0034,0.085828 -0.0103,0.1132857 -0.01048,0.041941 0.01044,0.081829 0,0.1235893 -0.01337,0.053476 -0.02824,0.072241 -0.0051,0.1184375 0.02142,0.042842 0.04395,0.052226 0.05664,0.1029809 0.0102,0.040812 -0.01545,0.082677 -0.01545,0.1235901 0,0.035366 -0.05181,0.077646 -0.06694,0.097836 -0.01896,0.025295 -0.04119,0.068273 -0.04119,0.1029809 -3e-6,0.028233 -0.06704,0.04897 -0.0824,0.05665 -0.04091,0.020453 -0.06272,0.054432 -0.08754,0.087537 -0.01929,0.025721 -0.0206,0.086896 -0.0206,0.1184411 0,0.040298 -0.0103,0.080768 -0.0103,0.1235819 0,0.040831 0,0.082761 0,0.123594 0,0.041801 0.01014,0.062413 0,0.1029763 -0.0098,0.039007 -0.0568,0.064447 -0.08238,0.077243 -0.02411,0.012061 -0.0471,-0.00131 -0.06179,-0.020597 -0.01469,-0.019286 -0.02575,-0.046853 -0.02575,-0.061787 5e-6,-0.043561 0,-0.090333 0,-0.133894 5e-6,-0.034788 -0.01029,-0.075905 -0.01029,-0.1132779 0,-0.043557 0,-0.085187 0,-0.1287451 0,-0.05039 -0.01582,-0.073534 -0.02575,-0.113278 -0.0063,-0.025069 -0.06326,-0.063262 -0.08239,-0.082392 -0.02806,-0.02806 -0.06614,-0.051096 -0.09784,-0.066947 -0.02607,-0.013025 -0.0637,-0.048252 -0.08239,-0.066939 -0.03928,-0.039293 -0.06342,-0.054737 -0.08239,-0.092693 -0.01962,-0.039241 -0.07087,-0.046342 -0.113289,-0.046342 -0.04495,3.7e-6 -0.08894,-0.01006 -0.123583,-0.036037 -0.02493,-0.018696 -0.0309,-0.081531 -0.0309,-0.1081487 0,-0.051663 -0.0062,-0.092858 -0.01544,-0.139027 -0.0076,-0.037906 -0.0031,-0.09045 0.0051,-0.1235818 0.0116,-0.046438 0.06199,-0.082802 0.07724,-0.113289 0.02131,-0.042629 0.08899,-0.073534 0.123587,-0.1081372 0.03327,-0.033268 0.05113,-0.082114 0.09269,-0.1132932 0.05263,-0.039482 0.107307,-0.069081 0.164778,-0.09784 0.03038,-0.015184 0.03438,-0.058439 0.04635,-0.08238 0.02143,-0.042866 0.03469,-0.08103 0.06179,-0.1081407 0.03323,-0.033241 0.06237,-0.062357 0.09269,-0.092697 0.0263,-0.026296 0.1,-0.020592 0.113288,-0.020592 0.01815,0 0.0513,0.097455 0.05664,0.1081409 0.01127,0.022538 0.01983,0.035021 0.03605,0.04119 0.01621,0.00618 0.04118,0.00437 0.06179,0 0.04121,-0.00873 0.08868,-0.030476 0.144181,-0.046339 0.03091,-0.00884 0.06789,-0.067413 0.09784,-0.0824 0.02915,-0.014565 0.03089,-0.082645 0.03089,-0.1184334 0,-0.046981 -0.0051,-0.071706 -0.0051,-0.1132814 0,-0.023353 -0.0682,-0.049541 -0.08239,-0.056647 -0.01989,-0.00994 -0.02174,-0.032806 -0.01544,-0.056639 0.0063,-0.023845 0.02187,-0.047632 0.03089,-0.056643 0.02552,-0.025528 0.06966,-0.043163 0.102984,-0.051499 0.0443,-0.011072 0.08488,-0.00896 0.118435,-0.025749 0.03622,-0.018106 0.04585,-0.040687 0.0721,-0.06694 0.04079,-0.0408 0.04489,-0.066292 0.05663,-0.1132852 0.0086,-0.034539 0.004,-0.08826 0.01029,-0.113281 0.01041,-0.041624 0.05007,-0.080483 0.06695,-0.1029971 0.0124,-0.01653 0.01751,-0.031033 0.0309,-0.041195 0.01338,-0.010164 0.03057,-0.015448 0.0618,-0.015448 0.02972,0 0.04901,0.00131 0.06179,0.010305 0.01278,0.00897 0.02027,0.025098 0.0309,0.046338 0.01525,0.030524 0.0052,0.087215 0.0052,0.1235942 0,0.043734 -0.03399,0.059722 -0.05665,0.082383 -0.0205,0.020501 0.07182,0.064167 0.08239,0.072096 0.0164,0.012289 0.0073,0.038738 -0.01029,0.066939 -0.01759,0.0282 -0.04315,0.055405 -0.04635,0.061795 -0.01343,0.026847 -0.0475,0.053786 -0.06694,0.092692 -0.02587,0.051739 -0.03099,0.059235 -0.102994,0.07724 -0.04669,0.011662 -0.08483,0.047561 -0.113282,0.061783 -0.02033,0.010172 -0.02115,0.024544 -0.01545,0.041197 0.0057,0.016658 0.0145,0.035109 0.0206,0.041194 0.0357,0.0357 0.05111,0.034667 0.09784,0.046347 0.0555,0.013885 0.07525,-0.00266 0.108133,0.041197 0.02235,0.029797 0.03158,0.042552 0.04635,0.072092 0.02097,0.041957 0.04518,0.067449 0.05665,0.113281 0.0051,0.020336 0.08155,0.027907 0.108132,0.041197 0.03459,0.017297 0.08851,0.021079 0.11844,0.036049 0.0379,0.018954 0.05533,0.03056 0.09784,0.041193 0.03433,0.00858 0.04557,0.025549 0.08754,0.036046 0.02506,0.00627 0.04057,0.00817 0.0515,0 0.01093,-0.00817 0.01505,-0.024174 0.0206,-0.046343 0.0046,-0.018407 -0.01558,-0.041226 -0.03605,-0.056639 -0.02046,-0.015421 -0.04072,-0.022944 -0.04634,-0.025757 -0.04313,-0.02157 -0.05993,-0.029037 -0.08754,-0.056639 -0.02239,-0.022406 -0.03241,-0.042026 -0.03089,-0.05665 0.0015,-0.014609 0.0146,-0.024897 0.03089,-0.041186 0.01584,-0.015847 0.03287,-0.010835 0.0515,0 0.01862,0.010826 0.03953,0.029226 0.04634,0.036041 0.01785,0.017852 0.03882,0.0129 0.05664,0 0.01783,-0.012901 0.02862,-0.037236 0.0309,-0.046346 0.0082,-0.032741 0.01544,-0.054276 0.01544,-0.1029892 0,-0.05094 -0.03402,-0.059576 -0.0206,-0.1132889 0.0057,-0.022647 -0.01356,-0.039558 -0.03605,-0.051491 -0.02248,-0.011928 -0.0489,-0.021228 -0.06179,-0.030901 -0.04145,-0.031074 -0.06145,-0.030187 -0.0824,-0.072088 -0.01508,-0.030178 -0.0048,-0.046157 0.0103,-0.051478 0.01514,-0.00534 0.03468,-0.00293 0.04635,0 0.04683,0.011695 0.05533,0.03472 0.08753,0.066935 0.03665,0.036649 0.03642,0.056819 0.07725,0.07724 0.03937,0.019685 0.03924,0.051495 0.08239,0.051495 0.02743,0 0.0309,-0.08305 0.0309,-0.1081446 0,-0.044016 -0.0206,-0.076597 -0.0206,-0.1235857 0,-0.018644 0.04349,-0.0509 0.0515,-0.06694 0.01217,-0.024362 0.01097,-0.045666 0,-0.061795 -0.01098,-0.016132 -0.03004,-0.03003 -0.0412,-0.04119 -0.02936,-0.029362 -0.05454,-0.042135 -0.07209,-0.077248 -0.02011,-0.040242 -0.0628,-0.057647 -0.09784,-0.092681 -0.0053,-0.010597 -0.02284,4.768e-4 -0.0412,0.00514 -0.01835,0.00467 -0.03647,0.00347 -0.04634,-0.036041 -0.0095,-0.037922 0.01205,-0.089364 0.0206,-0.1235941 0.0097,-0.038931 0.03183,-0.05004 0.0412,-0.08754 0.0073,-0.029403 0.02348,-0.037902 0.03089,-0.046335 0.0074,-0.00844 0.009,-0.01804 -0.0051,-0.046354 -0.0099,-0.019798 -0.06262,-0.041596 -0.08239,-0.051487 -0.03277,-0.016397 -0.05335,-0.043046 -0.0721,-0.061803 -0.01805,-0.018053 -0.01029,-0.096016 -0.01029,-0.1235814 0,-0.020613 -0.0099,-0.037147 -0.02576,-0.046346 -0.01582,-0.00918 -0.03476,-0.01223 -0.05149,-0.020589 -0.02963,-0.014826 -0.0636,-0.015449 -0.108148,-0.015449 -0.03559,0 -0.09049,-0.00719 -0.123578,-0.015445 -0.03804,-0.00952 -0.08779,0.00906 -0.113282,0.015445 -0.03561,0.0089 -0.08668,0 -0.12359,0 -0.04221,0 -0.05731,-0.015613 -0.09784,-0.025753 -0.02612,-0.00654 -0.08634,0.045735 -0.108141,0.056639 -0.0221,0.01106 -0.03157,0.00287 -0.03604,-0.015436 -0.0045,-0.018335 -0.0052,-0.044012 -0.0052,-0.0618 0,-0.040832 0,-0.082753 0,-0.1235898 0,-0.017381 -0.0127,-0.026666 -0.03089,-0.030893 -0.01819,-0.00423 -0.04085,-0.00515 -0.05665,-0.00515 z m 4.464533,0.4994947 c -0.02193,0.00454 -0.04043,0.022679 -0.04635,0.046338 -0.0069,0.02749 -0.01023,0.066658 -0.01544,0.087545 -0.0016,0.00655 -0.101839,-0.01282 -0.159633,0.010305 -0.02444,0.00977 -0.0595,0.025171 -0.08239,0.030893 -0.03143,0.00785 -0.02202,0.030375 -0.01544,0.056647 0.0082,0.032834 0.100569,0.039297 0.12873,0.046346 0.01971,0.00493 0.04623,0.041074 0.06694,0.061795 0.02061,0.020617 0.05562,0.035274 0.07724,0.051487 0.01683,0.01262 0.03458,0.050028 0.05664,0.072096 0.0229,0.022908 0.06236,0.033602 0.09269,0.04119 0.03672,0.00919 0.05971,-0.010292 0.09784,-0.010292 0.03111,0 0.05827,0.015444 0.09269,0.015444 0.03566,0 0.06049,-0.015444 0.09269,-0.015444 0.02622,0 0.03689,-0.042312 0.05149,-0.061787 0.01914,-0.025536 0.0206,-0.065034 0.0206,-0.097848 0,-0.030354 -0.0099,-0.060364 -0.01545,-0.082392 -0.0065,-0.026191 -0.05829,-0.039322 -0.07209,-0.066944 -0.01732,-0.034655 -0.01836,-0.04338 -0.05664,-0.072087 -0.02611,-0.019576 -0.07342,-0.041861 -0.09269,-0.05149 -0.03061,-0.015308 -0.05295,-0.028128 -0.07725,-0.04635 -0.01608,-0.012068 -0.04051,-0.015449 -0.06694,-0.015449 -0.01732,0 -0.03931,0 -0.05664,0 -0.0076,-0.00191 -0.01329,-0.00151 -0.02059,0 z m 1.8125792,0.6642753 c -0.03321,0.00435 -0.04119,0.054351 -0.04118,0.097837 0,0.043842 -0.05876,0.083975 -0.07725,0.097832 -0.02543,0.019073 0.103124,0.069559 0.11329,0.072103 0.04345,0.010864 0.07958,0.047829 0.123581,0.056639 0.03175,0.00635 0.08432,0.040932 0.12359,0.056639 0.02253,0.00902 0.02954,0.042041 0.03604,0.077248 0.0065,0.035194 0.0103,0.07101 0.0103,0.092692 0,0.044787 -2.27e-4,0.091676 0.01031,0.133886 0.01101,0.044016 0.02341,0.060839 0.0103,0.1132736 -0.0062,0.025062 -0.0093,0.044192 -0.0103,0.0618 -9.87e-4,0.01761 0.0018,0.032653 0.02059,0.05149 0.03383,0.033847 0.129095,0.015807 0.169938,0.056647 0.04042,0.040442 0.07198,0.067835 0.118432,0.1235856 0.02382,0.02859 -0.0022,0.080183 0.0309,0.1132851 0.02271,0.022724 0.09805,0.026991 0.123584,0.020601 0.018,-0.0045 0.02661,-0.1064054 0.0309,-0.1235943 0.0054,-0.021549 0.03707,-0.032822 0.07209,-0.036042 0.03502,-0.00322 0.07528,0.0016 0.09269,0.0103 0.03096,0.015481 0.03424,0.063832 0.02575,0.097836 -0.0064,0.02562 -9.87e-4,0.042476 0.0103,0.056651 0.01129,0.014159 0.02797,0.026859 0.04635,0.03605 0.03389,0.016936 0.07921,0.011084 0.102992,0.00514 0.03778,-0.00945 0.05473,-0.063102 0.07209,-0.097841 0.01178,-0.023547 0.0168,-0.04129 0.0206,-0.056639 0.0038,-0.015344 0.0064,-0.028957 0.0309,-0.041197 0.03463,-0.017322 0.05075,-0.044143 0.0412,-0.0824 -0.01041,-0.041664 -0.02209,-0.08021 -0.0412,-0.118426 -0.02541,-0.050806 -0.07905,-0.069586 -0.123585,-0.1029843 -0.03402,-0.025541 -0.03055,-0.034659 -0.0412,-0.077244 -0.0071,-0.028638 -0.05621,-0.051273 -0.08753,-0.066947 -0.02884,-0.014417 -0.04774,-0.065054 -0.08239,-0.082392 -0.05035,-0.025171 -0.09863,-0.032758 -0.144189,-0.066931 -0.04633,-0.034748 -0.08701,-0.047231 -0.133881,-0.0824 -0.0453,-0.033976 -0.08505,-0.074731 -0.123587,-0.1132816 -0.03801,-0.038015 -0.07521,-0.054621 -0.102986,-0.082388 -0.0341,-0.034104 -0.0875,-0.054054 -0.123585,-0.072096 -0.04664,-0.023313 -0.07282,-0.050754 -0.113287,-0.066943 -0.04887,-0.019548 -0.08366,-0.024784 -0.128743,-0.036049 -0.01539,-0.00384 -0.03272,-0.017571 -0.04633,-0.025741 -0.0058,-0.00146 -0.01071,-6.208e-4 -0.01546,0 z M 6.9207718,4.7272625 c -0.01377,0.013781 -0.03921,0.00159 -0.05664,0.010296 -0.01868,0.00935 -0.02669,0.044957 -0.03089,0.061803 -0.0069,0.027642 -0.0045,0.053408 -0.0103,0.082391 -0.0066,0.032932 0.0033,0.085225 0.0103,0.1132779 0.0055,0.022212 -0.0301,0.049887 -0.0412,0.072092 -0.01142,0.022872 -0.02608,0.04164 -0.04119,0.061795 -0.01774,0.023663 -0.01504,0.075162 -0.0206,0.1029847 -0.0066,0.033152 -0.0083,0.058764 -0.01544,0.087548 -0.0055,0.021814 -0.0052,0.043376 -0.0052,0.066943 0,0.01782 0.04232,0.028876 0.05665,0.036045 0.01536,0.00768 0.02348,-0.010585 0.03089,-0.030897 0.0074,-0.020328 0.0136,-0.044498 0.02574,-0.056647 0.02485,-0.024849 0.03773,-0.036046 0.07209,-0.036046 0.02249,0 0.04657,-0.00514 0.07209,-0.00514 0.01428,0 0.04359,0.00891 0.05665,0.015444 0.02478,0.012395 0.03991,0.024459 0.05664,0.041195 0.01992,0.019926 0.01406,0.043424 0.04635,0.051502 0.02627,0.00656 0.04289,0.020596 0.07208,0.020596 0.02994,0 0.0576,0 0.08755,0 0.02178,0 0.04492,0 0.06694,0 0.03138,0 0.0309,-0.019965 0.0309,-0.051506 0,-0.027699 0.004,-0.046953 0.01029,-0.072083 0.0064,-0.025668 -0.0055,-0.042757 -0.01029,-0.061803 -0.0056,-0.022361 -0.0423,-0.04744 -0.05665,-0.061783 -0.032,-0.032007 -0.06713,-0.026497 -0.07724,-0.066956 -0.0047,-0.018809 0.0052,-0.046776 0.0052,-0.066931 0,-0.019616 0.0051,-0.039751 0.0051,-0.061791 0,-0.02636 -0.01655,-0.038261 -0.02574,-0.056643 -0.01136,-0.022711 -0.03253,-0.020593 -0.05665,-0.020597 -0.02266,0 -0.05481,-0.00581 -0.07724,-0.010304 -0.02535,-0.00507 -0.03942,-0.00338 -0.05664,-0.020601 -0.01887,-0.018852 -0.03605,-0.015935 -0.03605,-0.046338 0,-0.015907 -0.01091,-0.033317 -0.01544,-0.051491 -0.0054,-0.021601 -0.0098,-0.02923 -0.02575,-0.041197 -0.0096,-0.00719 -0.03558,-0.00514 -0.04634,-0.00514 z m 7.6571542,0.1956806 c -0.02631,0.00379 -0.02719,0.099276 -0.05664,0.1287383 -0.02722,0.027216 -0.05499,0.03439 -0.07725,0.056627 -0.03822,0.03824 -0.08427,0.073984 -0.123585,0.1133014 -0.03368,0.033694 -0.03922,0.100589 -0.05664,0.1441865 -0.01248,0.031188 0,0.09948 0,0.1338864 0,0.043737 -0.05021,0.1126459 -0.06694,0.1544668 -0.01049,0.026257 -0.01933,0.038248 -0.03604,0.04635 -0.01671,0.00811 -0.03856,0.00835 -0.06694,0.015448 -0.04612,0.011526 -0.08341,0.021099 -0.123587,0.041202 -0.02934,0.014664 -0.05191,0.078075 -0.06694,0.1081366 -0.01556,0.031118 -0.007,0.089669 -0.01545,0.1235781 -0.01374,0.054978 -0.01056,0.1171272 0,0.1699234 0.0086,0.043184 0.01541,0.082211 0.02575,0.123597 0.01118,0.044736 -0.0083,0.084579 -0.01545,0.1132741 -0.01082,0.043292 -0.02571,0.082231 -0.03604,0.1235932 -0.0105,0.042031 0.0412,0.084021 0.0412,0.1287383 0,0.047125 0.01208,0.090691 0,0.1390345 -0.0079,0.03144 0.0071,0.077417 0.02575,0.1235811 0.01869,0.046166 0.04407,0.093874 0.05149,0.1235817 0.0051,0.020465 -0.106694,0.1560391 -0.118432,0.1853815 -0.01492,0.037275 -0.0366,0.086752 -0.06179,0.1287383 -0.02546,0.042434 0.0051,0.090312 0.0051,0.1338857 0,0.045406 0.01029,0.095639 0.01029,0.1441828 0,0.059645 0.01031,0.1208568 0.01031,0.1802326 0,0.0534 -0.05421,0.1292401 -0.06694,0.1802196 -0.0121,0.048413 8.71e-4,0.1098618 0.0206,0.1493475 0.01472,0.029438 -0.012,0.1045887 -0.0206,0.1390187 -0.0145,0.057989 0.01545,0.122946 0.01545,0.1802279 0,0.00816 0,0.017582 0,0.025753 0,0.079498 0.06495,0.1856819 0.08239,0.2729126 0.0096,0.047725 -0.01724,0.074089 -0.02574,0.1081412 -0.01305,0.052201 0.01521,0.091763 0.02574,0.1338781 0.01706,0.068254 0.0034,0.1271744 -0.02574,0.18538 -0.01468,0.029371 -0.01499,0.05168 -0.0103,0.077244 0.0047,0.025572 0.01553,0.051671 0.02575,0.077243 0.01975,0.049393 0.0021,0.1164156 0.01545,0.169928 0.01139,0.045551 -0.0051,0.128409 -0.0051,0.1802287 0,0.037359 -0.01506,0.055007 -0.02575,0.07724 -0.01068,0.022232 -0.01646,0.047446 -0.0051,0.092692 0.0027,0.010887 0.0024,0.02515 0.0051,0.036037 0.0095,0.038036 0.08876,0.1180683 0.123577,0.1441863 0.0243,0.01822 0.03141,0.03779 0.03604,0.05665 0.0046,0.01886 0.0051,0.03769 0.0051,0.06694 0,0.06179 0.0067,0.09939 0.04634,0.13903 0.02423,0.02424 0.07102,0.02088 0.09785,0.05664 0.02201,0.02936 0.02059,0.111766 0.02059,0.149327 0,0.04584 0.0012,0.07217 0.01545,0.09784 0.01425,0.02566 0.04051,0.05081 0.07208,0.08239 0.0136,0.01361 0.02758,0.02244 0.0412,0.03604 0.03233,0.03234 0.03814,0.08963 0.07209,0.123585 0.0315,0.03151 0.08053,0.07115 0.123597,0.09269 0.02598,0.01299 0.05305,0.0039 0.07723,-0.0103 0.02417,-0.01429 0.04447,-0.03335 0.0618,-0.04635 0.05075,-0.03805 0.08842,-0.07385 0.113287,-0.123582 0.03369,-0.06739 0.09309,-0.141043 0.108129,-0.21627 0.0058,-0.02893 0.01388,-0.04764 0.0309,-0.0618 0.01702,-0.01415 0.04365,-0.0244 0.06694,-0.03604 0.04158,-0.02079 0.08087,-0.06611 0.102988,-0.102989 0.02436,-0.04062 0.06819,-0.06793 0.11329,-0.05663 0.03481,0.0087 0.05908,0.03439 0.07724,0.06179 0.01815,0.02739 0.03433,0.05489 0.0412,0.08241 0.01101,0.04406 -0.03356,0.09801 -0.0515,0.133874 -0.03006,0.06013 -0.01598,0.105405 -0.05664,0.159632 -0.03632,0.04842 -0.05449,0.119265 -0.07725,0.164779 -0.03072,0.06147 -0.02283,0.155339 -0.03604,0.22143 -0.0059,0.02938 -0.02688,0.08779 -0.0412,0.123582 -0.01668,0.04172 -0.03605,0.121038 -0.03605,0.164779 0,0.05792 -0.0605,0.105549 -0.08753,0.159628 -0.03205,0.0641 -0.05601,0.129735 -0.08239,0.195681 -0.01996,0.04992 -0.04432,0.103054 -0.07209,0.149332 -0.02466,0.04112 -0.04549,0.08409 -0.05664,0.128737 -0.01029,0.04115 -0.03747,0.07495 -0.05664,0.113286 -0.01815,0.0363 -0.02141,0.0737 -0.0412,0.113289 -0.03675,0.07348 -0.118764,0.20113 -0.180228,0.262616 -0.05299,0.05301 -0.121731,0.125008 -0.149334,0.180224 -0.01811,0.03624 -0.0294,0.06396 -0.04636,0.09785 -0.02471,0.04944 -0.0577,0.105103 -0.08753,0.164776 -0.02086,0.04173 -0.05694,0.06237 -0.07725,0.102996 -0.02107,0.04213 -0.03063,0.05952 -0.03604,0.08238 1.177415,-1.379604 1.894975,-3.1689712 1.894975,-5.1236408 0,-0.9975354 -0.192526,-1.9480334 -0.530384,-2.8270184 -0.03443,0.00271 -0.09536,0.015448 -0.133896,0.015448 -0.02481,1.21e-5 -0.04322,0.01915 -0.05663,0.04119 -0.01342,0.022048 -0.02135,0.049368 -0.02575,0.066952 -0.0122,0.048822 -0.0096,0.1042549 0.0051,0.1544797 0.01475,0.050216 0.0394,0.096028 0.06694,0.1235818 0.02088,0.020874 0.0335,0.041141 0.0309,0.056638 -0.0026,0.015505 -0.01819,0.025753 -0.05149,0.025753 -0.03606,3.8e-6 -0.05713,-0.00576 -0.07209,-0.015445 -0.01496,-0.00969 -0.02279,-0.022796 -0.0412,-0.041198 -0.0349,-0.034908 -0.06665,-0.064214 -0.113289,-0.087536 -0.04122,-0.020617 -0.07646,-0.038232 -0.113282,-0.056647 -0.02648,-0.013242 -0.04899,-0.087676 -0.0618,-0.113281 -0.02013,-0.040262 -0.03604,-0.080833 -0.03604,-0.1287496 -3e-6,-0.03255 -0.0332,-0.081817 -0.04635,-0.1081291 -0.01592,-0.03185 -0.03802,-0.065714 -0.05663,-0.1029809 -0.02082,-0.041648 -0.03988,-0.06982 -0.07726,-0.097836 -0.0047,-0.00358 -0.0065,-0.0057 -0.01029,-0.00515 z M 4.8146718,9.2123939 c -0.0057,0.00251 -0.01278,0.00762 -0.0206,0.015445 -0.02279,0.022783 -0.01747,0.018346 -0.05664,-0.00514 0.0085,0 0.107521,0.1191134 0.128733,0.1544835 0.01,0.016643 0.0385,0.021795 0.06694,0.020593 0.02845,-0.00121 0.05582,-0.00705 0.0721,-0.010301 0.03646,-0.00729 0.046,-0.029036 0.04119,-0.05149 -0.0048,-0.022466 -0.02399,-0.048039 -0.04119,-0.05665 -0.04465,-0.022337 -0.0752,-0.039401 -0.12359,-0.051489 -0.04003,-0.01002 -0.04979,-0.022981 -0.06694,-0.015446 z m 0.09269,0.3450002 c -0.03046,0.0055 -0.07629,0.024797 -0.09269,0.041198 -0.01292,0.012924 -0.0022,0.037119 0.01029,0.061791 0.01254,0.024672 0.03041,0.045361 0.03605,0.056651 0.01579,0.031564 0.109344,0.041189 0.144189,0.041189 0.02928,0 0.04254,-0.013226 0.04634,-0.030893 0.0038,-0.017679 -6.74e-4,-0.038723 -0.0051,-0.056647 -0.0081,-0.032252 -0.04789,-0.063342 -0.06694,-0.082388 -0.01939,-0.019399 -0.0022,-0.00442 -0.04635,-0.030901 -0.0061,-0.00152 -0.01559,-0.00184 -0.02574,0 z m -0.417102,0.2780774 c -0.05889,-1.514e-4 -0.114145,0.00171 -0.169931,0.046347 -0.06772,0.054163 -0.149723,0.1525625 -0.195673,0.1699235 0.01016,0.02542 0.01829,0.04742 0.03604,0.05663 0.01774,0.0092 0.04464,0.0086 0.0721,-0.0051 0.04499,-0.0225 0.07494,-0.03231 0.113288,-0.05149 0.03976,-0.01988 0.07038,-0.03604 0.113289,-0.03604 0.05506,0 0.09181,0.01908 0.139026,0.0309 0.0357,0.0089 0.06291,0.02115 0.10299,0.0412 0.04168,0.02084 0.0799,0.0387 0.113287,0.0721 0.03244,0.03244 0.09233,0.04864 0.123584,0.07208 0.03211,0.0241 0.09135,0.05016 0.12359,0.0824 0.02089,0.0209 0.06507,0.066 0.09784,0.0824 0.03459,0.01729 0.06411,0.01376 0.09269,0.0051 0.02858,-0.0086 0.05813,-0.0206 0.09784,-0.0206 0.02897,0 0.07807,0.0029 0.123584,0.0051 0.0455,0.0023 0.08536,0.0022 0.102983,-0.01545 0.01095,-0.01094 0.02601,-0.02581 0.0309,-0.04119 0.0049,-0.01537 -3.7e-4,-0.02842 -0.0309,-0.03604 -0.04353,-0.01086 -0.08189,-0.02431 -0.12873,-0.03602 -0.06483,-0.0162 -0.0443,-0.04531 -0.09784,-0.07208 -0.06064,-0.03032 -0.07861,-0.03894 -0.149333,-0.05664 -0.04633,-0.01158 -0.116573,-0.01872 -0.154485,-0.05663 -0.03411,-0.03412 -0.0524,-0.095714 -0.08753,-0.1132933 -0.06146,-0.030729 -0.108453,-0.073176 -0.180228,-0.08754 -0.07163,-0.014324 -0.159235,-0.036046 -0.23173,-0.036034 -0.02137,0 -0.03701,4.39e-5 -0.05664,0 z m 1.374893,0.4685855 c -0.0117,-0.0011 -0.02439,0.0023 -0.03605,0.0051 -0.04787,0.01196 -0.172868,7.57e-4 -0.180233,0.01545 -0.0082,0.0136 -0.01864,0.027 -0.02574,0.04119 -0.01656,0.03312 -0.01378,0.04385 -0.0052,0.0515 0.0086,0.0076 0.02486,0.0094 0.0412,0.02575 0.0061,0.0061 0.02065,0.02618 0.02575,0.04635 0.0051,0.02017 1.59e-4,0.04111 -0.0206,0.05149 -0.0046,0.0023 -0.104865,0.05289 -0.102986,0.05664 0.01358,0.02715 0.02752,0.03604 0.08753,0.03604 0.04995,0 0.08431,0.0066 0.12874,0.01546 0.02989,0.006 0.09527,0.02254 0.123581,0.01545 0.06696,-0.01674 0.117005,-0.03462 0.159638,-0.07724 0.03596,-0.03598 0.03652,-0.01943 0.102987,-0.03604 0.02299,-0.0057 0.05054,-0.0047 0.06694,-0.0103 0.01641,-0.0055 0.02575,-0.01723 0.02575,-0.04635 0,-0.03092 -0.03564,-0.07208 -0.07725,-0.07208 -0.03643,0 -0.08491,0.0013 -0.118429,-0.01544 -0.0466,-0.02332 -0.04693,-0.06324 -0.10299,-0.07725 -0.02632,-0.0066 -0.05761,-0.02255 -0.09268,-0.02574 z m 0.587022,0.180223 c -0.01622,-0.004 -0.02484,0.01946 -0.02574,0.04636 -9.1e-4,0.0269 0.0076,0.05614 0.01029,0.06694 0.006,0.0239 0.08977,0.03604 0.11844,0.03604 0.02865,0 0.05159,8.33e-4 0.06179,-0.0051 0.0102,-0.006 0.0072,-0.01653 -0.0052,-0.0412 -0.01738,-0.03478 -0.02756,-0.07557 -0.06179,-0.09269 -0.02826,-0.01413 -0.06704,-0.01029 -0.09784,-0.0103 z m 0.463449,0.03604 c -0.0084,0.0062 -0.0132,0.02892 -0.0103,0.0515 0.0029,0.02258 0.01466,0.04228 0.0515,0.0515 0.03629,0.0091 0.08984,0.0058 0.113285,0 0.01904,-0.0047 0.01165,-0.02029 -0.0052,-0.0412 -0.0168,-0.0209 -0.03908,-0.0427 -0.05664,-0.05148 -0.02109,-0.01055 -0.06133,-0.01032 -0.08754,-0.01032 -0.0021,-0.0011 -0.0027,-0.0018 -0.0052,0 z m -1.683853,0.0515 c -0.0069,4.54e-4 -0.01894,0.0051 -0.02575,0.0051 -0.0069,-0.0056 -0.07949,-0.0015 -0.113282,0.01546 -0.02361,0.0118 -0.03903,0.02326 -0.04635,0.03603 -0.0073,0.01277 -0.0077,0.03095 0.0051,0.05664 0.01341,0.02682 0.01511,0.04452 0.02061,0.05664 0.0055,0.01211 0.01593,0.01814 0.04635,0.02575 0.0494,0.01235 0.09387,0.02773 0.139023,0.0051 0.0349,-0.01746 0.05149,-0.06788 0.0515,-0.108136 0,-0.04969 -0.0139,-0.07686 -0.05665,-0.08755 -0.0066,-0.0017 -0.01374,-0.0055 -0.0206,-0.0051 z m 1.900126,0.185376 c -0.02633,0.0056 -0.02176,0.04517 0.0052,0.07209 0.03212,0.03212 0.06576,0.0212 0.08753,0.0103 0.02372,-0.01187 0.01469,-0.03153 -0.0051,-0.04635 -0.01984,-0.01482 -0.04998,-0.02545 -0.0515,-0.02575 -0.01553,-0.0078 -0.02727,-0.01216 -0.03605,-0.01031 z m 0.159629,0.226575 c -0.01382,0.01071 -0.05663,0.04582 -0.05663,0.06695 0,0.02011 0.02094,0.01995 0.04634,0.01545 0.0254,-0.0045 0.05251,-0.01339 0.05665,-0.01545 0.02385,-0.01194 -0.0192,-0.04954 -0.0412,-0.06695 -7.79e-4,3.79e-4 -0.0038,-6.05e-4 -0.0052,0 z m 0.0309,0.185385 c 8.63e-4,0.0014 0.0042,0.0087 0.0052,0.0103 0.0038,-0.0033 0.0058,-0.01003 0.0052,-0.0103 -5.3e-4,-2.27e-4 -0.0058,-0.0023 -0.01031,0 z m 0.0052,0.0103 c -0.01819,0.01525 -0.0753,0.05402 -0.08239,0.08239 -0.006,0.02415 0.100555,-0.0039 0.102988,-0.0051 0.02391,-0.01197 -0.0048,-0.05224 -0.0206,-0.07725 z m 0.216281,0.05663 c -0.0024,0.02441 -0.02801,0.091 -0.0051,0.108146 0.03372,0.02529 0.04909,0.01809 0.05664,0.0051 0.0076,-0.01295 0.0068,-0.03284 0,-0.04634 -0.0129,-0.0258 -0.02783,-0.04278 -0.05149,-0.06695 z"
         style="fill:#cccccc;fill-opacity:1;fill-rule:nonzero;stroke:none;display:inline"
         id="path6111"
         inkscape:connector-curvature="0" />
      <path
         sodipodi:nodetypes="cccccccc"
         inkscape:connector-curvature="0"
         id="path16159"
         d="m 10.670141,13.291974 -0.7491367,-3.6567161 3.6156707,0.9290941 -0.85996,0.818286 3.000804,3.152744 -1.146614,1.09105 -3.000804,-3.152744 z"
         style="fill:#cccccc;stroke:#cccccc;stroke-width:0.43435353;stroke-linecap:butt;stroke-linejoin:miter;stroke-miterlimit:4;stroke-opacity:1;stroke-dasharray:none" />
    </g>
  </g>
</svg>
