<?xml version="1.0" encoding="UTF-8" standalone="no"?>
<!-- Created with Inkscape (http://www.inkscape.org/) -->

<svg
   xmlns:dc="http://purl.org/dc/elements/1.1/"
   xmlns:cc="http://creativecommons.org/ns#"
   xmlns:rdf="http://www.w3.org/1999/02/22-rdf-syntax-ns#"
   xmlns:svg="http://www.w3.org/2000/svg"
   xmlns="http://www.w3.org/2000/svg"
   xmlns:sodipodi="http://sodipodi.sourceforge.net/DTD/sodipodi-0.dtd"
   xmlns:inkscape="http://www.inkscape.org/namespaces/inkscape"
   id="svg7384"
   height="16"
   width="16"
   version="1.1"
   inkscape:version="0.48.4 r9939"
   sodipodi:docname="applications-education-symbolic.svg">
  <defs
     id="defs10" />
  <sodipodi:namedview
     pagecolor="#ffffff"
     bordercolor="#666666"
     borderopacity="1"
     objecttolerance="10"
     gridtolerance="10"
     guidetolerance="10"
     inkscape:pageopacity="0"
     inkscape:pageshadow="2"
     inkscape:window-width="1280"
     inkscape:window-height="748"
     id="namedview8"
     showgrid="true"
     inkscape:zoom="15.190189"
     inkscape:cx="8.0575034"
     inkscape:cy="5.8439035"
     inkscape:window-x="0"
     inkscape:window-y="0"
     inkscape:window-maximized="1"
     inkscape:current-layer="svg7384">
    <inkscape:grid
       type="xygrid"
       id="grid3874"
       empspacing="5"
       visible="true"
       enabled="true"
       snapvisiblegridlinesonly="true"
       spacingx="1.3877788e-16px"
       spacingy="1.3877788e-16px" />
  </sodipodi:namedview>
  <metadata
     id="metadata90">
    <rdf:RDF>
      <cc:Work
         rdf:about="">
        <dc:format>image/svg+xml</dc:format>
        <dc:type
           rdf:resource="http://purl.org/dc/dcmitype/StillImage" />
        <dc:title>Gnome Symbolic Icon Theme</dc:title>
      </cc:Work>
    </rdf:RDF>
  </metadata>
  <title
     id="title9167">Gnome Symbolic Icon Theme</title>
  <rect
     style="fill:none;fill-rule:evenodd;stroke:none"
     id="rect3760"
     width="16"
     height="16"
     x="0.042532369"
     y="-7.5582534e-07"
     ry="0.63891309" />
  <g
     transform="matrix(0.85715014,0,0,0.85715014,4.1413791,1.1122001)"
     id="g4374"
     style="stroke-width:0;stroke-miterlimit:4;stroke-dasharray:none;fill:#cccccc">
    <g
       id="g4376"
       transform="scale(0.16541353,0.16541353)"
       style="stroke-width:0;stroke-miterlimit:4;stroke-dasharray:none;fill:#cccccc" />
    <g
       id="g4380"
       transform="translate(-39.225564,-37.556391)"
       style="stroke-width:0;stroke-miterlimit:4;stroke-dasharray:none;fill:#cccccc" />
    <g
       id="g4382"
       transform="translate(-39.225564,-37.556391)"
       style="stroke-width:0;stroke-miterlimit:4;stroke-dasharray:none;fill:#cccccc" />
    <g
       id="g4384"
       transform="translate(-39.225564,-37.556391)"
       style="stroke-width:0;stroke-miterlimit:4;stroke-dasharray:none;fill:#cccccc" />
    <g
       id="g4386"
       transform="translate(-39.225564,-37.556391)"
       style="stroke-width:0;stroke-miterlimit:4;stroke-dasharray:none;fill:#cccccc" />
    <g
       id="g4388"
       transform="translate(-39.225564,-37.556391)"
       style="stroke-width:0;stroke-miterlimit:4;stroke-dasharray:none;fill:#cccccc" />
    <g
       id="g4390"
       transform="translate(-39.225564,-37.556391)"
       style="stroke-width:0;stroke-miterlimit:4;stroke-dasharray:none;fill:#cccccc" />
    <g
       id="g4392"
       transform="translate(-39.225564,-37.556391)"
       style="stroke-width:0;stroke-miterlimit:4;stroke-dasharray:none;fill:#cccccc" />
    <g
       id="g4394"
       transform="translate(-39.225564,-37.556391)"
       style="stroke-width:0;stroke-miterlimit:4;stroke-dasharray:none;fill:#cccccc" />
    <g
       id="g4396"
       transform="translate(-39.225564,-37.556391)"
       style="stroke-width:0;stroke-miterlimit:4;stroke-dasharray:none;fill:#cccccc" />
    <g
       id="g4398"
       transform="translate(-39.225564,-37.556391)"
       style="stroke-width:0;stroke-miterlimit:4;stroke-dasharray:none;fill:#cccccc" />
    <g
       id="g4400"
       transform="translate(-39.225564,-37.556391)"
       style="stroke-width:0;stroke-miterlimit:4;stroke-dasharray:none;fill:#cccccc" />
    <g
       id="g4402"
       transform="translate(-39.225564,-37.556391)"
       style="stroke-width:0;stroke-miterlimit:4;stroke-dasharray:none;fill:#cccccc" />
    <g
       id="g4404"
       transform="translate(-39.225564,-37.556391)"
       style="stroke-width:0;stroke-miterlimit:4;stroke-dasharray:none;fill:#cccccc" />
    <g
       id="g4406"
       transform="translate(-39.225564,-37.556391)"
       style="stroke-width:0;stroke-miterlimit:4;stroke-dasharray:none;fill:#cccccc" />
    <g
       id="g4408"
       transform="translate(-39.225564,-37.556391)"
       style="stroke-width:0;stroke-miterlimit:4;stroke-dasharray:none;fill:#cccccc" />
  </g>
  <g
     transform="matrix(0.96571603,0,0,0.96571603,-0.3198648,2.304078)"
     id="g4410">
    <g
       id="g4412"
       transform="scale(0.16541353,0.16541353)" />
    <g
       id="g4416"
       transform="translate(-39.225564,-37.556391)" />
    <g
       id="g4418"
       transform="translate(-39.225564,-37.556391)" />
    <g
       id="g4420"
       transform="translate(-39.225564,-37.556391)" />
    <g
       id="g4422"
       transform="translate(-39.225564,-37.556391)" />
    <g
       id="g4424"
       transform="translate(-39.225564,-37.556391)" />
    <g
       id="g4426"
       transform="translate(-39.225564,-37.556391)" />
    <g
       id="g4428"
       transform="translate(-39.225564,-37.556391)" />
    <g
       id="g4430"
       transform="translate(-39.225564,-37.556391)" />
    <g
       id="g4432"
       transform="translate(-39.225564,-37.556391)" />
    <g
       id="g4434"
       transform="translate(-39.225564,-37.556391)" />
    <g
       id="g4436"
       transform="translate(-39.225564,-37.556391)" />
    <g
       id="g4438"
       transform="translate(-39.225564,-37.556391)" />
    <g
       id="g4440"
       transform="translate(-39.225564,-37.556391)" />
    <g
       id="g4442"
       transform="translate(-39.225564,-37.556391)" />
    <g
       id="g4444"
       transform="translate(-39.225564,-37.556391)" />
  </g>
  <g
     id="g5222"
     transform="matrix(0.16514007,0,0,0.16514007,-0.21430599,-0.42221855)"
     style="fill:#cccccc">
    <path
       id="path5224"
       d="m 52.456,24.854 c -0.52,0.247 -1.328,0.644 -1.408,1.084 0,0 2.204,2.147 2.107,4.126 0.45,-0.633 0.721,-1.402 0.721,-2.236 0,-1.201 -0.56,-2.262 -1.42,-2.974 z"
       inkscape:connector-curvature="0"
       style="fill:#cccccc" />
    <path
       id="path5226"
       d="m 25.836,33.675 c -2.444,0 -4.432,1.988 -4.432,4.432 0,2.444 1.988,4.433 4.432,4.433 2.444,0 4.432,-1.988 4.432,-4.433 0,-2.444 -1.988,-4.432 -4.432,-4.432 z"
       inkscape:connector-curvature="0"
       style="fill:#cccccc" />
    <circle
       id="circle5228"
       r="3.0669999"
       cy="38.268002"
       cx="67.959"
       sodipodi:cx="67.959"
       sodipodi:cy="38.268002"
       sodipodi:rx="3.0669999"
       sodipodi:ry="3.0669999"
       d="m 71.026,38.268002 c 0,1.693857 -1.373143,3.066999 -3.067,3.066999 -1.693858,0 -3.067,-1.373142 -3.067,-3.066999 0,-1.693858 1.373142,-3.067 3.067,-3.067 1.693857,0 3.067,1.373142 3.067,3.067 z"
       style="fill:#cccccc" />
    <path
       id="path5230"
       d="m 25.836,31.088 c -3.871,0 -7.02,3.148 -7.02,7.019 0,3.871 3.149,7.02 7.02,7.02 3.87,0 7.019,-3.149 7.019,-7.02 0,-3.871 -3.148,-7.019 -7.019,-7.019 z m 0,12.451 c -2.995,0 -5.432,-2.438 -5.432,-5.433 0,-2.995 2.437,-5.432 5.432,-5.432 2.995,0 5.432,2.437 5.432,5.432 0,2.995 -2.436,5.433 -5.432,5.433 z"
       inkscape:connector-curvature="0"
       style="fill:#cccccc" />
    <circle
       id="circle5232"
       r="1.602"
       cy="38.268002"
       cx="43.299999"
       sodipodi:cx="43.299999"
       sodipodi:cy="38.268002"
       sodipodi:rx="1.602"
       sodipodi:ry="1.602"
       d="m 44.901999,38.268002 c 0,0.88476 -0.71724,1.602 -1.602,1.602 -0.88476,0 -1.602,-0.71724 -1.602,-1.602 0,-0.884761 0.71724,-1.602 1.602,-1.602 0.88476,0 1.602,0.717239 1.602,1.602 z"
       style="fill:#cccccc" />
    <path
       id="path5234"
       d="m 49.963,26.917 c -1.962,1.515 -2.61,2.788 -2.824,3.504 0.71,0.782 1.724,1.283 2.861,1.283 1.106,0 2.099,-0.471 2.806,-1.217 -0.193,-0.701 -0.819,-2.007 -2.843,-3.57 z"
       inkscape:connector-curvature="0"
       style="fill:#cccccc" />
    <path
       id="path5236"
       d="m 85.252,28.405 c -2.656,-1.698 -0.74,-2.668 -3.489,-4.77 -2.749,-2.102 -13.906,-5.66 -15.847,-4.043 -1.941,1.617 -4.123,1.94 -4.123,1.94 H 50.01 49.99 38.206 c 0,0 -2.183,-0.323 -4.123,-1.94 -1.94,-1.617 -13.098,1.94 -15.847,4.043 -2.749,2.102 -0.833,3.072 -3.489,4.77 -2.656,1.698 -9.609,25.145 -9.609,25.145 0,0 -9.055,26.115 7.115,29.268 0,0 3.962,-2.506 7.357,-6.549 3.396,-4.043 10.025,-9.783 13.583,-9.864 3.48,-0.079 16.24,-0.003 16.796,0 v 0 c 0,0 0.004,0 0.01,0 0.007,0 0.01,0 0.01,0 v 0 c 0.556,-0.003 13.316,-0.079 16.796,0 3.557,0.081 10.187,5.821 13.583,9.864 3.396,4.043 7.357,6.549 7.357,6.549 16.17,-3.153 7.115,-29.268 7.115,-29.268 0,0 -6.952,-23.447 -9.608,-25.145 z M 74.187,27.976 c 2.243,0 4.067,1.825 4.067,4.067 0,2.242 -1.825,4.067 -4.067,4.067 -2.242,0 -4.067,-1.824 -4.067,-4.067 0,-2.243 1.824,-4.067 4.067,-4.067 z m -6.228,6.225 c 2.243,0 4.067,1.824 4.067,4.067 0,2.243 -1.825,4.067 -4.067,4.067 -2.242,0 -4.067,-1.825 -4.067,-4.067 0,-2.242 1.824,-4.067 4.067,-4.067 z m -11.076,1.465 c 1.435,0 2.602,1.168 2.602,2.603 0,1.435 -1.167,2.602 -2.602,2.602 -1.435,0 -2.602,-1.167 -2.602,-2.602 0,-1.435 1.167,-2.603 2.602,-2.603 z m -39.066,2.44 c 0,-4.422 3.598,-8.019 8.02,-8.019 4.422,0 8.019,3.597 8.019,8.019 0,4.422 -3.597,8.02 -8.019,8.02 -4.422,0 -8.02,-3.598 -8.02,-8.02 z m 26.689,17.398 c 0,0.276 -0.224,0.5 -0.5,0.5 h -3.668 v 3.669 c 0,0.276 -0.224,0.5 -0.5,0.5 h -3.96 c -0.276,0 -0.5,-0.224 -0.5,-0.5 V 56.004 H 31.71 c -0.276,0 -0.5,-0.224 -0.5,-0.5 v -3.96 c 0,-0.276 0.224,-0.5 0.5,-0.5 h 3.668 v -3.669 c 0,-0.276 0.224,-0.5 0.5,-0.5 h 3.96 c 0.276,0 0.5,0.224 0.5,0.5 v 3.669 h 3.668 c 0.276,0 0.5,0.224 0.5,0.5 v 3.96 z M 43.3,40.87 c -1.435,0 -2.602,-1.167 -2.602,-2.602 0,-1.435 1.167,-2.603 2.602,-2.603 1.435,0 2.602,1.168 2.602,2.603 0,1.435 -1.168,2.602 -2.602,2.602 z M 50,32.705 c -2.689,0 -4.876,-2.188 -4.876,-4.877 0,-2.688 2.188,-4.876 4.876,-4.876 2.688,0 4.876,2.188 4.876,4.876 0,2.69 -2.187,4.877 -4.876,4.877 z M 62.3,60.76 c -4.422,0 -8.019,-3.598 -8.019,-8.02 0,-4.422 3.597,-8.019 8.019,-8.019 4.422,0 8.019,3.597 8.019,8.019 0,4.422 -3.597,8.02 -8.019,8.02 z M 74.187,48.887 c -2.243,0 -4.067,-1.824 -4.067,-4.067 0,-2.243 1.825,-4.067 4.067,-4.067 2.242,0 4.067,1.825 4.067,4.067 0,2.242 -1.824,4.067 -4.067,4.067 z m 6.708,-6.551 c -2.243,0 -4.067,-1.825 -4.067,-4.067 0,-2.242 1.824,-4.067 4.067,-4.067 2.243,0 4.067,1.824 4.067,4.067 0,2.243 -1.824,4.067 -4.067,4.067 z"
       inkscape:connector-curvature="0"
       style="fill:#cccccc" />
    <path
       id="path5238"
       d="M 51.629,24.323 C 51.132,24.091 50.584,23.952 50,23.952 c -0.589,0 -1.142,0.142 -1.642,0.378 0.882,0.068 1.464,0.442 1.605,0.544 0.146,-0.104 0.749,-0.496 1.666,-0.551 z"
       inkscape:connector-curvature="0"
       style="fill:#cccccc" />
    <circle
       id="circle5240"
       r="3.0669999"
       cy="44.82"
       cx="74.186996"
       sodipodi:cx="74.186996"
       sodipodi:cy="44.82"
       sodipodi:rx="3.0669999"
       sodipodi:ry="3.0669999"
       d="m 77.253996,44.82 c 0,1.693857 -1.373142,3.067 -3.067,3.067 -1.693857,0 -3.066999,-1.373143 -3.066999,-3.067 0,-1.693858 1.373142,-3.067 3.066999,-3.067 1.693858,0 3.067,1.373142 3.067,3.067 z"
       style="fill:#cccccc" />
    <path
       id="path5242"
       d="m 47.517,24.877 c -0.845,0.711 -1.393,1.763 -1.393,2.952 0,0.789 0.24,1.522 0.646,2.135 -0.018,-1.95 2.109,-4.024 2.109,-4.024 -0.078,-0.427 -0.842,-0.815 -1.362,-1.063 z"
       inkscape:connector-curvature="0"
       style="fill:#cccccc" />
    <circle
       id="circle5244"
       r="3.0669999"
       cy="38.268002"
       cx="80.894997"
       sodipodi:cx="80.894997"
       sodipodi:cy="38.268002"
       sodipodi:rx="3.0669999"
       sodipodi:ry="3.0669999"
       d="m 83.961997,38.268002 c 0,1.693857 -1.373143,3.066999 -3.067,3.066999 -1.693858,0 -3.067,-1.373142 -3.067,-3.066999 0,-1.693858 1.373142,-3.067 3.067,-3.067 1.693857,0 3.067,1.373142 3.067,3.067 z"
       style="fill:#cccccc" />
    <circle
       id="circle5246"
       r="1.602"
       cy="38.268002"
       cx="56.882999"
       sodipodi:cx="56.882999"
       sodipodi:cy="38.268002"
       sodipodi:rx="1.602"
       sodipodi:ry="1.602"
       d="m 58.484999,38.268002 c 0,0.88476 -0.717239,1.602 -1.602,1.602 -0.88476,0 -1.602,-0.71724 -1.602,-1.602 0,-0.884761 0.71724,-1.602 1.602,-1.602 0.884761,0 1.602,0.717239 1.602,1.602 z"
       style="fill:#cccccc" />
    <circle
       id="circle5248"
       r="3.0669999"
       cy="32.042999"
       cx="74.186996"
       sodipodi:cx="74.186996"
       sodipodi:cy="32.042999"
       sodipodi:rx="3.0669999"
       sodipodi:ry="3.0669999"
       d="m 77.253996,32.042999 c 0,1.693858 -1.373142,3.067 -3.067,3.067 -1.693857,0 -3.066999,-1.373142 -3.066999,-3.067 0,-1.693857 1.373142,-3.067 3.066999,-3.067 1.693858,0 3.067,1.373143 3.067,3.067 z"
       style="fill:#cccccc" />
    <path
       id="path5250"
       d="m 62.3,45.722 c -3.87,0 -7.019,3.148 -7.019,7.019 0,3.871 3.149,7.02 7.019,7.02 3.87,0 7.019,-3.149 7.019,-7.02 0,-3.871 -3.149,-7.019 -7.019,-7.019 z m 0,12.451 c -2.995,0 -5.432,-2.438 -5.432,-5.433 0,-2.995 2.437,-5.432 5.432,-5.432 2.995,0 5.432,2.437 5.432,5.432 0,2.995 -2.437,5.433 -5.432,5.433 z"
       inkscape:connector-curvature="0"
       style="fill:#cccccc" />
    <path
       id="path5252"
       d="m 62.3,48.309 c -2.444,0 -4.432,1.988 -4.432,4.432 0,2.444 1.988,4.433 4.432,4.433 2.444,0 4.432,-1.988 4.432,-4.433 -0.001,-2.444 -1.988,-4.432 -4.432,-4.432 z"
       inkscape:connector-curvature="0"
       style="fill:#cccccc" />
    <path
       id="path5254"
       d="m 39.338,51.544 v -3.669 h -2.96 v 3.669 c 0,0.276 -0.224,0.5 -0.5,0.5 H 32.21 v 2.96 h 3.668 c 0.276,0 0.5,0.224 0.5,0.5 v 3.669 h 2.96 v -3.669 c 0,-0.276 0.224,-0.5 0.5,-0.5 h 3.668 v -2.96 h -3.668 c -0.276,0 -0.5,-0.224 -0.5,-0.5 z"
       inkscape:connector-curvature="0"
       style="fill:#cccccc" />
  </g>
</svg>
