<?xml version="1.0" encoding="UTF-8" standalone="no"?>
<!-- Created with Inkscape (http://www.inkscape.org/) -->

<svg
   xmlns:dc="http://purl.org/dc/elements/1.1/"
   xmlns:cc="http://creativecommons.org/ns#"
   xmlns:rdf="http://www.w3.org/1999/02/22-rdf-syntax-ns#"
   xmlns:svg="http://www.w3.org/2000/svg"
   xmlns="http://www.w3.org/2000/svg"
   xmlns:sodipodi="http://sodipodi.sourceforge.net/DTD/sodipodi-0.dtd"
   xmlns:inkscape="http://www.inkscape.org/namespaces/inkscape"
   id="svg7384"
   height="16"
   width="16"
   version="1.1"
   inkscape:version="0.48.4 r9939"
   sodipodi:docname="applications-utilities-symbolic.svg">
  <defs
     id="defs10" />
  <sodipodi:namedview
     pagecolor="#ffffff"
     bordercolor="#666666"
     borderopacity="1"
     objecttolerance="10"
     gridtolerance="10"
     guidetolerance="10"
     inkscape:pageopacity="0"
     inkscape:pageshadow="2"
     inkscape:window-width="1280"
     inkscape:window-height="748"
     id="namedview8"
     showgrid="true"
     inkscape:zoom="26.173863"
     inkscape:cx="6.8623528"
     inkscape:cy="7.7814813"
     inkscape:window-x="0"
     inkscape:window-y="0"
     inkscape:window-maximized="1"
     inkscape:current-layer="svg7384"
     inkscape:snap-global="true"
     showguides="true"
     inkscape:guide-bbox="true">
    <inkscape:grid
       type="xygrid"
       id="grid3874"
       empspacing="5"
       visible="true"
       enabled="true"
       snapvisiblegridlinesonly="true"
       spacingx="1.3877788e-16px"
       spacingy="1.3877788e-16px" />
    <sodipodi:guide
       orientation="1,0"
       position="20.703125,8.2031251"
       id="guide6043" />
  </sodipodi:namedview>
  <metadata
     id="metadata90">
    <rdf:RDF>
      <cc:Work
         rdf:about="">
        <dc:format>image/svg+xml</dc:format>
        <dc:type
           rdf:resource="http://purl.org/dc/dcmitype/StillImage" />
        <dc:title>Gnome Symbolic Icon Theme</dc:title>
      </cc:Work>
    </rdf:RDF>
  </metadata>
  <title
     id="title9167">Gnome Symbolic Icon Theme</title>
  <rect
     style="fill:none;fill-rule:evenodd;stroke:none"
     id="rect3760"
     width="16"
     height="16"
     x="0.042532369"
     y="-7.5582534e-07"
     ry="0.63891309" />
  <g
     transform="matrix(0.85715014,0,0,0.85715014,4.1413791,1.1122001)"
     id="g4374"
     style="stroke-width:0;stroke-miterlimit:4;stroke-dasharray:none;fill:#cccccc">
    <g
       id="g4376"
       transform="scale(0.16541353,0.16541353)"
       style="stroke-width:0;stroke-miterlimit:4;stroke-dasharray:none;fill:#cccccc" />
    <g
       id="g4380"
       transform="translate(-39.225564,-37.556391)"
       style="stroke-width:0;stroke-miterlimit:4;stroke-dasharray:none;fill:#cccccc" />
    <g
       id="g4382"
       transform="translate(-39.225564,-37.556391)"
       style="stroke-width:0;stroke-miterlimit:4;stroke-dasharray:none;fill:#cccccc" />
    <g
       id="g4384"
       transform="translate(-39.225564,-37.556391)"
       style="stroke-width:0;stroke-miterlimit:4;stroke-dasharray:none;fill:#cccccc" />
    <g
       id="g4386"
       transform="translate(-39.225564,-37.556391)"
       style="stroke-width:0;stroke-miterlimit:4;stroke-dasharray:none;fill:#cccccc" />
    <g
       id="g4388"
       transform="translate(-39.225564,-37.556391)"
       style="stroke-width:0;stroke-miterlimit:4;stroke-dasharray:none;fill:#cccccc" />
    <g
       id="g4390"
       transform="translate(-39.225564,-37.556391)"
       style="stroke-width:0;stroke-miterlimit:4;stroke-dasharray:none;fill:#cccccc" />
    <g
       id="g4392"
       transform="translate(-39.225564,-37.556391)"
       style="stroke-width:0;stroke-miterlimit:4;stroke-dasharray:none;fill:#cccccc" />
    <g
       id="g4394"
       transform="translate(-39.225564,-37.556391)"
       style="stroke-width:0;stroke-miterlimit:4;stroke-dasharray:none;fill:#cccccc" />
    <g
       id="g4396"
       transform="translate(-39.225564,-37.556391)"
       style="stroke-width:0;stroke-miterlimit:4;stroke-dasharray:none;fill:#cccccc" />
    <g
       id="g4398"
       transform="translate(-39.225564,-37.556391)"
       style="stroke-width:0;stroke-miterlimit:4;stroke-dasharray:none;fill:#cccccc" />
    <g
       id="g4400"
       transform="translate(-39.225564,-37.556391)"
       style="stroke-width:0;stroke-miterlimit:4;stroke-dasharray:none;fill:#cccccc" />
    <g
       id="g4402"
       transform="translate(-39.225564,-37.556391)"
       style="stroke-width:0;stroke-miterlimit:4;stroke-dasharray:none;fill:#cccccc" />
    <g
       id="g4404"
       transform="translate(-39.225564,-37.556391)"
       style="stroke-width:0;stroke-miterlimit:4;stroke-dasharray:none;fill:#cccccc" />
    <g
       id="g4406"
       transform="translate(-39.225564,-37.556391)"
       style="stroke-width:0;stroke-miterlimit:4;stroke-dasharray:none;fill:#cccccc" />
    <g
       id="g4408"
       transform="translate(-39.225564,-37.556391)"
       style="stroke-width:0;stroke-miterlimit:4;stroke-dasharray:none;fill:#cccccc" />
  </g>
  <g
     transform="matrix(0.96571603,0,0,0.96571603,-0.3198648,2.304078)"
     id="g4410">
    <g
       id="g4412"
       transform="scale(0.16541353,0.16541353)" />
    <g
       id="g4416"
       transform="translate(-39.225564,-37.556391)" />
    <g
       id="g4418"
       transform="translate(-39.225564,-37.556391)" />
    <g
       id="g4420"
       transform="translate(-39.225564,-37.556391)" />
    <g
       id="g4422"
       transform="translate(-39.225564,-37.556391)" />
    <g
       id="g4424"
       transform="translate(-39.225564,-37.556391)" />
    <g
       id="g4426"
       transform="translate(-39.225564,-37.556391)" />
    <g
       id="g4428"
       transform="translate(-39.225564,-37.556391)" />
    <g
       id="g4430"
       transform="translate(-39.225564,-37.556391)" />
    <g
       id="g4432"
       transform="translate(-39.225564,-37.556391)" />
    <g
       id="g4434"
       transform="translate(-39.225564,-37.556391)" />
    <g
       id="g4436"
       transform="translate(-39.225564,-37.556391)" />
    <g
       id="g4438"
       transform="translate(-39.225564,-37.556391)" />
    <g
       id="g4440"
       transform="translate(-39.225564,-37.556391)" />
    <g
       id="g4442"
       transform="translate(-39.225564,-37.556391)" />
    <g
       id="g4444"
       transform="translate(-39.225564,-37.556391)" />
  </g>
  <g
     id="g5565"
     transform="matrix(0.85738422,0,0,0.85738422,1.9246689,-0.73847626)">
    <g
       id="g5529" />
    <g
       id="g5531" />
    <g
       id="g5533" />
    <g
       id="g5535" />
    <g
       id="g5537" />
    <g
       id="g5539" />
    <g
       id="g5541" />
    <g
       id="g5543" />
    <g
       id="g5545" />
    <g
       id="g5547" />
    <g
       id="g5549" />
    <g
       id="g5551" />
    <g
       id="g5553" />
    <g
       id="g5555" />
    <g
       id="g5557" />
  </g>
  <g
     id="g3085"
     transform="matrix(0.98975033,0,0,0.98975033,-1.5982383,-2.8715961)">
    <path
       style="fill:#cccccc"
       d="m 15.177277,3.5291021 c -0.344688,0 -0.680282,0.063923 -0.982237,0.1765819 -0.457349,0.1702251 -0.809012,0.4871907 -0.871875,0.5518198 -0.06357,0.064628 -2.681842,2.7590955 -2.681842,2.7590955 C 10.301579,7.365879 9.9358771,7.554734 9.8246304,7.447019 9.71409,7.339303 9.9039157,6.9696285 10.244014,6.6192896 L 11.590453,5.2287054 C 11.93055,4.8790728 11.813299,4.5910674 11.32558,4.5885952 L 5.1672763,4.5665192 c 0,0 -2.1425594,-0.037347 -3.4764607,1.6444206 -0.080875,0.09818 1.8168534,1.4016212 3.5095702,1.4016212 0.036024,0 1.8453718,-0.01289 3.8516978,-0.02207 0.4877198,-0.0021 0.6092083,0.272643 0.2648732,0.618038 0,0 -5.3848724,5.414979 -5.7168468,5.772028 -0.4393363,0.471475 -0.7063284,1.103551 -0.7063284,1.798931 0,1.471636 1.0670857,2.659769 2.5383679,2.659769 0.6805482,0 0.9472751,-0.107716 1.202966,-0.309019 0.077051,-0.06068 5.2735445,-5.126973 8.3876525,-8.21107 l 0,1.379548 1.114675,0.353164 -2.218313,0.706329 2.218313,0.706329 -2.218313,0.695292 2.218313,0.706328 -1.114675,0.353165 0.562856,3.299879 0.551819,-3.299879 L 17.7929,14.466158 15.574587,13.75983 17.7929,13.064538 15.574587,12.358209 17.7929,11.65188 l -1.655457,-0.706328 0,-2.130022 c 0.648789,-0.649889 1.140405,-1.146939 1.191929,-1.225039 0.280766,-0.423797 0.441456,-0.9457736 0.441456,-1.5009478 3.53e-4,-1.46881 -1.12474,-2.5604411 -2.593551,-2.5604411 z m 0.27591,0.9160198 c 0.30019,-0.026487 0.652824,0.038054 0.993275,0.3421282 0.320673,0.2867694 0.420089,0.5917267 0.419382,0.8608378 -0.0024,0.4877198 -0.594993,0.554909 -0.960165,0.2317637 L 15.298678,5.3390692 C 14.933859,5.015924 14.967587,4.4878548 15.453187,4.4451219 z m -10.2196924,1.0594927 2.0196583,0 c 0.2648732,0 0.4745648,0.1737568 0.4745648,0.4414553 0,0.2648732 -0.2096916,0.441456 -0.4745648,0.441456 l -2.0196583,0 C 4.9686215,6.387879 4.7589305,6.2109431 4.7589305,5.9460699 c 0,-0.2676985 0.2093378,-0.4414553 0.4745641,-0.4414553 z M 4.2843657,15.680161 c 0.1800695,-0.02282 0.4012832,0.06057 0.5628559,0.2428 l 0.5297463,0.607001 c 0.3231453,0.365173 0.2559555,0.959459 -0.2317643,0.960166 -0.268758,7.27e-4 -0.5737153,-0.110099 -0.8608379,-0.430419 -0.3030149,-0.339391 -0.3682616,-0.683461 -0.3421275,-0.982238 0.02119,-0.243154 0.1620581,-0.374487 0.3421275,-0.39731 z m 6.5887213,0.03311 c -0.487367,-0.0014 -1.1677375,0.273262 -1.5230207,0.607002 l -1.2912571,1.202966 c -0.3552832,0.33374 -0.2452726,0.605235 0.2428004,0.607001 1.7252074,0.0067 3.6233774,0.01104 3.6530434,0.01104 1.180276,0 2.505878,-1.122003 2.450078,-1.19193 -0.930235,-1.17074 -2.428005,-1.236075 -2.428005,-1.236075 l -1.103639,0 z"
       id="path3524"
       inkscape:connector-curvature="0" />
  </g>
</svg>
