<?xml version="1.0" encoding="UTF-8" standalone="no"?>
<!-- Created with Inkscape (http://www.inkscape.org/) -->

<svg
   xmlns:dc="http://purl.org/dc/elements/1.1/"
   xmlns:cc="http://creativecommons.org/ns#"
   xmlns:rdf="http://www.w3.org/1999/02/22-rdf-syntax-ns#"
   xmlns:svg="http://www.w3.org/2000/svg"
   xmlns="http://www.w3.org/2000/svg"
   xmlns:sodipodi="http://sodipodi.sourceforge.net/DTD/sodipodi-0.dtd"
   xmlns:inkscape="http://www.inkscape.org/namespaces/inkscape"
   id="svg7384"
   height="16"
   width="16"
   version="1.1"
   inkscape:version="0.48.4 r9939"
   sodipodi:docname="applications-games-symbolic.svg">
  <defs
     id="defs10" />
  <sodipodi:namedview
     pagecolor="#ffffff"
     bordercolor="#666666"
     borderopacity="1"
     objecttolerance="10"
     gridtolerance="10"
     guidetolerance="10"
     inkscape:pageopacity="0"
     inkscape:pageshadow="2"
     inkscape:window-width="1280"
     inkscape:window-height="748"
     id="namedview8"
     showgrid="true"
     inkscape:zoom="15.190189"
     inkscape:cx="15.300167"
     inkscape:cy="5.8439035"
     inkscape:window-x="0"
     inkscape:window-y="0"
     inkscape:window-maximized="1"
     inkscape:current-layer="svg7384"
     inkscape:snap-global="false">
    <inkscape:grid
       type="xygrid"
       id="grid3874"
       empspacing="5"
       visible="true"
       enabled="true"
       snapvisiblegridlinesonly="true"
       spacingx="1.3877788e-16px"
       spacingy="1.3877788e-16px" />
  </sodipodi:namedview>
  <metadata
     id="metadata90">
    <rdf:RDF>
      <cc:Work
         rdf:about="">
        <dc:format>image/svg+xml</dc:format>
        <dc:type
           rdf:resource="http://purl.org/dc/dcmitype/StillImage" />
        <dc:title>Gnome Symbolic Icon Theme</dc:title>
      </cc:Work>
    </rdf:RDF>
  </metadata>
  <title
     id="title9167">Gnome Symbolic Icon Theme</title>
  <rect
     style="fill:none;fill-rule:evenodd;stroke:none"
     id="rect3760"
     width="16"
     height="16"
     x="0.042532369"
     y="-7.5582534e-07"
     ry="0.63891309" />
  <g
     transform="matrix(0.85715014,0,0,0.85715014,4.1413791,1.1122001)"
     id="g4374"
     style="stroke-width:0;stroke-miterlimit:4;stroke-dasharray:none;fill:#cccccc">
    <g
       id="g4376"
       transform="scale(0.16541353,0.16541353)"
       style="stroke-width:0;stroke-miterlimit:4;stroke-dasharray:none;fill:#cccccc" />
    <g
       id="g4380"
       transform="translate(-39.225564,-37.556391)"
       style="stroke-width:0;stroke-miterlimit:4;stroke-dasharray:none;fill:#cccccc" />
    <g
       id="g4382"
       transform="translate(-39.225564,-37.556391)"
       style="stroke-width:0;stroke-miterlimit:4;stroke-dasharray:none;fill:#cccccc" />
    <g
       id="g4384"
       transform="translate(-39.225564,-37.556391)"
       style="stroke-width:0;stroke-miterlimit:4;stroke-dasharray:none;fill:#cccccc" />
    <g
       id="g4386"
       transform="translate(-39.225564,-37.556391)"
       style="stroke-width:0;stroke-miterlimit:4;stroke-dasharray:none;fill:#cccccc" />
    <g
       id="g4388"
       transform="translate(-39.225564,-37.556391)"
       style="stroke-width:0;stroke-miterlimit:4;stroke-dasharray:none;fill:#cccccc" />
    <g
       id="g4390"
       transform="translate(-39.225564,-37.556391)"
       style="stroke-width:0;stroke-miterlimit:4;stroke-dasharray:none;fill:#cccccc" />
    <g
       id="g4392"
       transform="translate(-39.225564,-37.556391)"
       style="stroke-width:0;stroke-miterlimit:4;stroke-dasharray:none;fill:#cccccc" />
    <g
       id="g4394"
       transform="translate(-39.225564,-37.556391)"
       style="stroke-width:0;stroke-miterlimit:4;stroke-dasharray:none;fill:#cccccc" />
    <g
       id="g4396"
       transform="translate(-39.225564,-37.556391)"
       style="stroke-width:0;stroke-miterlimit:4;stroke-dasharray:none;fill:#cccccc" />
    <g
       id="g4398"
       transform="translate(-39.225564,-37.556391)"
       style="stroke-width:0;stroke-miterlimit:4;stroke-dasharray:none;fill:#cccccc" />
    <g
       id="g4400"
       transform="translate(-39.225564,-37.556391)"
       style="stroke-width:0;stroke-miterlimit:4;stroke-dasharray:none;fill:#cccccc" />
    <g
       id="g4402"
       transform="translate(-39.225564,-37.556391)"
       style="stroke-width:0;stroke-miterlimit:4;stroke-dasharray:none;fill:#cccccc" />
    <g
       id="g4404"
       transform="translate(-39.225564,-37.556391)"
       style="stroke-width:0;stroke-miterlimit:4;stroke-dasharray:none;fill:#cccccc" />
    <g
       id="g4406"
       transform="translate(-39.225564,-37.556391)"
       style="stroke-width:0;stroke-miterlimit:4;stroke-dasharray:none;fill:#cccccc" />
    <g
       id="g4408"
       transform="translate(-39.225564,-37.556391)"
       style="stroke-width:0;stroke-miterlimit:4;stroke-dasharray:none;fill:#cccccc" />
  </g>
  <g
     transform="matrix(0.96571603,0,0,0.96571603,-0.3198648,2.304078)"
     id="g4410">
    <g
       id="g4412"
       transform="scale(0.16541353,0.16541353)" />
    <g
       id="g4416"
       transform="translate(-39.225564,-37.556391)" />
    <g
       id="g4418"
       transform="translate(-39.225564,-37.556391)" />
    <g
       id="g4420"
       transform="translate(-39.225564,-37.556391)" />
    <g
       id="g4422"
       transform="translate(-39.225564,-37.556391)" />
    <g
       id="g4424"
       transform="translate(-39.225564,-37.556391)" />
    <g
       id="g4426"
       transform="translate(-39.225564,-37.556391)" />
    <g
       id="g4428"
       transform="translate(-39.225564,-37.556391)" />
    <g
       id="g4430"
       transform="translate(-39.225564,-37.556391)" />
    <g
       id="g4432"
       transform="translate(-39.225564,-37.556391)" />
    <g
       id="g4434"
       transform="translate(-39.225564,-37.556391)" />
    <g
       id="g4436"
       transform="translate(-39.225564,-37.556391)" />
    <g
       id="g4438"
       transform="translate(-39.225564,-37.556391)" />
    <g
       id="g4440"
       transform="translate(-39.225564,-37.556391)" />
    <g
       id="g4442"
       transform="translate(-39.225564,-37.556391)" />
    <g
       id="g4444"
       transform="translate(-39.225564,-37.556391)" />
  </g>
  <g
     id="g5379"
     transform="matrix(0.71931288,0,0,0.71931288,7.3071279,0.97474025)">
    <path
       sodipodi:nodetypes="sccccccssccccccssccssssssssssssssssssssssssss"
       inkscape:connector-curvature="0"
       id="path5355"
       d="m 1.5625,1.15625 c -4.7461971,0 -6.2500001,3.1249999 -0.78125,6.25 -9.3695747,-0.8517795 -11.774589,2.712237 -10.125,6 0.355105,0.09245 1.7540665,-0.515299 3.0937499,-2.09375 1.3953248,-1.6454555 3.5543393,-2.1573724 4.6875001,-1.5625001 0,0 0.70304099,0.9452131 0.78124999,2.3437501 -2.72326989,4.754785 -7.15061259,2.42259 -8.53124999,1.375 1.4085665,2.719328 5.5852865,5.227648 10.875,4.875 7.0588508,-0.47059 9.375,-3.847553 9.375,-8.59375 0,-1.1865493 -0.30439,-2.3156079 -0.8125,-3.34375 C 7.1783343,8.3194364 3.5129757,10.506641 1.5625,11.3125 1.0258573,11.534257 0.60130034,11.514242 -0.34375,11.71875 -0.4782536,10.757684 -0.89129822,10.086548 -1.125,9.78125 -0.42654863,9.1949843 -0.26006566,8.9336573 0.21875,8.65625 1.4107152,7.968546 3.5972384,7.0436958 5.875,6.15625 5.8102435,6.0550098 5.78125,5.9305725 5.78125,5.8125 c 0,-0.47229 0.572633,-0.875 1.28125,-0.875 0.4330437,0 0.7994282,0.1502386 1.03125,0.375 C 8.4730511,5.1732489 8.8213553,5.036721 9.1875,4.90625 7.4116896,2.639913 4.5137505,1.15625 1.5625,1.15625 z m 1.5,1.78125 c 0.708617,0 1.28125,0.40271 1.28125,0.875 0,0.47229 -0.572633,0.84375 -1.28125,0.84375 -0.708617,0 -1.28125,-0.37146 -1.28125,-0.84375 0,-0.47229 0.572633,-0.875 1.28125,-0.875 z M 8.53125,8.75 c 0.708617,0 1.28125,0.37146 1.28125,0.84375 0,0.47229 -0.572633,0.875 -1.28125,0.875 C 7.822633,10.46875 7.25,10.06604 7.25,9.59375 7.25,9.12146 7.822633,8.75 8.53125,8.75 z M 7.0625,12.9375 c 0.708617,0 1.28125,0.40271 1.28125,0.875 0,0.47229 -0.572633,0.84375 -1.28125,0.84375 -0.708617,0 -1.28125,-0.37146 -1.28125,-0.84375 0,-0.47229 0.572633,-0.875 1.28125,-0.875 z m -10,2 c 0.708617,0 1.28125,0.40271 1.28125,0.875 0,0.47229 -0.572633,0.84375 -1.28125,0.84375 -0.708617,0 -1.28125,-0.37146 -1.28125,-0.84375 0,-0.47229 0.572633,-0.875 1.28125,-0.875 z m 6,0 c 0.708617,0 1.28125,0.40271 1.28125,0.875 0,0.47229 -0.572633,0.84375 -1.28125,0.84375 -0.708617,0 -1.28125,-0.37146 -1.28125,-0.84375 0,-0.47229 0.572633,-0.875 1.28125,-0.875 z"
       style="fill:#cccccc;fill-rule:evenodd;stroke:none" />
    <path
       style="fill:#cccccc"
       sodipodi:nodetypes="ccccccccccc"
       id="path5376"
       d="m 0.21205081,8.887176 c -0.396048,0.2294549 -0.541747,0.4382915 -1.119465,0.9232158 0.193304,0.2525242 0.54289,0.8047532 0.654144,1.5996902 0.781689,-0.169157 1.108452,-0.128484 1.55233099,-0.311908 C 4.1983837,9.9002891 11.997079,4.7802728 11.868106,4.5191872 11.733615,4.2422634 2.9289528,7.3196598 0.21205081,8.887176 z m -1.95022201,1.249246 c -0.937284,-0.4920433 -2.11773,-0.1761409 -3.27186,1.184882 -1.154928,1.360768 -2.9081682,2.18223 -3.1228952,2.071618 1.0803,0.830647 4.8276742,2.580291 7.1225572,-1.426537 -0.06469,-1.156787 -0.727802,-1.829963 -0.727802,-1.829963 z"
       inkscape:connector-curvature="0" />
  </g>
</svg>
