<?xml version="1.0" encoding="UTF-8" standalone="no"?>
<!-- Created with Inkscape (http://www.inkscape.org/) -->

<svg
   xmlns:dc="http://purl.org/dc/elements/1.1/"
   xmlns:cc="http://creativecommons.org/ns#"
   xmlns:rdf="http://www.w3.org/1999/02/22-rdf-syntax-ns#"
   xmlns:svg="http://www.w3.org/2000/svg"
   xmlns="http://www.w3.org/2000/svg"
   xmlns:sodipodi="http://sodipodi.sourceforge.net/DTD/sodipodi-0.dtd"
   xmlns:inkscape="http://www.inkscape.org/namespaces/inkscape"
   id="svg7384"
   height="16"
   width="16"
   version="1.1"
   inkscape:version="0.48.4 r9939"
   sodipodi:docname="applications-multimedia-symbolic.svg">
  <defs
     id="defs10" />
  <sodipodi:namedview
     pagecolor="#ffffff"
     bordercolor="#666666"
     borderopacity="1"
     objecttolerance="10"
     gridtolerance="10"
     guidetolerance="10"
     inkscape:pageopacity="0"
     inkscape:pageshadow="2"
     inkscape:window-width="1280"
     inkscape:window-height="748"
     id="namedview8"
     showgrid="true"
     inkscape:zoom="15.190189"
     inkscape:cx="15.300167"
     inkscape:cy="5.8439035"
     inkscape:window-x="0"
     inkscape:window-y="0"
     inkscape:window-maximized="1"
     inkscape:current-layer="svg7384"
     inkscape:snap-global="false">
    <inkscape:grid
       type="xygrid"
       id="grid3874"
       empspacing="5"
       visible="true"
       enabled="true"
       snapvisiblegridlinesonly="true"
       spacingx="1.3877788e-16px"
       spacingy="1.3877788e-16px" />
  </sodipodi:namedview>
  <metadata
     id="metadata90">
    <rdf:RDF>
      <cc:Work
         rdf:about="">
        <dc:format>image/svg+xml</dc:format>
        <dc:type
           rdf:resource="http://purl.org/dc/dcmitype/StillImage" />
        <dc:title>Gnome Symbolic Icon Theme</dc:title>
      </cc:Work>
    </rdf:RDF>
  </metadata>
  <title
     id="title9167">Gnome Symbolic Icon Theme</title>
  <rect
     style="fill:none;fill-rule:evenodd;stroke:none"
     id="rect3760"
     width="16"
     height="16"
     x="0.042532369"
     y="-7.5582534e-07"
     ry="0.63891309" />
  <g
     transform="matrix(0.85715014,0,0,0.85715014,4.1413791,1.1122001)"
     id="g4374"
     style="stroke-width:0;stroke-miterlimit:4;stroke-dasharray:none;fill:#cccccc">
    <g
       id="g4376"
       transform="scale(0.16541353,0.16541353)"
       style="stroke-width:0;stroke-miterlimit:4;stroke-dasharray:none;fill:#cccccc" />
    <g
       id="g4380"
       transform="translate(-39.225564,-37.556391)"
       style="stroke-width:0;stroke-miterlimit:4;stroke-dasharray:none;fill:#cccccc" />
    <g
       id="g4382"
       transform="translate(-39.225564,-37.556391)"
       style="stroke-width:0;stroke-miterlimit:4;stroke-dasharray:none;fill:#cccccc" />
    <g
       id="g4384"
       transform="translate(-39.225564,-37.556391)"
       style="stroke-width:0;stroke-miterlimit:4;stroke-dasharray:none;fill:#cccccc" />
    <g
       id="g4386"
       transform="translate(-39.225564,-37.556391)"
       style="stroke-width:0;stroke-miterlimit:4;stroke-dasharray:none;fill:#cccccc" />
    <g
       id="g4388"
       transform="translate(-39.225564,-37.556391)"
       style="stroke-width:0;stroke-miterlimit:4;stroke-dasharray:none;fill:#cccccc" />
    <g
       id="g4390"
       transform="translate(-39.225564,-37.556391)"
       style="stroke-width:0;stroke-miterlimit:4;stroke-dasharray:none;fill:#cccccc" />
    <g
       id="g4392"
       transform="translate(-39.225564,-37.556391)"
       style="stroke-width:0;stroke-miterlimit:4;stroke-dasharray:none;fill:#cccccc" />
    <g
       id="g4394"
       transform="translate(-39.225564,-37.556391)"
       style="stroke-width:0;stroke-miterlimit:4;stroke-dasharray:none;fill:#cccccc" />
    <g
       id="g4396"
       transform="translate(-39.225564,-37.556391)"
       style="stroke-width:0;stroke-miterlimit:4;stroke-dasharray:none;fill:#cccccc" />
    <g
       id="g4398"
       transform="translate(-39.225564,-37.556391)"
       style="stroke-width:0;stroke-miterlimit:4;stroke-dasharray:none;fill:#cccccc" />
    <g
       id="g4400"
       transform="translate(-39.225564,-37.556391)"
       style="stroke-width:0;stroke-miterlimit:4;stroke-dasharray:none;fill:#cccccc" />
    <g
       id="g4402"
       transform="translate(-39.225564,-37.556391)"
       style="stroke-width:0;stroke-miterlimit:4;stroke-dasharray:none;fill:#cccccc" />
    <g
       id="g4404"
       transform="translate(-39.225564,-37.556391)"
       style="stroke-width:0;stroke-miterlimit:4;stroke-dasharray:none;fill:#cccccc" />
    <g
       id="g4406"
       transform="translate(-39.225564,-37.556391)"
       style="stroke-width:0;stroke-miterlimit:4;stroke-dasharray:none;fill:#cccccc" />
    <g
       id="g4408"
       transform="translate(-39.225564,-37.556391)"
       style="stroke-width:0;stroke-miterlimit:4;stroke-dasharray:none;fill:#cccccc" />
  </g>
  <g
     transform="matrix(0.96571603,0,0,0.96571603,-0.3198648,2.304078)"
     id="g4410">
    <g
       id="g4412"
       transform="scale(0.16541353,0.16541353)" />
    <g
       id="g4416"
       transform="translate(-39.225564,-37.556391)" />
    <g
       id="g4418"
       transform="translate(-39.225564,-37.556391)" />
    <g
       id="g4420"
       transform="translate(-39.225564,-37.556391)" />
    <g
       id="g4422"
       transform="translate(-39.225564,-37.556391)" />
    <g
       id="g4424"
       transform="translate(-39.225564,-37.556391)" />
    <g
       id="g4426"
       transform="translate(-39.225564,-37.556391)" />
    <g
       id="g4428"
       transform="translate(-39.225564,-37.556391)" />
    <g
       id="g4430"
       transform="translate(-39.225564,-37.556391)" />
    <g
       id="g4432"
       transform="translate(-39.225564,-37.556391)" />
    <g
       id="g4434"
       transform="translate(-39.225564,-37.556391)" />
    <g
       id="g4436"
       transform="translate(-39.225564,-37.556391)" />
    <g
       id="g4438"
       transform="translate(-39.225564,-37.556391)" />
    <g
       id="g4440"
       transform="translate(-39.225564,-37.556391)" />
    <g
       id="g4442"
       transform="translate(-39.225564,-37.556391)" />
    <g
       id="g4444"
       transform="translate(-39.225564,-37.556391)" />
  </g>
  <g
     id="g5565"
     transform="matrix(0.85738422,0,0,0.85738422,1.9246689,-0.73847626)">
    <g
       id="g5529" />
    <g
       id="g5531" />
    <g
       id="g5533" />
    <g
       id="g5535" />
    <g
       id="g5537" />
    <g
       id="g5539" />
    <g
       id="g5541" />
    <g
       id="g5543" />
    <g
       id="g5545" />
    <g
       id="g5547" />
    <g
       id="g5549" />
    <g
       id="g5551" />
    <g
       id="g5553" />
    <g
       id="g5555" />
    <g
       id="g5557" />
  </g>
  <g
     id="g5810"
     transform="matrix(0.49309778,0,0,0.49309778,0.17030782,1.7882)"
     style="fill:#cccccc">
    <g
       id="g5762"
       style="fill:#cccccc">
      <path
         id="path5764"
         d="M 29.232,20.137 C 28.851,19.463 27.961,17.879 27.044,16.528 26.808,16.181 26.575,15.86 26.351,15.554 h -14.43 c -0.224,0.305 -0.456,0.627 -0.691,0.974 -0.919,1.351 -1.809,2.935 -2.188,3.609 L 8.94,20.318 c -0.391,0.691 -0.396,1.632 -0.012,2.292 0.292,0.498 0.757,0.774 1.313,0.774 h 1.263 4.681 5.901 4.71 1.235 c 0.555,0 1.021,-0.276 1.314,-0.774 0.381,-0.66 0.378,-1.601 -0.015,-2.292 l -0.098,-0.181 z"
         inkscape:connector-curvature="0"
         style="fill:#cccccc" />
      <path
         id="path5766"
         d="M 31.426,19.979 31.253,19.675 C 30.606,18.524 29.094,15.83 27.531,13.532 27.008,12.762 26.48,12.042 26.003,11.391 25.238,10.349 24.287,9.054 24.278,8.669 24.336,6.98 24.296,2.984 24.283,1.75 h 0.996 V 0 H 12.667 v 1.751 h 1.323 c -0.016,1.234 -0.054,5.229 0.005,6.917 -0.011,0.386 -0.961,1.681 -1.726,2.724 -0.478,0.651 -1.005,1.371 -1.528,2.141 -1.563,2.298 -3.075,4.991 -3.722,6.143 L 6.846,19.98 c -0.665,1.174 -0.672,2.778 -0.021,3.898 0.496,0.849 1.291,1.317 2.235,1.317 h 20.15 0.003 c 0.942,0 1.736,-0.468 2.231,-1.317 0.654,-1.121 0.647,-2.725 -0.018,-3.899 z m -1.232,3.168 c -0.231,0.396 -0.562,0.599 -0.983,0.599 H 9.061 C 8.642,23.746 8.31,23.544 8.08,23.147 7.686,22.474 7.699,21.417 8.109,20.693 l 0.174,-0.312 c 0.636,-1.134 2.128,-3.789 3.657,-6.035 0.512,-0.756 1.029,-1.46 1.499,-2.101 C 14.774,10.424 15.47,9.437 15.445,8.619 15.392,7.116 15.419,3.62 15.436,2.111 h 7.402 c 0.015,1.51 0.045,5.005 -0.008,6.508 -0.028,0.819 0.669,1.805 2.004,3.626 0.469,0.641 0.986,1.345 1.5,2.101 1.528,2.246 3.019,4.901 3.656,6.035 l 0.173,0.312 c 0.411,0.724 0.423,1.781 0.031,2.454 z"
         inkscape:connector-curvature="0"
         style="fill:#cccccc" />
    </g>
    <g
       id="g5768"
       style="fill:#cccccc">
      <path
         id="path5770"
         d="M 11.338,1.825 V 1.678 H 0 v 3.063 h 1.59 v 16.127 c 0,1.08 0.847,4.164 4.606,4.164 0.14,0 0.263,-0.021 0.397,-0.03 C 6.151,24.78 5.774,24.428 5.494,23.95 5.403,23.792 5.328,23.622 5.262,23.448 3.143,22.969 3.071,20.891 3.071,20.867 V 4.742 h 5.735 v 9.776 C 9.005,14.211 9.206,13.905 9.41,13.607 9.705,13.173 10,12.759 10.288,12.36 V 4.742 H 11.88 V 1.825 h -0.542 z"
         inkscape:connector-curvature="0"
         style="fill:#cccccc" />
      <path
         id="path5772"
         d="m 4.305,20.959 c 0,0.189 0.115,0.878 0.72,1.27 C 4.992,21.476 5.151,20.7 5.518,20.053 l 0.171,-0.304 c 0.382,-0.679 1.069,-1.9 1.886,-3.256 0,-1.959 0,-3.822 0,-3.822 h -3.27 c 0,0 0,8.02 0,8.288 z"
         inkscape:connector-curvature="0"
         style="fill:#cccccc" />
    </g>
    <g
       id="g5774"
       style="fill:#cccccc" />
    <g
       id="g5776"
       style="fill:#cccccc" />
    <g
       id="g5778"
       style="fill:#cccccc" />
    <g
       id="g5780"
       style="fill:#cccccc" />
    <g
       id="g5782"
       style="fill:#cccccc" />
    <g
       id="g5784"
       style="fill:#cccccc" />
    <g
       id="g5786"
       style="fill:#cccccc" />
    <g
       id="g5788"
       style="fill:#cccccc" />
    <g
       id="g5790"
       style="fill:#cccccc" />
    <g
       id="g5792"
       style="fill:#cccccc" />
    <g
       id="g5794"
       style="fill:#cccccc" />
    <g
       id="g5796"
       style="fill:#cccccc" />
    <g
       id="g5798"
       style="fill:#cccccc" />
    <g
       id="g5800"
       style="fill:#cccccc" />
    <g
       id="g5802"
       style="fill:#cccccc" />
  </g>
</svg>
