<?xml version="1.0" encoding="UTF-8" standalone="no"?>
<!-- Created with Inkscape (http://www.inkscape.org/) -->

<svg
   xmlns:dc="http://purl.org/dc/elements/1.1/"
   xmlns:cc="http://creativecommons.org/ns#"
   xmlns:rdf="http://www.w3.org/1999/02/22-rdf-syntax-ns#"
   xmlns:svg="http://www.w3.org/2000/svg"
   xmlns="http://www.w3.org/2000/svg"
   xmlns:sodipodi="http://sodipodi.sourceforge.net/DTD/sodipodi-0.dtd"
   xmlns:inkscape="http://www.inkscape.org/namespaces/inkscape"
   id="svg7384"
   height="16"
   width="16"
   version="1.1"
   inkscape:version="0.48.4 r9939"
   sodipodi:docname="applications-graphics-symbolic.svg">
  <defs
     id="defs10" />
  <sodipodi:namedview
     pagecolor="#ffffff"
     bordercolor="#666666"
     borderopacity="1"
     objecttolerance="10"
     gridtolerance="10"
     guidetolerance="10"
     inkscape:pageopacity="0"
     inkscape:pageshadow="2"
     inkscape:window-width="1280"
     inkscape:window-height="748"
     id="namedview8"
     showgrid="true"
     inkscape:zoom="15.190189"
     inkscape:cx="15.300167"
     inkscape:cy="5.8439035"
     inkscape:window-x="0"
     inkscape:window-y="0"
     inkscape:window-maximized="1"
     inkscape:current-layer="svg7384"
     inkscape:snap-global="false">
    <inkscape:grid
       type="xygrid"
       id="grid3874"
       empspacing="5"
       visible="true"
       enabled="true"
       snapvisiblegridlinesonly="true"
       spacingx="1.3877788e-16px"
       spacingy="1.3877788e-16px" />
  </sodipodi:namedview>
  <metadata
     id="metadata90">
    <rdf:RDF>
      <cc:Work
         rdf:about="">
        <dc:format>image/svg+xml</dc:format>
        <dc:type
           rdf:resource="http://purl.org/dc/dcmitype/StillImage" />
        <dc:title>Gnome Symbolic Icon Theme</dc:title>
      </cc:Work>
    </rdf:RDF>
  </metadata>
  <title
     id="title9167">Gnome Symbolic Icon Theme</title>
  <rect
     style="fill:none;fill-rule:evenodd;stroke:none"
     id="rect3760"
     width="16"
     height="16"
     x="0.042532369"
     y="-7.5582534e-07"
     ry="0.63891309" />
  <g
     transform="matrix(0.85715014,0,0,0.85715014,4.1413791,1.1122001)"
     id="g4374"
     style="stroke-width:0;stroke-miterlimit:4;stroke-dasharray:none;fill:#cccccc">
    <g
       id="g4376"
       transform="scale(0.16541353,0.16541353)"
       style="stroke-width:0;stroke-miterlimit:4;stroke-dasharray:none;fill:#cccccc" />
    <g
       id="g4380"
       transform="translate(-39.225564,-37.556391)"
       style="stroke-width:0;stroke-miterlimit:4;stroke-dasharray:none;fill:#cccccc" />
    <g
       id="g4382"
       transform="translate(-39.225564,-37.556391)"
       style="stroke-width:0;stroke-miterlimit:4;stroke-dasharray:none;fill:#cccccc" />
    <g
       id="g4384"
       transform="translate(-39.225564,-37.556391)"
       style="stroke-width:0;stroke-miterlimit:4;stroke-dasharray:none;fill:#cccccc" />
    <g
       id="g4386"
       transform="translate(-39.225564,-37.556391)"
       style="stroke-width:0;stroke-miterlimit:4;stroke-dasharray:none;fill:#cccccc" />
    <g
       id="g4388"
       transform="translate(-39.225564,-37.556391)"
       style="stroke-width:0;stroke-miterlimit:4;stroke-dasharray:none;fill:#cccccc" />
    <g
       id="g4390"
       transform="translate(-39.225564,-37.556391)"
       style="stroke-width:0;stroke-miterlimit:4;stroke-dasharray:none;fill:#cccccc" />
    <g
       id="g4392"
       transform="translate(-39.225564,-37.556391)"
       style="stroke-width:0;stroke-miterlimit:4;stroke-dasharray:none;fill:#cccccc" />
    <g
       id="g4394"
       transform="translate(-39.225564,-37.556391)"
       style="stroke-width:0;stroke-miterlimit:4;stroke-dasharray:none;fill:#cccccc" />
    <g
       id="g4396"
       transform="translate(-39.225564,-37.556391)"
       style="stroke-width:0;stroke-miterlimit:4;stroke-dasharray:none;fill:#cccccc" />
    <g
       id="g4398"
       transform="translate(-39.225564,-37.556391)"
       style="stroke-width:0;stroke-miterlimit:4;stroke-dasharray:none;fill:#cccccc" />
    <g
       id="g4400"
       transform="translate(-39.225564,-37.556391)"
       style="stroke-width:0;stroke-miterlimit:4;stroke-dasharray:none;fill:#cccccc" />
    <g
       id="g4402"
       transform="translate(-39.225564,-37.556391)"
       style="stroke-width:0;stroke-miterlimit:4;stroke-dasharray:none;fill:#cccccc" />
    <g
       id="g4404"
       transform="translate(-39.225564,-37.556391)"
       style="stroke-width:0;stroke-miterlimit:4;stroke-dasharray:none;fill:#cccccc" />
    <g
       id="g4406"
       transform="translate(-39.225564,-37.556391)"
       style="stroke-width:0;stroke-miterlimit:4;stroke-dasharray:none;fill:#cccccc" />
    <g
       id="g4408"
       transform="translate(-39.225564,-37.556391)"
       style="stroke-width:0;stroke-miterlimit:4;stroke-dasharray:none;fill:#cccccc" />
  </g>
  <g
     transform="matrix(0.96571603,0,0,0.96571603,-0.3198648,2.304078)"
     id="g4410">
    <g
       id="g4412"
       transform="scale(0.16541353,0.16541353)" />
    <g
       id="g4416"
       transform="translate(-39.225564,-37.556391)" />
    <g
       id="g4418"
       transform="translate(-39.225564,-37.556391)" />
    <g
       id="g4420"
       transform="translate(-39.225564,-37.556391)" />
    <g
       id="g4422"
       transform="translate(-39.225564,-37.556391)" />
    <g
       id="g4424"
       transform="translate(-39.225564,-37.556391)" />
    <g
       id="g4426"
       transform="translate(-39.225564,-37.556391)" />
    <g
       id="g4428"
       transform="translate(-39.225564,-37.556391)" />
    <g
       id="g4430"
       transform="translate(-39.225564,-37.556391)" />
    <g
       id="g4432"
       transform="translate(-39.225564,-37.556391)" />
    <g
       id="g4434"
       transform="translate(-39.225564,-37.556391)" />
    <g
       id="g4436"
       transform="translate(-39.225564,-37.556391)" />
    <g
       id="g4438"
       transform="translate(-39.225564,-37.556391)" />
    <g
       id="g4440"
       transform="translate(-39.225564,-37.556391)" />
    <g
       id="g4442"
       transform="translate(-39.225564,-37.556391)" />
    <g
       id="g4444"
       transform="translate(-39.225564,-37.556391)" />
  </g>
  <g
     id="g5565"
     transform="matrix(0.85738422,0,0,0.85738422,1.9246689,-0.73847626)">
    <g
       id="g5529" />
    <g
       id="g5531" />
    <g
       id="g5533" />
    <g
       id="g5535" />
    <g
       id="g5537" />
    <g
       id="g5539" />
    <g
       id="g5541" />
    <g
       id="g5543" />
    <g
       id="g5545" />
    <g
       id="g5547" />
    <g
       id="g5549" />
    <g
       id="g5551" />
    <g
       id="g5553" />
    <g
       id="g5555" />
    <g
       id="g5557" />
  </g>
  <g
     id="g5626"
     transform="translate(-0.08246763,0.09733067)"
     style="fill:#cccccc">
    <path
       id="path5450"
       d="m 1.46875,0.4375 c -0.52474559,0 -0.9375,0.44400442 -0.9375,0.96875 l 0,13.3125 c 0,0.524746 0.41275441,0.9375 0.9375,0.9375 l 8.09375,0 c -0.2262232,-0.283687 -0.4045303,-0.599909 -0.5,-0.9375 l -4.75,0 0,-1.03125 C 3.981665,13.645162 3.668902,13.559188 3.375,13.40625 l 0,1.3125 -1.90625,0 0,-1.90625 1.125,0 C 2.1283979,12.278331 1.9172958,11.594078 1.9375,10.90625 l -0.46875,0 L 1.46875,9 2.625,9 C 2.7464194,8.8455326 2.8794686,8.6992131 3.03125,8.5625 3.4141854,8.2178582 3.8605628,7.983914 4.3125,7.84375 l 0,-6.4375 2.71875,0 0,-0.96875 -5.5625,0 z m 7.84375,0 1.84375,0.96875 0.78125,0 0,0.40625 0.9375,0.5 0,-0.90625 1.90625,0 0,1.875 0.28125,0.15625 0,9.9375 c -0.0026,0.43255 -0.0938,0.867669 -0.28125,1.28125 l 0,0.0625 -0.03125,0 c -0.156978,0.328648 -0.385599,0.660649 -0.65625,0.9375 l 0.6875,0 c 0.524746,0 0.9375,-0.412754 0.9375,-0.9375 l 0,-13.3125 c 0,-0.52474558 -0.412754,-0.96875 -0.9375,-0.96875 l -5.46875,0 z m -7.84375,0.96875 1.90625,0 0,1.875 -1.90625,0 0,-1.875 z m 0,3.78125 1.90625,0 0,1.90625 -1.90625,0 0,-1.90625 z m 10.46875,0.5 0,3.3125 -2.78125,0 0,0.9375 2.78125,0 0,0.0625 0.9375,-0.15625 0,-0.84375 0.5625,0 -0.0625,-1.90625 -0.5,0 0,-0.96875 -0.9375,-0.4375 z M 8.03125,9 l 0,0.46875 L 8.40625,9 8.03125,9 z M 13.5,10.90625 c 0.176678,0.08256 0.343165,0.160392 0.5,0.28125 l 0,-0.28125 -0.5,0 z"
       inkscape:connector-curvature="0"
       style="fill:#cccccc" />
    <g
       id="g5583"
       transform="matrix(0.77959379,0,0,0.77959379,2.8497118,-0.01432465)"
       style="fill:#cccccc">
      <path
         id="path5585"
         d="m 15.32,16.47 c 0,-0.003 0,-0.007 0,-0.01 V 4.879 L 5.943,0 V 10.523 C 4.655,9.499 2.685,9.6 1.305,10.842 c -1.521,1.37 -1.745,3.604 -0.499,4.989 1.247,1.385 3.492,1.398 5.012,0.028 0.859,-0.771 1.303,-1.817 1.306,-2.831 V 4.372 l 6.977,3.28 v 6.273 c -1.286,-0.991 -3.232,-0.879 -4.6,0.35 -1.523,1.37 -1.744,3.603 -0.498,4.987 1.246,1.387 3.491,1.399 5.014,0.03 0.851,-0.768 1.297,-1.809 1.303,-2.818 l 0,0 V 16.47 z"
         style="fill-rule:evenodd;fill:#cccccc"
         inkscape:connector-curvature="0" />
      <g
         id="g5587"
         style="fill:#cccccc" />
      <g
         id="g5589"
         style="fill:#cccccc" />
      <g
         id="g5591"
         style="fill:#cccccc" />
      <g
         id="g5593"
         style="fill:#cccccc" />
      <g
         id="g5595"
         style="fill:#cccccc" />
      <g
         id="g5597"
         style="fill:#cccccc" />
      <g
         id="g5599"
         style="fill:#cccccc" />
      <g
         id="g5601"
         style="fill:#cccccc" />
      <g
         id="g5603"
         style="fill:#cccccc" />
      <g
         id="g5605"
         style="fill:#cccccc" />
      <g
         id="g5607"
         style="fill:#cccccc" />
      <g
         id="g5609"
         style="fill:#cccccc" />
      <g
         id="g5611"
         style="fill:#cccccc" />
      <g
         id="g5613"
         style="fill:#cccccc" />
      <g
         id="g5615"
         style="fill:#cccccc" />
    </g>
  </g>
</svg>
