<?xml version="1.0" encoding="UTF-8" standalone="no"?>
<!-- Created with Inkscape (http://www.inkscape.org/) -->

<svg
   xmlns:dc="http://purl.org/dc/elements/1.1/"
   xmlns:cc="http://creativecommons.org/ns#"
   xmlns:rdf="http://www.w3.org/1999/02/22-rdf-syntax-ns#"
   xmlns:svg="http://www.w3.org/2000/svg"
   xmlns="http://www.w3.org/2000/svg"
   xmlns:sodipodi="http://sodipodi.sourceforge.net/DTD/sodipodi-0.dtd"
   xmlns:inkscape="http://www.inkscape.org/namespaces/inkscape"
   id="svg7384"
   height="16"
   width="16"
   version="1.1"
   inkscape:version="0.48.4 r9939"
   sodipodi:docname="applications-science-symbolic.svg">
  <defs
     id="defs10" />
  <sodipodi:namedview
     pagecolor="#ffffff"
     bordercolor="#666666"
     borderopacity="1"
     objecttolerance="10"
     gridtolerance="10"
     guidetolerance="10"
     inkscape:pageopacity="0"
     inkscape:pageshadow="2"
     inkscape:window-width="1280"
     inkscape:window-height="748"
     id="namedview8"
     showgrid="true"
     inkscape:zoom="21.066124"
     inkscape:cx="6.3198686"
     inkscape:cy="6.3198686"
     inkscape:window-x="0"
     inkscape:window-y="0"
     inkscape:window-maximized="1"
     inkscape:current-layer="svg7384"
     inkscape:snap-global="false">
    <inkscape:grid
       type="xygrid"
       id="grid3874"
       empspacing="5"
       visible="true"
       enabled="true"
       snapvisiblegridlinesonly="true"
       spacingx="1.3877788e-16px"
       spacingy="1.3877788e-16px" />
  </sodipodi:namedview>
  <metadata
     id="metadata90">
    <rdf:RDF>
      <cc:Work
         rdf:about="">
        <dc:format>image/svg+xml</dc:format>
        <dc:type
           rdf:resource="http://purl.org/dc/dcmitype/StillImage" />
        <dc:title>Gnome Symbolic Icon Theme</dc:title>
      </cc:Work>
    </rdf:RDF>
  </metadata>
  <title
     id="title9167">Gnome Symbolic Icon Theme</title>
  <rect
     style="fill:none;fill-rule:evenodd;stroke:none"
     id="rect3760"
     width="16"
     height="16"
     x="0.042532369"
     y="-7.5582534e-07"
     ry="0.63891309" />
  <g
     transform="matrix(0.85715014,0,0,0.85715014,4.1413791,1.1122001)"
     id="g4374"
     style="stroke-width:0;stroke-miterlimit:4;stroke-dasharray:none;fill:#cccccc">
    <g
       id="g4376"
       transform="scale(0.16541353,0.16541353)"
       style="stroke-width:0;stroke-miterlimit:4;stroke-dasharray:none;fill:#cccccc" />
    <g
       id="g4380"
       transform="translate(-39.225564,-37.556391)"
       style="stroke-width:0;stroke-miterlimit:4;stroke-dasharray:none;fill:#cccccc" />
    <g
       id="g4382"
       transform="translate(-39.225564,-37.556391)"
       style="stroke-width:0;stroke-miterlimit:4;stroke-dasharray:none;fill:#cccccc" />
    <g
       id="g4384"
       transform="translate(-39.225564,-37.556391)"
       style="stroke-width:0;stroke-miterlimit:4;stroke-dasharray:none;fill:#cccccc" />
    <g
       id="g4386"
       transform="translate(-39.225564,-37.556391)"
       style="stroke-width:0;stroke-miterlimit:4;stroke-dasharray:none;fill:#cccccc" />
    <g
       id="g4388"
       transform="translate(-39.225564,-37.556391)"
       style="stroke-width:0;stroke-miterlimit:4;stroke-dasharray:none;fill:#cccccc" />
    <g
       id="g4390"
       transform="translate(-39.225564,-37.556391)"
       style="stroke-width:0;stroke-miterlimit:4;stroke-dasharray:none;fill:#cccccc" />
    <g
       id="g4392"
       transform="translate(-39.225564,-37.556391)"
       style="stroke-width:0;stroke-miterlimit:4;stroke-dasharray:none;fill:#cccccc" />
    <g
       id="g4394"
       transform="translate(-39.225564,-37.556391)"
       style="stroke-width:0;stroke-miterlimit:4;stroke-dasharray:none;fill:#cccccc" />
    <g
       id="g4396"
       transform="translate(-39.225564,-37.556391)"
       style="stroke-width:0;stroke-miterlimit:4;stroke-dasharray:none;fill:#cccccc" />
    <g
       id="g4398"
       transform="translate(-39.225564,-37.556391)"
       style="stroke-width:0;stroke-miterlimit:4;stroke-dasharray:none;fill:#cccccc" />
    <g
       id="g4400"
       transform="translate(-39.225564,-37.556391)"
       style="stroke-width:0;stroke-miterlimit:4;stroke-dasharray:none;fill:#cccccc" />
    <g
       id="g4402"
       transform="translate(-39.225564,-37.556391)"
       style="stroke-width:0;stroke-miterlimit:4;stroke-dasharray:none;fill:#cccccc" />
    <g
       id="g4404"
       transform="translate(-39.225564,-37.556391)"
       style="stroke-width:0;stroke-miterlimit:4;stroke-dasharray:none;fill:#cccccc" />
    <g
       id="g4406"
       transform="translate(-39.225564,-37.556391)"
       style="stroke-width:0;stroke-miterlimit:4;stroke-dasharray:none;fill:#cccccc" />
    <g
       id="g4408"
       transform="translate(-39.225564,-37.556391)"
       style="stroke-width:0;stroke-miterlimit:4;stroke-dasharray:none;fill:#cccccc" />
  </g>
  <g
     transform="matrix(0.96571603,0,0,0.96571603,-0.3198648,2.304078)"
     id="g4410">
    <g
       id="g4412"
       transform="scale(0.16541353,0.16541353)" />
    <g
       id="g4416"
       transform="translate(-39.225564,-37.556391)" />
    <g
       id="g4418"
       transform="translate(-39.225564,-37.556391)" />
    <g
       id="g4420"
       transform="translate(-39.225564,-37.556391)" />
    <g
       id="g4422"
       transform="translate(-39.225564,-37.556391)" />
    <g
       id="g4424"
       transform="translate(-39.225564,-37.556391)" />
    <g
       id="g4426"
       transform="translate(-39.225564,-37.556391)" />
    <g
       id="g4428"
       transform="translate(-39.225564,-37.556391)" />
    <g
       id="g4430"
       transform="translate(-39.225564,-37.556391)" />
    <g
       id="g4432"
       transform="translate(-39.225564,-37.556391)" />
    <g
       id="g4434"
       transform="translate(-39.225564,-37.556391)" />
    <g
       id="g4436"
       transform="translate(-39.225564,-37.556391)" />
    <g
       id="g4438"
       transform="translate(-39.225564,-37.556391)" />
    <g
       id="g4440"
       transform="translate(-39.225564,-37.556391)" />
    <g
       id="g4442"
       transform="translate(-39.225564,-37.556391)" />
    <g
       id="g4444"
       transform="translate(-39.225564,-37.556391)" />
  </g>
  <g
     id="g5565"
     transform="matrix(0.85738422,0,0,0.85738422,1.9246689,-0.73847626)">
    <g
       id="g5529" />
    <g
       id="g5531" />
    <g
       id="g5533" />
    <g
       id="g5535" />
    <g
       id="g5537" />
    <g
       id="g5539" />
    <g
       id="g5541" />
    <g
       id="g5543" />
    <g
       id="g5545" />
    <g
       id="g5547" />
    <g
       id="g5549" />
    <g
       id="g5551" />
    <g
       id="g5553" />
    <g
       id="g5555" />
    <g
       id="g5557" />
  </g>
  <path
     id="path5900"
     d="M 14.980531,13.37654 9.9164017,8.3124118 C 9.8690175,8.2648297 9.8182793,8.2225809 9.7661622,8.1830988 L 10.66306,7.2386214 c 0.0458,-0.046198 0.08924,-0.094764 0.129117,-0.1447119 1.190665,0.4491401 2.587836,0.1966345 3.544949,-0.7602808 0.698092,-0.6982895 1.0501,-1.6638914 0.965009,-2.6494333 -0.0092,-0.1115447 -0.08311,-0.2078877 -0.188145,-0.2459906 -0.105425,-0.038498 -0.223287,-0.01224 -0.302651,0.066729 L 13.188511,5.1277616 11.545152,4.7135655 11.079231,3.018481 12.70186,1.3958512 C 12.78142,1.3164872 12.807482,1.198427 12.76918,1.0931998 12.73088,0.98777574 12.634538,0.91453094 12.522796,0.90465974 11.537255,0.81976735 10.571653,1.1715772 9.8733622,1.8698668 8.917039,2.8261897 8.6639409,4.2225715 9.1124887,5.4128421 9.06373,5.4541034 9.0151581,5.4979324 8.9675804,5.5449189 L 7.6474039,6.8127774 5.2232324,4.3888026 C 5.1930248,4.3583993 5.1606509,4.3317469 5.1274853,4.3066737 5.1559114,4.256725 5.1835568,4.2053953 5.2094207,4.1520904 5.7213417,4.2506053 6.65733,3.2536127 7.4521598,2.4589801 L 5.1363661,0.14299704 C 4.1008764,1.1786845 3.3447414,1.8738152 3.4428616,2.3857363 3.2061495,2.5014269 2.9951033,2.6427827 2.8450606,2.7930225 L 2.5189156,3.1191673 C 2.3070799,3.331201 2.1793462,3.5949597 2.1337412,3.8697743 2.1021534,3.9059028 2.0699732,3.9440057 2.0379905,3.9846751 L 1.9163771,4.1374816 c -0.00335,0.00375 -0.013819,0.018756 -0.016781,0.022704 l -0.110163,0.1541886 c -0.068901,0.092 -0.1291154,0.1918964 -0.1873556,0.2882394 -0.021519,0.035733 -0.043433,0.071665 -0.065742,0.1073991 -0.00355,0.00613 -0.0071,0.01224 -0.010271,0.018361 l -0.048961,0.092197 C 1.4178765,4.931523 1.3564778,5.0464238 1.3039631,5.1727754 l -0.00849,0.020137 C 1.2334867,5.34019 1.1693238,5.4926015 1.1245085,5.6540945 l -0.021717,0.069889 c -0.017768,0.05745 -0.035733,0.1149008 -0.052317,0.183407 l -0.045012,0.222892 C 0.9718999,6.269664 0.9606471,6.4070713 0.9507754,6.528882 l -0.00651,0.079957 c -0.0165839,0.1263515 -0.0118455,0.2453983 -0.007302,0.3504279 0.001584,0.035142 0.002958,0.069691 0.003948,0.1162829 0.001188,0.019347 0.001386,0.0383 0.001979,0.056858 0.001188,0.046987 0.002364,0.100292 0.0114507,0.15636 l 0.0282315,0.1808406 c 0.006125,0.034944 0.0112528,0.068901 0.0159912,0.1014764 0.0108536,0.073442 0.021914,0.1494501 0.043828,0.22151 l 0.1184544,0.4110366 c 0.036524,0.1249705 0.1551755,0.2076911 0.2850807,0.1986091 0.068703,-0.00473 0.1304974,-0.034551 0.1764972,-0.08055 0.041065,-0.041061 0.069493,-0.095153 0.07818,-0.1559654 l 0.061399,-0.4179468 c 0.00454,-0.033168 0.018756,-0.081733 0.033563,-0.133064 0.010469,-0.035733 0.02073,-0.072059 0.028626,-0.1030554 l 0.043631,-0.1559651 c 0.00533,-0.021124 0.015597,-0.041656 0.024678,-0.062781 0.00869,-0.019545 0.017374,-0.039682 0.025073,-0.059622 0.014609,-0.033167 0.028429,-0.066335 0.042051,-0.100292 0.026849,-0.066729 0.052317,-0.1295104 0.09121,-0.1911066 0.016781,-0.028429 0.032575,-0.056661 0.048566,-0.085485 0.040472,-0.072454 0.07897,-0.1409609 0.1245751,-0.1976217 0.00297,-0.00335 0.0055,-0.0071 0.00847,-0.011056 L 2.3355047,6.505584 C 2.3566287,6.478932 2.3803157,6.453662 2.4034197,6.428193 2.4198047,6.410227 2.4361897,6.392262 2.4569177,6.368571 2.5177287,6.295327 2.5891923,6.2315587 2.6580935,6.1687779 l 0.036915,-0.033168 c 0.051134,-0.047382 0.1101637,-0.092 0.1723515,-0.1391841 0.025468,-0.018953 0.050342,-0.037905 0.074821,-0.056463 0.031395,-0.020335 0.06179,-0.04067 0.091799,-0.060807 0.056071,-0.037905 0.1046323,-0.070678 0.1607027,-0.099897 l 0.122206,-0.069494 0.1235871,-0.060609 c 0.043041,-0.022309 0.085487,-0.039485 0.1245746,-0.055279 0.023291,-0.00968 0.046197,-0.018953 0.067519,-0.028232 0.021718,-0.0075 0.042645,-0.015596 0.062384,-0.022901 0.026458,-0.00968 0.049353,-0.018953 0.080352,-0.027047 l 0.033364,-0.0075 c 0.036322,0.058833 0.078966,0.1147034 0.1301026,0.1658362 L 6.3366853,8.0719488 1.2176728,12.988602 c -0.00198,0.0022 -0.00395,0.0042 -0.00573,0.0059 -0.6370881,0.637088 -0.74073581,1.569918 -0.1036482,2.207005 0.637088,0.637088 1.5106899,0.473819 2.1475803,-0.163072 0.00275,-0.0025 0.00517,-0.0052 0.0077,-0.0081 l 4.5158815,-4.75516 c 0.026458,0.03138 0.052718,0.06278 0.082133,0.0922 l 5.0637336,5.063931 c 0.567397,0.567594 1.487789,0.567594 2.055186,0 0.567201,-0.567002 0.567201,-1.487592 0,-2.054791 z M 2.5949239,14.513309 c -0.2345392,0.234936 -0.6149762,0.234936 -0.8497135,0 -0.23454,-0.23454 -0.23454,-0.614779 0,-0.849516 0.23454,-0.234343 0.6149764,-0.234541 0.8497135,0 0.2343424,0.234737 0.2343424,0.614976 0,0.849516 z"
     inkscape:connector-curvature="0"
     style="fill:#cccccc" />
</svg>
