<?xml version="1.0" encoding="UTF-8" standalone="no"?>
<!-- Created with Inkscape (http://www.inkscape.org/) -->

<svg
   xmlns:dc="http://purl.org/dc/elements/1.1/"
   xmlns:cc="http://creativecommons.org/ns#"
   xmlns:rdf="http://www.w3.org/1999/02/22-rdf-syntax-ns#"
   xmlns:svg="http://www.w3.org/2000/svg"
   xmlns="http://www.w3.org/2000/svg"
   xmlns:sodipodi="http://sodipodi.sourceforge.net/DTD/sodipodi-0.dtd"
   xmlns:inkscape="http://www.inkscape.org/namespaces/inkscape"
   id="svg7384"
   height="16"
   width="16"
   version="1.1"
   inkscape:version="0.48.4 r9939"
   sodipodi:docname="preferences-system-symbolic.svg">
  <defs
     id="defs10" />
  <sodipodi:namedview
     pagecolor="#ffffff"
     bordercolor="#666666"
     borderopacity="1"
     objecttolerance="10"
     gridtolerance="10"
     guidetolerance="10"
     inkscape:pageopacity="0"
     inkscape:pageshadow="2"
     inkscape:window-width="1280"
     inkscape:window-height="748"
     id="namedview8"
     showgrid="true"
     inkscape:zoom="21.066124"
     inkscape:cx="8.1539733"
     inkscape:cy="3.6764947"
     inkscape:window-x="0"
     inkscape:window-y="0"
     inkscape:window-maximized="1"
     inkscape:current-layer="svg7384"
     inkscape:snap-global="true"
     showguides="true"
     inkscape:guide-bbox="true">
    <inkscape:grid
       type="xygrid"
       id="grid3874"
       empspacing="5"
       visible="true"
       enabled="true"
       snapvisiblegridlinesonly="true"
       spacingx="1.3877788e-16px"
       spacingy="1.3877788e-16px" />
    <sodipodi:guide
       orientation="1,0"
       position="20.703125,8.2031251"
       id="guide6043" />
  </sodipodi:namedview>
  <metadata
     id="metadata90">
    <rdf:RDF>
      <cc:Work
         rdf:about="">
        <dc:format>image/svg+xml</dc:format>
        <dc:type
           rdf:resource="http://purl.org/dc/dcmitype/StillImage" />
        <dc:title>Gnome Symbolic Icon Theme</dc:title>
      </cc:Work>
    </rdf:RDF>
  </metadata>
  <title
     id="title9167">Gnome Symbolic Icon Theme</title>
  <rect
     style="fill:none;fill-rule:evenodd;stroke:none"
     id="rect3760"
     width="16"
     height="16"
     x="0.042532369"
     y="-7.5582534e-07"
     ry="0.63891309" />
  <g
     transform="matrix(0.85715014,0,0,0.85715014,4.1413791,1.1122001)"
     id="g4374"
     style="stroke-width:0;stroke-miterlimit:4;stroke-dasharray:none;fill:#cccccc">
    <g
       id="g4376"
       transform="scale(0.16541353,0.16541353)"
       style="stroke-width:0;stroke-miterlimit:4;stroke-dasharray:none;fill:#cccccc" />
    <g
       id="g4380"
       transform="translate(-39.225564,-37.556391)"
       style="stroke-width:0;stroke-miterlimit:4;stroke-dasharray:none;fill:#cccccc" />
    <g
       id="g4382"
       transform="translate(-39.225564,-37.556391)"
       style="stroke-width:0;stroke-miterlimit:4;stroke-dasharray:none;fill:#cccccc" />
    <g
       id="g4384"
       transform="translate(-39.225564,-37.556391)"
       style="stroke-width:0;stroke-miterlimit:4;stroke-dasharray:none;fill:#cccccc" />
    <g
       id="g4386"
       transform="translate(-39.225564,-37.556391)"
       style="stroke-width:0;stroke-miterlimit:4;stroke-dasharray:none;fill:#cccccc" />
    <g
       id="g4388"
       transform="translate(-39.225564,-37.556391)"
       style="stroke-width:0;stroke-miterlimit:4;stroke-dasharray:none;fill:#cccccc" />
    <g
       id="g4390"
       transform="translate(-39.225564,-37.556391)"
       style="stroke-width:0;stroke-miterlimit:4;stroke-dasharray:none;fill:#cccccc" />
    <g
       id="g4392"
       transform="translate(-39.225564,-37.556391)"
       style="stroke-width:0;stroke-miterlimit:4;stroke-dasharray:none;fill:#cccccc" />
    <g
       id="g4394"
       transform="translate(-39.225564,-37.556391)"
       style="stroke-width:0;stroke-miterlimit:4;stroke-dasharray:none;fill:#cccccc" />
    <g
       id="g4396"
       transform="translate(-39.225564,-37.556391)"
       style="stroke-width:0;stroke-miterlimit:4;stroke-dasharray:none;fill:#cccccc" />
    <g
       id="g4398"
       transform="translate(-39.225564,-37.556391)"
       style="stroke-width:0;stroke-miterlimit:4;stroke-dasharray:none;fill:#cccccc" />
    <g
       id="g4400"
       transform="translate(-39.225564,-37.556391)"
       style="stroke-width:0;stroke-miterlimit:4;stroke-dasharray:none;fill:#cccccc" />
    <g
       id="g4402"
       transform="translate(-39.225564,-37.556391)"
       style="stroke-width:0;stroke-miterlimit:4;stroke-dasharray:none;fill:#cccccc" />
    <g
       id="g4404"
       transform="translate(-39.225564,-37.556391)"
       style="stroke-width:0;stroke-miterlimit:4;stroke-dasharray:none;fill:#cccccc" />
    <g
       id="g4406"
       transform="translate(-39.225564,-37.556391)"
       style="stroke-width:0;stroke-miterlimit:4;stroke-dasharray:none;fill:#cccccc" />
    <g
       id="g4408"
       transform="translate(-39.225564,-37.556391)"
       style="stroke-width:0;stroke-miterlimit:4;stroke-dasharray:none;fill:#cccccc" />
  </g>
  <g
     transform="matrix(0.96571603,0,0,0.96571603,-0.3198648,2.304078)"
     id="g4410">
    <g
       id="g4412"
       transform="scale(0.16541353,0.16541353)" />
    <g
       id="g4416"
       transform="translate(-39.225564,-37.556391)" />
    <g
       id="g4418"
       transform="translate(-39.225564,-37.556391)" />
    <g
       id="g4420"
       transform="translate(-39.225564,-37.556391)" />
    <g
       id="g4422"
       transform="translate(-39.225564,-37.556391)" />
    <g
       id="g4424"
       transform="translate(-39.225564,-37.556391)" />
    <g
       id="g4426"
       transform="translate(-39.225564,-37.556391)" />
    <g
       id="g4428"
       transform="translate(-39.225564,-37.556391)" />
    <g
       id="g4430"
       transform="translate(-39.225564,-37.556391)" />
    <g
       id="g4432"
       transform="translate(-39.225564,-37.556391)" />
    <g
       id="g4434"
       transform="translate(-39.225564,-37.556391)" />
    <g
       id="g4436"
       transform="translate(-39.225564,-37.556391)" />
    <g
       id="g4438"
       transform="translate(-39.225564,-37.556391)" />
    <g
       id="g4440"
       transform="translate(-39.225564,-37.556391)" />
    <g
       id="g4442"
       transform="translate(-39.225564,-37.556391)" />
    <g
       id="g4444"
       transform="translate(-39.225564,-37.556391)" />
  </g>
  <g
     id="g5565"
     transform="matrix(0.85738422,0,0,0.85738422,1.9246689,-0.73847626)">
    <g
       id="g5529" />
    <g
       id="g5531" />
    <g
       id="g5533" />
    <g
       id="g5535" />
    <g
       id="g5537" />
    <g
       id="g5539" />
    <g
       id="g5541" />
    <g
       id="g5543" />
    <g
       id="g5545" />
    <g
       id="g5547" />
    <g
       id="g5549" />
    <g
       id="g5551" />
    <g
       id="g5553" />
    <g
       id="g5555" />
    <g
       id="g5557" />
  </g>
  <g
     id="g6069"
     transform="matrix(0.81871475,0,0,0.81871475,2.6315379,-0.16750349)">
    <g
       id="g6063">
      <path
         style="fill:none;stroke:#cccccc;stroke-width:1px;stroke-linecap:butt;stroke-linejoin:miter;stroke-opacity:1"
         d="m -1.0625,10.15625 0,5.78125 c 0,1.652746 1.3160038,2.96875 2.96875,2.96875 l 7.5625,0 c 1.652746,0 2.96875,-1.316004 2.96875,-2.96875 l 0,-5.78125 -13.5,0 z m 13.71875,0.90625 -0.03125,4.40625 0.90625,0 c 0.646173,0 1.15625,-0.510077 1.15625,-1.15625 l 0,-2.0625 c 0,-0.646172 -0.510077,-1.1875 -1.15625,-1.1875 l -0.875,0 z"
         id="rect6021"
         inkscape:connector-curvature="0" />
      <path
         style="fill:#cccccc;stroke:none"
         d="m 9.6169497,2.8310713 1.0043963,-0.4603174 -0.6800983,1.8308916 0.09414,0.8683762 1.464713,0.5440783 0.638218,-0.596337 0.680098,-1.8308916 0.460317,1.0043958 -0.816118,2.1970699 -1.004391,0.4603193 -1.295102,2.8064043 -2.3437524,0 1.4417823,-3.622522 -0.460322,-1.0043975 z"
         id="path6032"
         inkscape:connector-curvature="0"
         sodipodi:nodetypes="ccccccccccccccc" />
      <path
         id="path6036"
         style="fill:#cccccc;stroke:none"
         d="M -1.8873114,3.5195439 C -1.5326439,3.3558402 0.40439703,2.8919894 0.40439703,2.8919894 L -1.9692346,0.54576072 z M 0.89565083,9.5488912 3.5147664,9.6306712 0.40439703,2.8919894 -1.9692346,0.54576072 -1.8873116,3.5195439 z"
         inkscape:connector-curvature="0" />
      <path
         style="fill:#cccccc;fill-rule:evenodd;stroke:#000000;stroke-width:0;stroke-linecap:butt;stroke-linejoin:miter;stroke-miterlimit:4;stroke-opacity:1;stroke-dasharray:none"
         d="m 4.4557717,3.1194828 -0.35917,1.2211792 0.08979,0.053876 c -0.04073,0.015502 -0.08629,0.017905 -0.12571,0.035917 l 0.03592,-0.089793 -1.113428,-0.6105896 -0.628548,0.6285482 0.610589,1.1134281 0.08979,-0.017958 c -0.0155,0.034661 -0.02234,0.07209 -0.03592,0.1077511 l -0.05388,-0.089793 -1.20322,0.3412118 0,0.897926 1.20322,0.3591703 0.05388,-0.089793 c 0.0155,0.040732 0.0179,0.086288 0.03592,0.1257097 l -0.08979,-0.035917 -0.610589,1.1134282 0.628548,0.6285487 1.113428,-0.6105902 -0.03592,-0.089793 c 0.03942,0.018012 0.08498,0.020415 0.12571,0.035917 l -0.08979,0.053876 0.341212,1.2032212 0.915884,0 0.341212,-1.2032212 -0.08979,-0.053876 c 0.03566,-0.013572 0.07309,-0.020416 0.107752,-0.035917 l -0.01796,0.089793 1.113428,0.6105902 0.628548,-0.6285487 -0.610589,-1.1134282 -0.08979,0.035917 c 0.01801,-0.039421 0.02041,-0.084977 0.03592,-0.1257097 l 0.05388,0.089793 1.20322,-0.3412118 0,-0.9158845 -1.20322,-0.3412118 -0.05388,0.089793 c -0.0155,-0.040732 -0.0179,-0.086288 -0.03592,-0.1257096 l 0.08979,0.035917 0.610589,-1.1134281 -0.628548,-0.6285482 -1.113428,0.6105896 0.01796,0.089793 c -0.03466,-0.015501 -0.07209,-0.022345 -0.107752,-0.035917 l 0.08979,-0.053876 -0.341212,-1.2211792 -0.897926,0 z"
         id="path6039"
         inkscape:connector-curvature="0" />
    </g>
  </g>
</svg>
